<?xml version="1.0" encoding="utf-8"?>
<svg width="141" height="119" viewBox="0 0 141 119" fill="none" xmlns="http://www.w3.org/2000/svg">
  <g>
    <rect width="141" height="119" />
    <path id="Plant Icon" d="M51.5623 110.901C50.8021 95.8204 49.3021 80.8205 47.0623 65.9006C30.6358 65.9389 17.8024 59.2722 8.56225 45.9006C5.74257 40.2435 3.0759 34.5768 0.562241 28.9006C0.0627019 22.576 -0.103965 16.2426 0.062241 9.90055C-0.0325911 6.3424 1.13407 3.3424 3.56224 0.900545C33.4458 -3.64566 51.1124 9.02101 56.5623 38.9006C63.7012 25.0933 74.8679 16.5933 90.0623 13.4006C104.949 9.99525 119.949 8.82858 135.062 9.90055C136.694 12.8252 138.027 15.8253 139.062 18.9006C132.204 40.9349 118.538 57.4349 98.0623 68.4006C83.9898 73.3431 69.6565 74.1765 55.0623 70.9006C55.8198 81.5884 57.9865 91.9217 61.5623 101.901C62.8111 107.683 62.5089 109.785 62.0622 110.901C61.5653 112.141 59.2186 113.882 58.0622 113.901C56.9058 113.919 53.2288 113.397 51.5623 110.901Z" fill="#050505" fill-rule="evenodd" transform="translate(0.438 0.599)" />
    <path id="Leaf Icon" d="M0.342174 0C16.3046 1.56011 28.8046 8.8934 37.8422 22C41.1611 30.7013 42.1611 39.7013 40.8422 49C33.7834 35.2745 23.4501 24.9412 9.84217 18C9.67547 18.5 9.50887 19 9.34217 19.5C20.4652 30.9529 30.4652 43.2862 39.3422 56.5C19.3511 53.8479 6.85107 42.6812 1.84217 23C0.0847635 15.3195 -0.415236 7.6528 0.342174 0C0.342174 0 0.342174 0 0.342174 0Z" fill="#88CC78" fill-rule="evenodd" fill-opacity="0.988" transform="translate(7.158 3.5)" />
    <path id="Leaf Icon" d="M62.5 0C65.833 0 69.167 0 72.5 0C65.634 30.5288 46.634 47.8621 15.5 52C9.9672 51.992 4.8005 50.6586 0 48C4.6472 41.0107 10.4805 34.844 17.5 29.5C26.7103 24.6518 36.377 20.9851 46.5 18.5C47.91 18.1322 48.91 17.2989 49.5 16C31.4616 14.6248 15.9616 20.2915 3 33C7.9582 20.3701 16.7915 11.2034 29.5 5.5C40.6737 3.9004 51.674 2.0671 62.5 0C62.5 0 62.5 0 62.5 0Z" fill="#88CC78" fill-rule="evenodd" fill-opacity="0.988" transform="translate(57 15.5)" />
  </g>
</svg>