<?xml version="1.0" encoding="UTF-8"?>
<!DOCTYPE svg PUBLIC "-//W3C//DTD SVG 1.1//EN" "http://www.w3.org/Graphics/SVG/1.1/DTD/svg11.dtd">
<svg xmlns="http://www.w3.org/2000/svg" version="1.1" width="141px" height="119px" style="shape-rendering:geometricPrecision; text-rendering:geometricPrecision; image-rendering:optimizeQuality; fill-rule:evenodd; clip-rule:evenodd" xmlns:xlink="http://www.w3.org/1999/xlink">
<g><path style="opacity:1" fill="#050505" d="M 59.5,118.5 C 58.8333,118.5 58.1667,118.5 57.5,118.5C 55.4998,116.329 53.6665,113.996 52,111.5C 51.2398,96.4199 49.7398,81.4199 47.5,66.5C 31.0735,66.5383 18.2401,59.8716 9,46.5C 6.18033,40.8429 3.51366,35.1762 1,29.5C 0.500461,23.1754 0.333794,16.8421 0.5,10.5C 0.405168,6.94185 1.57183,3.94185 4,1.5C 33.8835,-3.0462 51.5501,9.62047 57,39.5C 64.1389,25.6927 75.3056,17.1927 90.5,14C 105.387,10.5947 120.387,9.42803 135.5,10.5C 137.132,13.4247 138.465,16.4247 139.5,19.5C 132.642,41.5343 118.976,58.0343 98.5,69C 84.4275,73.9425 70.0942,74.7759 55.5,71.5C 56.2575,82.1878 58.4242,92.5211 62,102.5C 63.2488,108.282 62.4154,113.615 59.5,118.5 Z"/></g>
<g><path style="opacity:1" fill="#88CC78FC" d="M 7.5,3.5 C 23.4624,5.06011 35.9624,12.3934 45,25.5C 48.3189,34.2013 49.3189,43.2013 48,52.5C 40.9412,38.7745 30.6079,28.4412 17,21.5C 16.8333,22 16.6667,22.5 16.5,23C 27.623,34.4529 37.623,46.7862 46.5,60C 26.5089,57.3479 14.0089,46.1812 9,26.5C 7.24259,18.8195 6.74259,11.1528 7.5,3.5 Z"/></g>
<g><path style="opacity:1" fill="#88CC78FC" d="M 119.5,15.5 C 122.833,15.5 126.167,15.5 129.5,15.5C 122.634,46.0288 103.634,63.3621 72.5,67.5C 66.9672,67.492 61.8005,66.1586 57,63.5C 61.6472,56.5107 67.4805,50.344 74.5,45C 83.7103,40.1518 93.377,36.4851 103.5,34C 104.91,33.6322 105.91,32.7989 106.5,31.5C 88.4616,30.1248 72.9616,35.7915 60,48.5C 64.9582,35.8701 73.7915,26.7034 86.5,21C 97.6737,19.4004 108.674,17.5671 119.5,15.5 Z"/></g>
</svg>
