<svg xmlns="http://www.w3.org/2000/svg" width="800" height="491" viewBox="0 0 800 491" version="1.1">
    <path
        d="M 579.500 155.003 L 576.500 155.763 580 155.952 C 581.925 156.056, 584.400 156.527, 585.500 157 C 587.190 157.726, 587.009 157.870, 584.333 157.930 C 582.592 157.968, 580.940 158.563, 580.662 159.250 C 580.259 160.250, 580.142 160.250, 580.079 159.250 C 579.963 157.408, 578.333 157.727, 578.333 159.592 C 578.333 160.779, 579.005 161.049, 580.975 160.655 C 584.944 159.861, 596.609 162.546, 604.713 166.118 C 607.029 167.139, 609.504 168.093, 610.213 168.238 C 610.921 168.382, 611.729 168.801, 612.009 169.170 C 612.290 169.538, 613.179 169.988, 613.986 170.170 C 614.792 170.351, 616.062 171.067, 616.807 171.759 C 617.552 172.452, 618.575 172.763, 619.081 172.450 C 619.586 172.138, 620 172.359, 620 172.941 C 620 173.523, 620.873 174, 621.941 174 C 623.009 174, 624.142 174.422, 624.461 174.937 C 625.464 176.560, 630.964 178.952, 630.719 177.658 C 630.599 177.021, 631.063 176.613, 631.750 176.750 C 634.164 177.233, 632.961 176.021, 629.040 174.020 C 626.862 172.909, 624.387 172, 623.540 172 C 622.693 172, 622 171.564, 622 171.031 C 622 170.499, 621.371 170.304, 620.601 170.600 C 618.687 171.334, 617.567 169.227, 618.971 167.535 C 619.893 166.424, 619.716 166.262, 618.052 166.697 C 616.917 166.993, 615.230 166.620, 614.303 165.868 C 612.915 164.743, 612.760 164.739, 613.429 165.850 C 614.091 166.951, 613.838 166.984, 612.056 166.030 C 610.367 165.126, 610.125 164.554, 610.993 163.509 C 611.893 162.424, 611.678 162.272, 609.901 162.736 C 608.369 163.137, 607.909 162.956, 608.407 162.150 C 608.803 161.510, 608.536 160.807, 607.813 160.589 C 587.132 154.340, 584.310 153.784, 579.500 155.003 M 582.707 163.988 C 581.171 164.462, 576.939 165.169, 573.302 165.558 C 569.665 165.948, 564.037 167.344, 560.795 168.661 C 557.553 169.979, 554.504 170.811, 554.019 170.512 C 553.535 170.212, 552.891 170.367, 552.590 170.855 C 552.097 171.651, 548.009 172.928, 544 173.537 C 540.872 174.012, 539.478 174.531, 538.804 175.472 C 538.407 176.026, 537.824 175.704, 537.447 174.722 C 537.083 173.775, 536.358 173, 535.834 173 C 535.310 173, 535.203 173.520, 535.595 174.155 C 536.036 174.868, 535.870 175.038, 535.160 174.599 C 534.528 174.208, 531.421 174.764, 528.255 175.834 C 525.090 176.904, 519.350 178.475, 515.500 179.325 C 511.650 180.175, 506.250 181.907, 503.500 183.173 C 500.750 184.439, 498.050 185.505, 497.500 185.540 C 495.860 185.647, 488.578 188.199, 487.500 189.045 C 486.438 189.878, 485.921 190, 483.441 190 C 482.517 190, 482.173 190.470, 482.595 191.155 C 483.047 191.885, 482.869 192.037, 482.111 191.568 C 481.452 191.161, 480.370 191.278, 479.706 191.829 C 479.043 192.379, 478.275 192.802, 478 192.768 C 476.606 192.596, 473 194.255, 473 195.067 C 473 195.580, 472.663 195.903, 472.250 195.785 C 470.919 195.404, 462 199.241, 462 200.195 C 462 200.703, 461.603 200.873, 461.118 200.573 C 460.632 200.273, 459.099 200.921, 457.710 202.014 C 456.321 203.106, 454.328 204, 453.281 204 C 452.234 204, 450.290 205.012, 448.962 206.250 C 447.634 207.488, 446.419 208.378, 446.263 208.230 C 446.107 208.081, 444.621 208.662, 442.960 209.521 C 441.300 210.379, 439.552 210.841, 439.075 210.547 C 438.599 210.252, 437.952 210.684, 437.636 211.506 C 437.321 212.328, 436.374 213, 435.531 213 C 434.689 213, 433.212 213.720, 432.250 214.600 C 431.288 215.480, 426.675 218.381, 422 221.047 C 417.325 223.713, 412.836 226.481, 412.025 227.197 C 411.213 227.914, 410.388 228.350, 410.191 228.167 C 409.994 227.983, 409.533 228.133, 409.167 228.500 C 408.800 228.867, 408.950 229.056, 409.500 228.922 C 410.050 228.787, 411.850 229.240, 413.500 229.927 C 415.150 230.615, 417.175 231.330, 418 231.516 C 418.825 231.701, 421.297 232.745, 423.494 233.835 C 425.691 234.925, 427.829 235.606, 428.244 235.349 C 428.660 235.092, 429 235.321, 429 235.858 C 429 236.395, 431.137 237.642, 433.750 238.629 C 436.363 239.617, 439.095 241.004, 439.821 241.712 C 440.548 242.420, 441.697 243, 442.375 243 C 444.020 243, 454.410 248.163, 454.833 249.190 C 455.017 249.636, 456.003 250, 457.024 250 C 458.046 250, 459.189 250.497, 459.564 251.104 C 459.940 251.711, 462.104 253.052, 464.373 254.082 C 467.466 255.486, 467.936 255.962, 466.250 255.978 C 464.888 255.991, 464 256.615, 464 257.559 C 464 258.416, 463.543 258.835, 462.984 258.490 C 462.425 258.144, 462.226 257.443, 462.543 256.931 C 462.859 256.419, 462.079 255.995, 460.809 255.989 C 459.539 255.983, 456.279 255.305, 453.564 254.481 C 450.849 253.657, 447.805 253.245, 446.799 253.564 C 444.912 254.163, 431.149 249.231, 418 243.244 C 413.875 241.366, 407.350 238.685, 403.500 237.286 C 399.650 235.887, 395.661 234.159, 394.635 233.447 C 393.610 232.734, 392.193 232.373, 391.486 232.644 C 390.780 232.915, 389.901 232.648, 389.532 232.052 C 389.163 231.455, 388.443 231.226, 387.931 231.543 C 387.419 231.859, 387 231.630, 387 231.034 C 387 230.438, 385.881 229.525, 384.514 229.005 C 383.146 228.485, 380.137 227.146, 377.826 226.030 C 375.515 224.913, 373.034 224, 372.312 224 C 371.590 224, 370.997 223.662, 370.994 223.250 C 370.983 221.957, 365.533 219.332, 363.215 219.503 C 361.997 219.592, 361 219.261, 361 218.765 C 361 218.270, 360.100 218.151, 359 218.500 C 357.879 218.856, 357 218.680, 357 218.099 C 357 217.529, 356.325 217.322, 355.500 217.638 C 354.675 217.955, 354 217.730, 354 217.138 C 354 216.547, 353.325 216.322, 352.500 216.638 C 351.675 216.955, 351 216.730, 351 216.138 C 351 215.547, 350.325 215.322, 349.500 215.638 C 348.668 215.958, 348 215.667, 348 214.985 C 348 214.019, 347.678 214.022, 346.500 215 C 345.130 216.137, 344.573 215.706, 344.882 213.750 C 345.063 212.602, 343.543 212.857, 342.200 214.200 C 341.267 215.133, 341 215.029, 341 213.731 C 341 212.659, 340.464 212.268, 339.500 212.638 C 338.675 212.955, 338 212.686, 338 212.040 C 338 211.320, 337.225 211.111, 336 211.500 C 334.900 211.849, 334 211.697, 334 211.161 C 334 210.625, 333.100 210.423, 332 210.710 C 330.867 211.007, 330 210.741, 330 210.098 C 330 209.386, 329.067 209.196, 327.500 209.589 C 325.960 209.976, 325 209.791, 325 209.108 C 325 208.499, 325.788 207.964, 326.750 207.921 C 327.850 207.871, 328.023 207.651, 327.216 207.327 C 326.510 207.043, 325.385 207.243, 324.716 207.771 C 323.395 208.814, 307.038 208.606, 301.914 207.481 C 299.510 206.953, 298.936 207.087, 299.524 208.039 C 300.103 208.976, 299.630 209.124, 297.649 208.627 C 295.958 208.202, 295 208.369, 295 209.088 C 295 209.707, 294.325 209.955, 293.500 209.638 C 292.675 209.322, 292 209.547, 292 210.140 C 292 210.794, 291.003 210.966, 289.462 210.580 C 288.066 210.229, 285.144 210.476, 282.969 211.127 C 279.605 212.135, 279.200 212.539, 280.257 213.831 C 281.339 215.152, 281.175 215.147, 279 213.794 C 276.722 212.376, 276.167 212.390, 272.749 213.951 C 270.686 214.894, 269.336 216.026, 269.749 216.468 C 270.162 216.910, 269.519 216.761, 268.319 216.137 C 266.606 215.247, 265.828 215.315, 264.688 216.454 C 263.891 217.252, 262.956 217.705, 262.611 217.461 C 262.266 217.216, 262.416 217.532, 262.945 218.162 C 264.128 219.571, 269.677 219.513, 271.411 218.074 C 272.111 217.493, 272.980 217.313, 273.342 217.675 C 273.704 218.037, 274 217.808, 274 217.167 C 274 216.525, 274.546 216, 275.214 216 C 279.439 216, 270.701 219.651, 251.500 225.910 C 224.836 234.600, 190.643 247.214, 189 248.967 C 188.725 249.260, 187.600 249.658, 186.500 249.850 C 185.400 250.043, 183.600 250.701, 182.500 251.313 C 181.400 251.924, 180.163 252.329, 179.750 252.212 C 179.338 252.096, 179 252.450, 179 253 C 179 253.550, 178.662 253.909, 178.250 253.797 C 177.180 253.508, 170 256.285, 170 256.988 C 170 257.311, 169.091 257.643, 167.980 257.727 C 166.870 257.810, 158.054 261.751, 148.390 266.484 C 138.726 271.216, 129.060 275.792, 126.910 276.653 C 124.759 277.513, 123 278.693, 123 279.275 C 123 279.857, 122.739 280.073, 122.420 279.754 C 121.768 279.102, 106.838 285.899, 105.888 287.281 C 105.552 287.770, 105.102 288.066, 104.888 287.939 C 104.133 287.487, 100 289.146, 100 289.901 C 100 290.322, 99.430 290.667, 98.734 290.667 C 98.038 290.667, 88.925 294.736, 78.484 299.709 C 68.043 304.682, 58.825 308.991, 58 309.285 C 57.175 309.578, 54.812 310.540, 52.750 311.423 C 46.133 314.253, 48.747 311.521, 56.444 307.561 C 60.539 305.455, 64.136 303.088, 64.438 302.301 C 64.856 301.211, 64.452 301.036, 62.744 301.569 C 61.510 301.954, 60.169 302.771, 59.765 303.385 C 59.361 303.998, 59.024 304.181, 59.015 303.792 C 59.007 303.402, 55.962 304.458, 52.250 306.137 C 40.614 311.402, 39.988 311.451, 45.250 306.690 C 50.309 302.113, 50.933 301, 48.441 301 C 45.690 301, 47.773 299.361, 54.723 296.056 C 61.561 292.804, 79.074 283.110, 80 282.065 C 80.275 281.754, 81.175 281.354, 82 281.175 C 82.825 280.996, 83.651 280.431, 83.835 279.919 C 84.020 279.407, 84.586 279.244, 85.092 279.557 C 85.599 279.870, 86.283 279.426, 86.612 278.569 C 86.941 277.712, 87.612 277.260, 88.105 277.565 C 88.597 277.869, 89 277.641, 89 277.059 C 89 276.477, 89.338 276.079, 89.750 276.175 C 90.994 276.464, 96 273.745, 96 272.780 C 96 272.286, 96.450 272.160, 97 272.500 C 97.550 272.840, 98 272.615, 98 272 C 98 271.385, 98.453 271.162, 99.007 271.504 C 99.561 271.847, 100.283 271.426, 100.612 270.569 C 100.941 269.712, 101.612 269.260, 102.105 269.565 C 102.597 269.869, 103 269.641, 103 269.059 C 103 268.477, 103.675 268, 104.500 268 C 105.325 268, 106 267.523, 106 266.941 C 106 266.359, 106.450 266.160, 107 266.500 C 107.550 266.840, 108 266.615, 108 266 C 108 265.385, 108.450 265.160, 109 265.500 C 109.550 265.840, 110 265.690, 110 265.167 C 110 264.645, 111.125 263.934, 112.500 263.589 C 113.875 263.244, 115 262.494, 115 261.922 C 115 261.350, 115.450 261.160, 116 261.500 C 116.550 261.840, 117 261.615, 117 261 C 117 260.385, 117.450 260.160, 118 260.500 C 118.550 260.840, 119 260.566, 119 259.892 C 119 259.218, 119.280 258.946, 119.622 259.288 C 120.339 260.006, 129.677 255.466, 131.750 253.392 C 133.079 252.064, 134.525 251.594, 136.324 251.906 C 136.778 251.985, 136.914 251.670, 136.628 251.207 C 135.915 250.053, 146.856 244.793, 148.218 245.634 C 148.921 246.069, 149.018 245.839, 148.490 244.985 C 147.891 244.015, 148.132 243.836, 149.388 244.319 C 150.544 244.762, 150.870 244.599, 150.388 243.819 C 149.905 243.038, 150.231 242.875, 151.388 243.319 C 152.544 243.762, 152.870 243.599, 152.388 242.819 C 151.910 242.045, 152.225 241.872, 153.336 242.299 C 154.251 242.650, 155 242.475, 155 241.910 C 155 241.344, 155.450 241.160, 156 241.500 C 156.550 241.840, 157 241.615, 157 241 C 157 240.385, 157.450 240.160, 158 240.500 C 158.550 240.840, 159 240.714, 159 240.220 C 159 239.035, 163.905 236.823, 165.013 237.508 C 165.488 237.802, 166.299 237.288, 166.815 236.367 C 167.397 235.327, 168.388 234.935, 169.428 235.334 C 170.550 235.764, 170.867 235.594, 170.388 234.819 C 169.905 234.038, 170.231 233.875, 171.388 234.319 C 172.332 234.681, 172.868 234.595, 172.579 234.128 C 171.794 232.857, 179.591 229.633, 181.163 230.579 C 182.273 231.247, 182.276 231.107, 181.183 229.759 C 179.604 227.810, 181.253 226.571, 190.238 222.953 C 193.393 221.682, 195.804 220.470, 195.593 220.260 C 195.193 219.859, 168.385 231.083, 151.797 238.597 C 146.460 241.014, 139.883 243.864, 137.181 244.929 C 128.296 248.431, 71.820 276.654, 56 285.498 C 47.475 290.263, 38.250 295.852, 35.500 297.918 C 32.750 299.983, 29.498 302.207, 28.273 302.860 C 25.932 304.106, 23.464 307.798, 24.367 308.701 C 24.659 308.992, 27.283 308.006, 30.198 306.510 C 33.182 304.980, 34.324 304.057, 32.811 304.399 C 31.332 304.734, 29.867 304.594, 29.555 304.089 C 28.707 302.717, 31.180 302.169, 33.815 303.144 C 35.240 303.671, 36.908 303.584, 38.151 302.919 C 41.802 300.965, 41.210 302.737, 37.111 306.031 C 34.900 307.808, 31.884 311.003, 30.409 313.131 C 28.935 315.259, 26.937 317, 25.971 317 C 25.005 317, 23.931 317.739, 23.584 318.641 C 23.054 320.024, 23.198 320.080, 24.501 318.999 C 25.352 318.293, 26.325 317.992, 26.664 318.330 C 27.581 319.248, 9.162 336.800, 4.250 339.690 L 0 342.190 0 375.095 C 0 405.740, 0.120 408.005, 1.750 408.070 C 3.246 408.130, 3.210 408.265, 1.500 409 L -0.500 409.859 1.500 409.962 C 3.409 410.059, 3.418 410.126, 1.690 411.436 C -0.442 413.052, 0.436 413.789, 4.250 413.583 C 7.451 413.410, 7.566 413.748, 5.370 416.882 C 3.822 419.092, 3.834 419.162, 5.620 418.255 C 6.654 417.730, 10.537 417.364, 14.250 417.442 C 18.347 417.528, 21.006 417.174, 21.015 416.542 C 21.024 415.961, 21.372 416.037, 21.801 416.712 C 22.233 417.392, 23.539 417.672, 24.775 417.349 C 25.986 417.032, 26.757 416.416, 26.487 415.980 C 26.218 415.543, 26.906 415.424, 28.016 415.715 C 29.994 416.232, 29.984 416.334, 27.518 420.747 C 24.738 425.721, 24.187 427.606, 26.463 424.356 C 27.821 422.417, 32.169 421.836, 33.720 423.386 C 34.018 423.685, 35.204 423.270, 36.354 422.465 C 39.261 420.429, 40.955 420.686, 38.448 422.783 C 37.319 423.727, 36.419 424.802, 36.448 425.171 C 36.477 425.539, 33.013 428.118, 28.750 430.900 C 24.487 433.683, 21 436.210, 21 436.517 C 21 436.824, 23.587 435.333, 26.750 433.204 C 37.201 426.168, 60.053 414, 62.815 414 C 63.172 414, 61.750 415.165, 59.654 416.589 C 57.559 418.013, 56.094 419.427, 56.398 419.731 C 56.703 420.036, 57.711 419.658, 58.640 418.893 C 60.174 417.626, 60.221 417.699, 59.158 419.694 C 58.515 420.901, 57.534 422.170, 56.978 422.513 C 56.422 422.857, 56.269 423.627, 56.638 424.224 C 57.007 424.821, 56.902 425.062, 56.405 424.759 C 55.907 424.457, 54.920 424.838, 54.211 425.605 C 53.501 426.372, 53.314 427, 53.794 427 C 54.274 427, 54.667 427.655, 54.667 428.456 C 54.667 429.257, 54.352 429.717, 53.967 429.480 C 53.582 429.242, 52.420 430.041, 51.384 431.256 C 49.764 433.156, 49.748 433.273, 51.274 432.090 C 52.250 431.334, 53.286 430.953, 53.577 431.243 C 53.868 431.534, 52.844 432.779, 51.303 434.010 C 48.672 436.111, 48.646 436.203, 50.875 435.517 C 52.505 435.015, 53.036 435.133, 52.566 435.893 C 52.190 436.502, 51.207 437, 50.382 437 C 49.557 437, 49.144 437.423, 49.463 437.941 C 49.797 438.480, 51.299 438.161, 52.988 437.192 C 55.456 435.776, 55.655 435.398, 54.216 434.859 C 52.633 434.265, 52.644 434.156, 54.351 433.462 C 55.536 432.979, 56.520 433.211, 57.086 434.104 C 57.606 434.926, 57.976 435.030, 57.985 434.357 C 57.993 433.728, 58.698 432.946, 59.552 432.618 C 60.442 432.277, 60.843 432.445, 60.493 433.011 C 60.157 433.555, 60.385 434, 61 434 C 61.615 434, 61.840 434.450, 61.500 435 C 61.160 435.550, 61.639 436, 62.563 436 C 63.926 436, 64.015 436.277, 63.030 437.464 C 62 438.705, 62.281 438.869, 64.879 438.541 C 66.565 438.327, 68.401 437.870, 68.960 437.524 C 69.569 437.148, 69.726 437.550, 69.353 438.523 C 68.893 439.722, 69.225 440.065, 70.614 439.825 C 71.945 439.596, 72.414 440.015, 72.206 441.250 C 72.005 442.450, 72.566 443, 73.991 443 C 75.734 443, 75.904 443.311, 75.039 444.927 C 74.064 446.750, 74.308 446.824, 79.527 446.285 C 84.429 445.779, 84.974 445.905, 84.397 447.408 C 83.847 448.842, 84.188 448.995, 86.624 448.409 C 90.690 447.430, 110.978 439.836, 120.617 435.685 C 132.562 430.541, 151.161 423.827, 151.772 424.438 C 152.063 424.730, 152.797 424.329, 153.401 423.548 C 154.006 422.766, 159.675 420.358, 166 418.196 C 172.325 416.035, 178.400 413.945, 179.500 413.552 L 181.500 412.837 179.500 414.533 C 177.253 416.439, 177.638 416.335, 184 413.323 C 186.475 412.151, 189.625 410.711, 191 410.122 C 193.382 409.104, 193.358 409.082, 190.500 409.667 C 188.850 410.004, 186.221 410.926, 184.657 411.714 C 183.093 412.502, 181.562 412.895, 181.254 412.587 C 180.275 411.609, 188.348 408.668, 192.247 408.582 C 194.308 408.537, 195.995 408.163, 195.997 407.750 C 195.999 407.337, 196.712 407, 197.582 407 C 198.452 407, 202.615 405.807, 206.832 404.350 C 211.049 402.892, 221.250 399.970, 229.500 397.856 C 237.750 395.742, 242.925 394.250, 241 394.541 C 230.042 396.193, 219.120 398.215, 216.500 399.078 C 213.506 400.063, 213.504 400.061, 215.500 398.087 C 216.719 396.882, 220.430 395.540, 225 394.650 C 229.125 393.848, 231.179 393.148, 229.564 393.095 C 225.271 392.956, 214.248 395.921, 210.216 398.300 C 208.296 399.433, 205.570 400.483, 204.159 400.633 L 201.593 400.907 204.547 398.960 C 206.171 397.889, 208.175 397.003, 209 396.991 C 210.333 396.972, 210.333 396.849, 209 395.890 C 207.721 394.971, 207.751 394.892, 209.199 395.355 C 210.133 395.653, 212.158 395.288, 213.699 394.543 C 215.239 393.798, 221.198 392.461, 226.940 391.571 C 238.414 389.792, 241.998 388.357, 232.500 389.344 C 225.542 390.067, 223.856 390.374, 214.792 392.570 C 211.103 393.464, 207.503 393.961, 206.792 393.676 C 206.048 393.378, 206.348 393.114, 207.500 393.054 C 208.600 392.997, 212.157 392.062, 215.405 390.975 C 218.653 389.889, 222.605 389, 224.187 389 C 225.821 389, 227.311 388.352, 227.638 387.500 C 227.955 386.675, 228.642 386, 229.166 386 C 229.690 386, 229.797 386.520, 229.404 387.156 C 228.899 387.973, 229.542 388.144, 231.595 387.739 C 233.193 387.423, 238.100 386.668, 242.500 386.060 C 282.746 380.501, 284.975 380.239, 298.480 379.488 C 303.418 379.214, 308.278 378.729, 309.278 378.412 C 310.278 378.094, 311.743 378.372, 312.534 379.028 C 313.419 379.762, 315.422 379.987, 317.736 379.612 C 323.076 378.747, 332.582 378.624, 333.843 379.403 C 334.429 379.765, 337.728 379.410, 341.175 378.614 C 345.698 377.569, 347.986 377.457, 349.399 378.214 C 350.553 378.831, 354.365 379.034, 358.679 378.708 C 362.885 378.390, 366 378.547, 366 379.077 C 366 379.585, 362.288 380.034, 357.750 380.077 C 353.212 380.119, 348.600 380.337, 347.500 380.563 C 346.400 380.788, 341.450 381.193, 336.500 381.463 C 315.195 382.624, 292.272 386.718, 279 391.734 C 278.175 392.045, 276.825 392.443, 276 392.618 C 268.154 394.277, 262.289 395.871, 265.500 395.472 C 321.976 388.450, 341.147 386.870, 359.500 387.725 C 365 387.981, 369.617 388.302, 369.759 388.438 C 369.902 388.574, 361.802 388.998, 351.759 389.380 C 341.717 389.763, 331.925 390.463, 330 390.936 L 326.500 391.795 329.500 391.997 C 332.466 392.197, 332.472 392.208, 330 393 C 328.487 393.485, 333.390 393.840, 342.417 393.900 C 350.621 393.955, 357.146 394.175, 356.917 394.390 C 356.358 394.913, 349.693 395.930, 337 397.431 C 323.197 399.062, 327.311 400.474, 343.855 399.783 C 356.014 399.276, 355.301 400.444, 342.718 401.645 C 335.262 402.357, 333.512 403.470, 337.440 405.002 C 338.848 405.551, 341.238 406.484, 342.750 407.075 L 345.500 408.151 343 409.540 C 341.022 410.639, 340.878 410.937, 342.309 410.965 C 343.304 410.984, 343.857 411.422, 343.538 411.938 C 343.219 412.454, 344.655 413.054, 346.729 413.270 C 348.803 413.487, 346.836 413.739, 342.357 413.832 C 336.492 413.953, 334.066 414.385, 333.686 415.375 C 333.116 416.861, 327 418.190, 327 416.827 C 327 416.372, 325.538 416.067, 323.750 416.150 L 320.500 416.300 323.500 416.774 L 326.500 417.248 322.500 418.519 L 318.500 419.790 324.500 419.909 C 327.800 419.974, 331.625 420.352, 333 420.749 C 335.266 421.403, 335.126 421.528, 331.500 422.093 C 329.181 422.454, 333.004 422.776, 340.601 422.858 C 347.806 422.936, 355.006 422.568, 356.601 422.039 C 358.195 421.511, 364.450 420.860, 370.500 420.594 C 376.550 420.327, 388.137 419.790, 396.250 419.399 C 406.522 418.904, 411 419.014, 411 419.761 C 411 420.351, 410.438 421.099, 409.750 421.423 C 408.144 422.180, 425.231 421.105, 430.500 420.117 C 433.577 419.541, 432.444 419.367, 425.591 419.365 C 419.941 419.363, 417.380 419.669, 418.591 420.202 C 420.097 420.864, 419.972 420.934, 418 420.534 C 416.625 420.255, 414.862 420.021, 414.083 420.014 C 412.047 419.994, 413.313 419.022, 416.115 418.454 C 428.239 415.995, 456.692 415.071, 455.390 417.179 C 455.098 417.651, 459.503 417.816, 465.180 417.546 C 470.856 417.276, 474.979 417.380, 474.342 417.777 C 473.706 418.175, 477.531 418.341, 482.842 418.147 C 488.154 417.953, 492.725 417.444, 493 417.016 C 493.275 416.589, 507.225 415.953, 524 415.603 C 546.583 415.133, 591.079 413.535, 595.750 413.027 C 595.888 413.012, 595.998 412.663, 595.995 412.250 C 595.992 411.837, 594.192 411.398, 591.995 411.273 C 589.798 411.148, 588 411.486, 588 412.023 C 588 413.300, 584.298 413.291, 583.507 412.011 C 583.144 411.424, 583.593 411.290, 584.612 411.681 C 585.820 412.145, 586.101 411.973, 585.563 411.101 C 585.106 410.362, 582.923 409.926, 580.148 410.020 C 573.796 410.235, 572.978 409.987, 576.500 408.913 C 579.591 407.970, 588.026 408.315, 608 410.202 C 614.325 410.799, 620.400 411.261, 621.500 411.227 C 622.600 411.193, 627.291 411.049, 631.923 410.906 C 636.729 410.759, 639.521 410.340, 638.423 409.931 C 633.844 408.225, 640.426 408, 657.054 409.295 C 666.649 410.043, 677.507 410.549, 681.183 410.420 C 687.041 410.216, 687.789 410.391, 687.246 411.843 C 686.719 413.251, 686.866 413.305, 688.224 412.201 C 689.184 411.421, 690.059 411.286, 690.415 411.862 C 690.741 412.390, 691.794 412.671, 692.754 412.487 C 693.714 412.304, 695.850 412.055, 697.500 411.935 C 700.220 411.737, 700.126 411.649, 696.500 411 L 692.500 410.284 696 410.063 C 697.925 409.941, 698.935 409.614, 698.244 409.336 C 695.632 408.283, 698.309 407, 703.118 407 C 706.867 407, 707.923 406.687, 707.338 405.750 C 706.108 403.780, 705.914 401, 707.006 401 C 707.553 401, 708.953 400.047, 710.118 398.882 C 712.246 396.754, 712.013 396.139, 708.500 394.592 C 707.942 394.347, 708.163 393.684, 709 393.091 C 710.102 392.312, 710.153 392.027, 709.191 392.015 C 708.471 392.007, 708.136 391.588, 708.447 391.085 C 708.758 390.582, 708.447 389.943, 707.756 389.664 C 707.065 389.386, 708.525 389.115, 711 389.064 C 714.188 388.997, 715.071 388.698, 714.029 388.039 C 713.220 387.527, 712.872 386.795, 713.255 386.412 C 713.638 386.029, 714.566 386.225, 715.318 386.849 C 716.069 387.472, 716.930 387.737, 717.231 387.436 C 717.531 387.135, 721.315 388.219, 725.639 389.844 C 729.962 391.468, 735.620 393.573, 738.212 394.520 C 740.803 395.467, 744.639 397.711, 746.736 399.506 C 748.833 401.301, 754.476 405.089, 759.275 407.924 C 764.074 410.758, 768 413.271, 768 413.507 C 768 413.743, 766.763 414.607, 765.250 415.428 C 762.658 416.834, 762.629 416.922, 764.750 416.960 C 765.987 416.982, 767 417.436, 767 417.969 C 767 418.501, 766.212 418.692, 765.250 418.393 C 763.595 417.879, 763.596 417.910, 765.258 418.979 C 766.225 419.600, 767.462 419.832, 768.008 419.495 C 768.554 419.158, 769 419.263, 769 419.728 C 769 420.194, 769.980 420.648, 771.178 420.738 C 772.376 420.829, 774.514 422.220, 775.928 423.829 C 779.154 427.501, 785.275 430.872, 783.500 428 C 783.160 427.450, 783.584 427, 784.441 427 C 785.298 427, 786 426.498, 786 425.883 C 786 425.259, 786.882 424.997, 788 425.290 C 789.423 425.662, 790 425.320, 790 424.106 C 790 422.082, 791.876 420, 793.700 420 C 794.415 420, 795 420.900, 795 422 C 795 423.100, 795.666 424, 796.481 424 C 798.133 424, 799.414 420.064, 799.247 415.500 C 799.187 413.850, 799.128 409.744, 799.116 406.375 C 799.101 401.783, 798.709 400.102, 797.548 399.657 C 795.353 398.815, 795.626 397, 797.948 397 C 799.584 397, 799.954 397.839, 800.263 402.250 C 800.465 405.137, 800.713 392.523, 800.815 374.219 C 800.976 345.197, 800.805 340.862, 799.474 340.352 C 798.354 339.922, 798.233 339.424, 799.019 338.477 C 800.533 336.653, 800.185 311.005, 798.646 310.985 C 797.917 310.975, 797.863 310.702, 798.500 310.235 C 799.902 309.205, 799.716 304.500, 798.274 304.500 C 797.621 304.500, 796.358 303.600, 795.469 302.500 C 794.579 301.400, 794.170 301.175, 794.558 302 C 795.263 303.495, 792.487 300.466, 787.407 294.195 C 785.934 292.377, 784.171 291.104, 783.489 291.366 C 782.807 291.628, 781.736 290.640, 781.108 289.171 C 780.176 286.987, 780.199 286.774, 781.237 288 C 781.936 288.825, 783.143 289.638, 783.920 289.806 C 785.842 290.221, 792.759 294.463, 796.865 297.745 C 799.866 300.143, 800.189 300.221, 799.851 298.467 C 799.643 297.385, 798.954 296.500, 798.320 296.500 C 797.686 296.500, 796.792 296.090, 796.333 295.590 C 795.841 295.052, 796.065 295.007, 796.880 295.479 C 799.311 296.888, 797.678 294.389, 792.716 289.106 C 787.620 283.681, 777.814 276, 775.984 276 C 775.378 276, 775.160 275.550, 775.500 275 C 775.840 274.450, 775.657 274, 775.093 274 C 773.791 274, 757.785 260.533, 752.500 254.991 C 748.683 250.988, 748.935 251.095, 758 257.318 C 763.225 260.905, 768.175 264.494, 769 265.293 C 769.825 266.092, 771.519 267.061, 772.765 267.445 C 774.010 267.830, 774.831 268.464, 774.590 268.854 C 774.349 269.245, 775.804 270.675, 777.825 272.032 C 779.846 273.389, 782.048 275.174, 782.718 276 C 783.388 276.825, 783.951 277.076, 783.968 276.559 C 783.986 276.041, 784.661 276.491, 785.468 277.559 C 786.276 278.626, 786.951 279.162, 786.968 278.750 C 786.986 278.337, 788.013 279.012, 789.250 280.250 C 790.487 281.488, 791.387 282.837, 791.250 283.250 C 791.112 283.663, 791.702 284, 792.559 284 C 793.416 284, 793.840 284.450, 793.500 285 C 793.160 285.550, 793.391 286, 794.012 286 C 795.439 286, 797.348 287.911, 798.507 290.500 C 799.280 292.228, 799.453 292.037, 799.776 289.097 C 800.057 286.540, 799.572 285.124, 797.825 283.397 C 792.142 277.779, 766.252 257.952, 758.757 253.477 C 754.216 250.766, 741.790 242.800, 731.144 235.774 C 720.499 228.748, 711.309 223, 710.723 223 C 710.137 223, 708.757 222.213, 707.657 221.250 C 706.556 220.287, 705.999 220.085, 706.418 220.799 C 706.836 221.514, 713.549 226.352, 721.334 231.549 C 729.120 236.747, 734.742 241, 733.828 241 C 732.914 241, 732.017 240.662, 731.833 240.250 C 731.650 239.838, 725.087 235.273, 717.250 230.107 C 709.413 224.941, 703 220.130, 703 219.416 C 703 218.702, 702.474 217.793, 701.830 217.395 C 701.025 216.897, 700.876 217.235, 701.353 218.477 C 701.937 219.998, 701.808 220.085, 700.534 219.028 C 699.702 218.338, 699.328 217.262, 699.703 216.637 C 700.077 216.012, 699.538 216.175, 698.505 217 C 696.812 218.351, 696.687 218.336, 697.244 216.848 C 698.060 214.667, 697.026 213.734, 695.342 215.131 C 694.080 216.178, 693.531 215.350, 693.842 212.868 C 693.886 212.520, 693.152 212.295, 692.211 212.368 C 691.215 212.445, 690.628 211.907, 690.806 211.081 C 691.060 209.907, 690.843 209.885, 689.556 210.953 C 688.040 212.212, 687.468 211.478, 687.870 208.786 C 687.928 208.393, 687.233 208.357, 686.324 208.706 C 685.263 209.113, 684.915 208.946, 685.352 208.239 C 685.726 207.634, 685.506 206.813, 684.862 206.415 C 684.131 205.963, 683.959 206.124, 684.405 206.845 C 684.835 207.542, 684.457 208, 683.452 208 C 682.318 208, 681.987 207.476, 682.416 206.359 C 682.943 204.986, 682.796 204.924, 681.523 205.981 C 680.685 206.676, 680 207.571, 680 207.969 C 680 208.368, 684.725 211.939, 690.500 215.906 C 696.275 219.873, 701 223.542, 701 224.059 C 701 225.240, 698.303 225.300, 697.584 224.135 C 697.290 223.660, 691.751 220.045, 685.275 216.102 C 652.699 196.267, 635.065 186.213, 617 177.172 C 610.125 173.731, 603.825 170.539, 603 170.079 C 602.175 169.619, 599.789 168.509, 597.697 167.612 C 595.605 166.715, 594.169 165.536, 594.506 164.991 C 594.854 164.427, 593.907 163.994, 592.309 163.986 C 590.764 163.979, 588.600 163.782, 587.500 163.550 C 586.400 163.317, 584.243 163.514, 582.707 163.988 M 529.821 172.828 C 522.762 175.350, 522.785 176.279, 529.847 173.894 C 533.231 172.751, 536 171.633, 536 171.408 C 536 170.767, 534.842 171.033, 529.821 172.828 M 633.148 177.887 C 632.086 178.560, 632.282 179.084, 634.061 180.330 C 635.307 181.203, 636.703 181.684, 637.163 181.399 C 637.623 181.115, 638 181.359, 638 181.941 C 638 182.523, 638.337 182.947, 638.750 182.882 C 640.847 182.551, 642.042 183.124, 641.405 184.155 C 640.962 184.870, 641.130 185.038, 641.845 184.595 C 642.480 184.203, 643 184.434, 643 185.108 C 643 185.782, 643.263 186.071, 643.583 185.750 C 643.904 185.429, 645.046 186.046, 646.120 187.120 C 647.194 188.194, 648.468 188.829, 648.951 188.530 C 649.434 188.232, 649.980 188.407, 650.165 188.919 C 650.349 189.431, 651.157 189.996, 651.961 190.175 C 652.764 190.354, 654.295 191.272, 655.362 192.215 C 656.430 193.159, 657.685 193.695, 658.151 193.406 C 658.618 193.118, 659 193.312, 659 193.837 C 659 194.953, 669.101 201.619, 670.233 201.250 C 670.655 201.112, 671 201.390, 671 201.867 C 671 202.668, 678.841 208.357, 679.128 207.764 C 679.749 206.478, 679.532 203.171, 678.853 203.591 C 677.378 204.503, 674 202.951, 674 201.361 C 674 199.738, 671.675 197, 670.297 197 C 669.831 197, 666.087 195.021, 661.975 192.603 C 656.430 189.341, 654.164 188.480, 653.199 189.268 C 652.219 190.067, 651.760 189.798, 651.336 188.176 C 651.026 186.991, 650.421 186.240, 649.991 186.506 C 649.561 186.771, 648.954 186.324, 648.643 185.511 C 648.292 184.597, 647.426 184.283, 646.374 184.687 C 645.130 185.164, 644.892 184.983, 645.490 184.015 C 646.006 183.181, 645.920 182.931, 645.259 183.340 C 644.682 183.697, 643.954 183.324, 643.643 182.511 C 643.292 181.597, 642.426 181.283, 641.374 181.687 C 640.222 182.129, 639.906 181.962, 640.395 181.170 C 641.147 179.953, 640.106 179.649, 636.254 179.960 C 634.588 180.095, 634.164 179.737, 634.611 178.571 C 635.296 176.786, 635.060 176.676, 633.148 177.887 M 276.079 191.719 C 276.033 192.433, 275.275 192.687, 274.250 192.334 C 272.832 191.845, 272.878 192.024, 274.489 193.277 C 275.583 194.127, 276.933 194.536, 277.489 194.186 C 278.045 193.836, 279.288 193.679, 280.250 193.838 C 281.212 193.996, 282 193.599, 282 192.956 C 282 192.312, 281.325 192.045, 280.500 192.362 C 279.675 192.678, 278.993 192.389, 278.985 191.719 C 278.974 190.868, 278.708 190.912, 278.106 191.863 C 277.377 193.014, 277.158 193.014, 276.700 191.863 C 276.337 190.951, 276.132 190.903, 276.079 191.719 M 455.200 194.723 C 450.765 197.599, 450.034 198.667, 452.500 198.667 C 453.325 198.667, 453.783 198.450, 453.518 198.185 C 452.884 197.551, 457.074 193.930, 457.879 194.416 C 458.221 194.622, 459.080 194.162, 459.789 193.395 C 461.849 191.166, 459.748 191.775, 455.200 194.723 M 290.750 198.307 C 287.587 198.866, 285 199.727, 285 200.221 C 285 200.714, 285.419 200.859, 285.931 200.543 C 286.443 200.226, 287.163 200.454, 287.530 201.049 C 287.975 201.769, 288.833 201.556, 290.099 200.410 C 291.210 199.405, 292 199.170, 292 199.845 C 292 200.480, 292.477 201, 293.059 201 C 293.641 201, 293.793 200.474, 293.395 199.830 C 292.909 199.043, 293.217 198.869, 294.336 199.299 C 295.251 199.650, 296 199.534, 296 199.042 C 296 198.550, 296.788 197.941, 297.750 197.689 C 300.836 196.883, 296.781 197.241, 290.750 198.307 M 241.658 205.551 C 242.196 206.954, 241.152 207.395, 238 207.094 C 236.941 206.992, 237.048 207.285, 238.361 208.087 C 239.862 209.004, 240.602 208.842, 242.194 207.251 C 243.881 205.564, 243.944 205.193, 242.634 204.690 C 241.582 204.286, 241.276 204.556, 241.658 205.551 M 228.053 208.968 C 227.157 209.521, 227.110 209.950, 227.893 210.434 C 228.502 210.810, 229 211.793, 229 212.618 C 229 213.443, 228.597 213.869, 228.105 213.565 C 227.612 213.260, 226.951 213.686, 226.634 214.511 C 226.176 215.706, 226.841 215.612, 229.906 214.048 C 232.021 212.969, 234.033 212.366, 234.376 212.710 C 234.719 213.053, 235 212.808, 235 212.167 C 235 210.685, 232.341 210.640, 231.434 212.107 C 230.957 212.878, 230.496 212.802, 229.912 211.857 C 229.358 210.961, 229.631 210.305, 230.714 209.925 C 232.135 209.427, 232.151 209.272, 230.836 208.767 C 230.002 208.447, 228.749 208.537, 228.053 208.968 M 420.250 210.220 C 417.982 211.314, 417.207 214.392, 418.931 215.457 C 419.443 215.774, 420.198 215.489, 420.608 214.825 C 421.029 214.145, 420.775 213.425, 420.028 213.176 C 419.106 212.869, 419.434 212.171, 421.101 210.889 C 423.798 208.816, 423.556 208.626, 420.250 210.220 M 416 213.059 C 416 213.641, 415.574 213.854, 415.052 213.532 C 414.531 213.210, 414.279 213.851, 414.492 214.957 C 414.715 216.119, 414.169 217.366, 413.198 217.909 C 412.273 218.427, 411.811 219.145, 412.172 219.505 C 412.532 219.865, 413.991 219.397, 415.413 218.465 C 418.013 216.762, 418.835 215, 417.031 215 C 416.499 215, 416.322 214.325, 416.638 213.500 C 416.955 212.675, 416.941 212, 416.607 212 C 416.273 212, 416 212.477, 416 213.059 M 261 247.204 C 259.625 247.791, 257.150 248.851, 255.500 249.560 C 253.850 250.268, 246.617 252.860, 239.426 255.321 C 219.014 262.306, 206.181 269.589, 224.408 263.844 C 232.266 261.368, 232.772 262.246, 225.099 265.044 C 217.858 267.684, 214.684 270.400, 220.707 268.803 C 222.793 268.249, 225.510 267.794, 226.743 267.792 C 227.977 267.790, 228.738 267.385, 228.434 266.894 C 228.131 266.402, 228.471 265.985, 229.191 265.967 C 230.926 265.924, 251.862 256.026, 250.250 256.011 C 249.563 256.005, 249 255.273, 249 254.383 C 249 253.192, 249.667 252.894, 251.536 253.252 C 253.347 253.598, 254.495 253.132, 255.555 251.618 C 256.371 250.453, 257.247 249.594, 257.501 249.709 C 257.755 249.824, 259.884 249.047, 262.232 247.981 C 266.614 245.992, 265.493 245.284, 261 247.204 M 238.500 249.519 C 235.200 250.827, 233.230 251.920, 234.122 251.948 C 235.014 251.977, 238.164 250.901, 241.122 249.558 C 247.991 246.438, 246.335 246.414, 238.500 249.519 M 244.500 256.147 C 242.050 257.652, 241.867 257.988, 243.500 257.979 C 246.033 257.967, 248.357 256.525, 247.872 255.268 C 247.667 254.738, 246.150 255.133, 244.500 256.147 M 230.667 270.076 C 229.230 271.755, 228.608 271.919, 227.422 270.935 C 226.216 269.934, 226.067 270.012, 226.588 271.370 C 227.060 272.598, 226.808 272.864, 225.611 272.404 C 224.725 272.064, 224 271.384, 224 270.893 C 224 270.402, 223.495 270, 222.878 270 C 222.071 270, 222.084 270.397, 222.926 271.411 C 223.727 272.376, 223.765 273.027, 223.049 273.470 C 222.472 273.826, 222 273.855, 222 273.533 C 222 272.730, 216.269 275.755, 215.532 276.948 C 214.769 278.182, 223.782 275.514, 230.680 272.463 C 236.151 270.043, 237.655 268.755, 233.844 269.751 C 232.366 270.138, 231.912 269.951, 232.403 269.158 C 233.540 267.318, 232.605 267.812, 230.667 270.076 M 250.524 271.652 C 248.337 272.422, 246.087 273.545, 245.524 274.148 C 244.961 274.751, 245.625 274.664, 247 273.953 C 248.375 273.243, 249.613 272.738, 249.750 272.831 C 249.887 272.924, 250.113 272.966, 250.250 272.923 C 250.387 272.881, 251.329 272.690, 252.342 272.499 C 254.343 272.120, 255.579 271.221, 254.917 270.626 C 254.688 270.420, 252.711 270.881, 250.524 271.652 M 255.777 274.556 C 255.471 274.863, 254.158 275.253, 252.860 275.424 C 251.562 275.595, 249.825 276.005, 249 276.333 C 248.175 276.662, 244.912 277.879, 241.750 279.037 C 238.588 280.196, 236 281.577, 236 282.107 C 236 282.676, 236.855 282.613, 238.088 281.953 C 239.236 281.339, 241.148 280.637, 242.338 280.395 C 247.742 279.293, 261.285 274.121, 258.917 274.063 C 257.496 274.028, 256.083 274.250, 255.777 274.556 M 259.500 278.311 C 256.200 279.423, 254.078 280.526, 254.784 280.761 C 255.491 280.997, 257.883 280.464, 260.100 279.577 C 262.318 278.689, 264.445 278.157, 264.828 278.394 C 265.212 278.631, 266.607 278.245, 267.930 277.537 L 270.336 276.250 267.918 276.270 C 266.588 276.281, 262.800 277.199, 259.500 278.311 M 760.322 278.676 C 761.325 279.854, 763.462 281.363, 765.072 282.030 C 766.683 282.697, 768 283.638, 768 284.121 C 768 284.605, 768.450 285, 769 285 C 769.550 285, 770 284.250, 770 283.333 C 770 282.417, 769.703 281.964, 769.340 282.327 C 768.977 282.690, 768.064 282.109, 767.312 281.036 C 766.546 279.941, 765.298 279.332, 764.473 279.649 C 763.651 279.964, 763 279.651, 763 278.940 C 763 278.240, 762.704 277.963, 762.342 278.325 C 761.980 278.687, 760.968 278.432, 760.092 277.759 C 759.003 276.921, 759.076 277.211, 760.322 278.676 M 248 282.177 C 246.625 282.755, 245.987 283.414, 246.583 283.642 C 247.178 283.869, 248.978 283.370, 250.583 282.534 C 253.856 280.826, 251.867 280.552, 248 282.177 M 227.500 284.019 C 226.400 284.506, 223.250 285.574, 220.500 286.393 C 216.889 287.469, 216.472 287.744, 219 287.383 C 220.925 287.109, 223.227 286.780, 224.116 286.653 C 225.005 286.526, 226.805 285.676, 228.116 284.764 C 230.753 282.929, 230.542 282.675, 227.500 284.019 M 770.667 284.667 C 769.484 285.849, 769.953 286.850, 771.992 287.497 C 773.087 287.845, 777.100 290.990, 780.910 294.486 C 787.288 300.339, 792 303.778, 792 302.581 C 792 301.730, 787.141 297.192, 786.701 297.632 C 786.470 297.864, 784.679 296.280, 782.721 294.113 C 780.763 291.945, 778.882 290.451, 778.541 290.793 C 778.200 291.134, 777.669 290.451, 777.362 289.276 C 777.017 287.956, 776.263 287.346, 775.390 287.681 C 774.408 288.058, 774.167 287.728, 774.600 286.600 C 775.076 285.359, 774.806 285.137, 773.447 285.659 C 772.231 286.125, 771.900 285.971, 772.395 285.170 C 773.160 283.932, 771.798 283.535, 770.667 284.667 M 14.219 312.375 C 4.073 320.160, 4.110 320.123, 6.839 319.707 C 8.058 319.521, 11.181 317.768, 13.778 315.811 C 16.375 313.854, 19.518 311.634, 20.762 310.879 C 22.006 310.123, 22.819 308.970, 22.568 308.317 C 22.317 307.664, 22.650 306.911, 23.306 306.644 C 23.963 306.376, 24.050 306.127, 23.500 306.089 C 22.950 306.052, 18.774 308.880, 14.219 312.375 M 14.649 313.034 C 10.992 315.802, 8 318.332, 8 318.656 C 8 319.292, 8.061 319.250, 15.500 313.479 C 21.998 308.438, 22.506 308, 21.849 308 C 21.546 308, 18.306 310.265, 14.649 313.034 M 0.448 375 C 0.448 393.425, 0.583 400.962, 0.748 391.750 C 0.913 382.538, 0.913 367.462, 0.748 358.250 C 0.583 349.038, 0.448 356.575, 0.448 375 M 293 382.034 C 291.386 382.572, 292.449 382.666, 296 382.298 C 299.025 381.985, 301.688 381.565, 301.917 381.365 C 302.718 380.664, 295.478 381.207, 293 382.034 M 322.500 384 C 320.682 384.781, 320.727 384.857, 323 384.830 C 324.375 384.814, 326.625 384.440, 328 384 C 330.438 383.219, 330.425 383.199, 327.500 383.170 C 325.850 383.154, 323.600 383.527, 322.500 384 M 315.887 392.446 C 315.641 392.692, 313.568 393.003, 311.280 393.138 C 308.992 393.274, 307.303 393.682, 307.528 394.046 C 307.753 394.409, 310.314 394.347, 313.219 393.907 C 316.123 393.468, 320.075 392.931, 322 392.714 C 325.052 392.371, 324.913 392.300, 320.917 392.160 C 318.396 392.072, 316.132 392.201, 315.887 392.446 M 293.306 395.271 C 289.413 395.895, 286.898 396.824, 286.534 397.773 C 286.107 398.884, 286.290 399.019, 287.227 398.282 C 287.927 397.732, 290.056 397.415, 291.959 397.579 C 294.385 397.787, 294.982 397.599, 293.959 396.948 C 292.836 396.233, 293.075 396.011, 295 395.983 C 300.701 395.898, 304.941 395.393, 305.615 394.718 C 306.553 393.780, 301.074 394.026, 293.306 395.271 M 255.500 401.051 C 254.154 401.664, 255.134 401.762, 258.500 401.352 C 261.250 401.018, 263.688 400.576, 263.917 400.372 C 264.794 399.589, 257.401 400.185, 255.500 401.051 M 304 402.068 C 302.152 402.710, 302.772 402.824, 306.379 402.506 C 309.063 402.269, 311.500 401.833, 311.796 401.538 C 312.633 400.701, 306.791 401.098, 304 402.068 M 755.550 401.907 C 756.938 403.233, 767 409.027, 767 408.501 C 767 407.796, 756.637 401, 755.563 401 C 754.955 401, 754.950 401.335, 755.550 401.907 M 199.500 403.529 C 194.693 405.261, 194.723 405.257, 195.505 403.992 C 195.861 403.416, 195.018 403.490, 193.535 404.166 C 191.687 405.008, 191.308 405.572, 192.213 406.132 C 193.584 406.979, 197.821 406.255, 199.592 404.871 C 200.193 404.401, 200.946 404.280, 201.267 404.600 C 202.094 405.428, 206 404.052, 206 402.933 C 206 401.661, 204.235 401.823, 199.500 403.529 M 240 403.054 C 237.636 403.589, 238.764 403.690, 243.475 403.365 C 247.311 403.100, 250.649 402.685, 250.892 402.442 C 251.588 401.746, 243.869 402.180, 240 403.054 M 289.500 403.597 L 283.500 404.845 289.500 404.298 C 292.800 403.996, 295.688 403.581, 295.917 403.375 C 297.016 402.386, 294.980 402.457, 289.500 403.597 M 178.257 409.797 C 174.823 411.200, 172.162 412.495, 172.343 412.676 C 172.762 413.095, 183.383 409.458, 185.731 408.091 C 189.045 406.161, 184.773 407.137, 178.257 409.797 M 560.750 408.736 C 555.434 409.503, 558.084 410.500, 565.435 410.500 C 569.635 410.500, 572.246 410.155, 571.442 409.705 C 569.643 408.701, 564.333 408.220, 560.750 408.736 M 194.500 413.675 C 187.066 415.797, 181.263 416.915, 179.250 416.613 C 177.463 416.345, 176 416.449, 176 416.845 C 176 417.240, 174.949 417.651, 173.665 417.757 C 172.380 417.863, 169.421 418.805, 167.088 419.849 L 162.846 421.749 166.525 422.439 C 168.549 422.818, 170.458 422.875, 170.769 422.564 C 171.079 422.254, 170.246 421.964, 168.917 421.921 C 167.587 421.878, 167.107 421.600, 167.849 421.305 C 168.590 421.009, 170.189 421.298, 171.401 421.947 C 173.160 422.888, 174.502 422.795, 178.052 421.486 C 180.499 420.584, 183.850 419.477, 185.500 419.025 C 188.331 418.251, 188.359 418.196, 186 418.044 C 184.625 417.956, 189.097 416.325, 195.938 414.421 C 207.504 411.201, 211.343 409.824, 207.917 410.124 C 207.137 410.193, 201.100 411.790, 194.500 413.675 M 654.015 410.691 C 653.992 412.512, 655.633 413.130, 658.549 412.398 C 660.431 411.926, 660.813 411.502, 659.879 410.925 C 659.142 410.470, 657.971 410.609, 657.207 411.243 C 656.178 412.097, 655.627 412.022, 654.939 410.936 C 654.369 410.035, 654.025 409.943, 654.015 410.691 M 607 412.811 C 607 413.392, 605.904 413.669, 604.564 413.426 C 603.224 413.183, 601.848 413.438, 601.505 413.992 C 601.117 414.620, 602.851 415, 606.108 415 C 608.982 415, 611.146 414.873, 610.917 414.717 C 610.688 414.561, 609.712 413.831, 608.750 413.095 C 607.700 412.291, 607 412.178, 607 412.811 M 674.094 413.387 C 673.156 414.517, 673.585 414.849, 676.401 415.178 C 678.303 415.400, 679.640 415.226, 679.371 414.791 C 679.102 414.356, 677.982 414, 676.882 414 C 675.782 414, 675.160 413.550, 675.500 413 C 676.418 411.515, 675.420 411.790, 674.094 413.387 M 464.478 414.036 C 464.045 414.737, 466.050 414.854, 470.669 414.399 C 479.569 413.523, 479.963 413, 471.726 413 C 468.091 413, 464.830 413.466, 464.478 414.036 M 618.500 414 C 617.158 414.577, 618.967 414.845, 624 414.815 C 630.576 414.776, 631.007 414.668, 627.500 413.943 C 622.505 412.909, 621.016 412.919, 618.500 414 M 572.500 416.980 C 568.467 417.722, 568.504 417.741, 575.500 418.461 C 576.600 418.575, 581.100 418.360, 585.500 417.985 L 593.500 417.302 587 417.137 C 583.425 417.047, 579.600 416.809, 578.500 416.608 C 577.400 416.407, 574.700 416.575, 572.500 416.980 M 507.728 417.722 C 509.503 417.943, 512.653 417.946, 514.728 417.730 C 516.802 417.513, 515.350 417.333, 511.500 417.328 C 507.650 417.324, 505.952 417.501, 507.728 417.722 M 605.292 418.742 C 609.027 418.935, 614.877 418.934, 618.292 418.739 C 621.706 418.545, 618.650 418.387, 611.500 418.389 C 604.350 418.390, 601.556 418.550, 605.292 418.742 M 475 421.457 C 463.725 422.168, 450.672 422.553, 445.993 422.314 C 441.314 422.074, 434.564 422.357, 430.993 422.943 C 427.422 423.529, 408.975 424.459, 390 425.010 C 354.182 426.050, 342.023 426.644, 341.279 427.388 C 341.038 427.629, 343.464 428.370, 346.670 429.035 C 356.261 431.026, 387.724 430.508, 441.602 427.471 C 476.125 425.525, 486.121 425.522, 485.378 427.456 C 484.987 428.477, 482.825 429.017, 478.160 429.261 C 474.497 429.452, 486.125 429.640, 504 429.679 C 523.117 429.721, 534.647 429.420, 532 428.949 C 529.525 428.509, 520.188 428.115, 511.250 428.074 C 498.347 428.015, 495 427.723, 495 426.656 C 495 424.710, 536.398 423.782, 587 424.593 C 609.275 424.950, 627.275 425.007, 627 424.719 C 626.557 424.256, 599.878 422.645, 574.500 421.549 C 546.212 420.327, 493.683 420.279, 475 421.457 M 541.728 422.722 C 543.503 422.943, 546.653 422.946, 548.728 422.730 C 550.802 422.513, 549.350 422.333, 545.500 422.328 C 541.650 422.324, 539.952 422.501, 541.728 422.722 M 692.750 427.080 C 690.820 428.204, 690.395 430, 692.059 430 C 692.641 430, 692.840 429.550, 692.500 429 C 691.862 427.967, 693.037 427.653, 696.500 427.930 C 698.163 428.063, 698.247 427.916, 697 427.060 C 695.166 425.801, 694.944 425.802, 692.750 427.080 M 666 428.689 C 666 429.135, 667.013 429.560, 668.250 429.634 C 669.487 429.708, 672.300 430.075, 674.500 430.450 C 677.150 430.901, 677.994 430.813, 677 430.190 C 674.950 428.904, 666 427.682, 666 428.689 M 537.142 429.475 C 538.234 430.568, 544.867 431.024, 545.471 430.048 C 545.887 429.374, 544.431 429, 541.392 429 C 538.793 429, 536.880 429.214, 537.142 429.475 M 553.500 430 C 552 430.645, 552.702 430.877, 556.309 430.930 C 559.276 430.973, 560.881 430.617, 560.500 430 C 559.762 428.806, 556.279 428.806, 553.500 430 M 409.672 431.537 C 393.400 433.905, 398.996 434.685, 422.371 433.307 C 432.177 432.729, 432.216 432.716, 428.371 431.378 C 423.829 429.797, 421.499 429.816, 409.672 431.537 M 446.750 430.723 C 448.538 430.945, 451.462 430.945, 453.250 430.723 C 455.038 430.502, 453.575 430.320, 450 430.320 C 446.425 430.320, 444.962 430.502, 446.750 430.723 M 567.264 430.718 C 568.784 430.947, 571.034 430.941, 572.264 430.704 C 573.494 430.467, 572.250 430.279, 569.500 430.286 C 566.750 430.294, 565.744 430.488, 567.264 430.718 M 43 439.059 C 43 439.641, 43.450 439.840, 44 439.500 C 44.550 439.160, 45 439.321, 45 439.858 C 45 440.394, 44.438 441.034, 43.750 441.280 C 43.063 441.525, 42.726 441.976, 43.002 442.281 C 43.277 442.587, 44.400 442.181, 45.497 441.379 C 47.206 440.129, 47.277 439.786, 45.995 438.976 C 44.024 437.730, 43 437.758, 43 439.059"
        stroke="none" fill="#d6b067" fill-rule="evenodd" />
    <path
        d="M 568.500 153.613 C 566.300 154.423, 563.600 154.864, 562.500 154.593 C 560.589 154.121, 560.582 154.161, 562.337 155.474 C 563.989 156.709, 563.788 156.817, 560.342 156.544 C 558.235 156.377, 553.862 157.086, 550.625 158.120 C 547.388 159.154, 543.988 160, 543.070 160 C 542.151 160, 540.794 160.563, 540.053 161.250 C 538.976 162.250, 538.848 162.250, 539.412 161.250 C 540.274 159.723, 539.904 159.703, 536.315 161.081 C 531.268 163.020, 519 166.797, 519 166.413 C 519 166.207, 521.138 164.926, 523.750 163.566 C 530.340 160.135, 528.425 160.397, 519.759 164.111 C 515.766 165.822, 509.800 168.346, 506.500 169.720 C 503.200 171.094, 497.672 173.745, 494.216 175.609 C 490.759 177.474, 487.148 179, 486.190 179 C 483.993 179, 465.149 188.517, 462.827 190.798 C 460.228 193.353, 458.102 195.045, 457.520 195.021 C 455.564 194.942, 455.177 195.215, 454.710 197 C 454.260 198.723, 453.018 199.270, 450.362 198.915 C 450.011 198.868, 449.403 199.348, 449.012 199.981 C 448.620 200.615, 447.670 201.252, 446.900 201.398 C 446.130 201.544, 442.800 202.935, 439.500 204.488 C 436.200 206.042, 433.163 207.242, 432.750 207.156 C 432.337 207.070, 432 207.382, 432 207.848 C 432 208.315, 430.200 209.508, 428 210.500 C 425.800 211.492, 424 212.685, 424 213.152 C 424 213.618, 423.519 214, 422.930 214 C 422.342 214, 419.898 215.350, 417.500 217 C 412.661 220.329, 409.062 221.101, 413 217.965 C 415.060 216.324, 415.148 216.080, 413.500 216.580 C 411.813 217.091, 411.891 216.851, 414 215.039 C 416.295 213.067, 416.083 213.095, 411.412 215.380 C 408.614 216.749, 404.321 219.399, 401.872 221.268 C 396.964 225.014, 395.966 224.946, 389 220.381 C 385.299 217.955, 370.223 212.092, 366 211.435 C 354.186 209.598, 350.304 208.916, 349.079 208.460 C 346.402 207.464, 331.914 206.794, 328.206 207.494 C 324.654 208.165, 324.876 208.289, 333.553 210.487 C 338.532 211.748, 346.996 214.186, 352.363 215.905 C 357.730 217.624, 362.881 219.150, 363.810 219.296 C 364.740 219.442, 368.090 220.968, 371.255 222.687 C 374.419 224.406, 379.462 226.829, 382.461 228.072 C 385.460 229.315, 387.707 230.665, 387.455 231.073 C 387.203 231.480, 387.968 231.560, 389.155 231.249 C 390.762 230.829, 391.106 231.020, 390.502 231.997 C 389.954 232.883, 390.080 233.069, 390.889 232.568 C 391.549 232.161, 393.087 232.482, 394.308 233.282 C 395.529 234.082, 399.671 235.882, 403.514 237.283 C 407.356 238.684, 413.875 241.366, 418 243.244 C 431.149 249.231, 444.912 254.163, 446.799 253.564 C 447.805 253.245, 450.849 253.657, 453.564 254.481 C 456.279 255.305, 459.480 255.983, 460.677 255.989 C 461.903 255.995, 463.053 256.764, 463.311 257.750 C 463.746 259.417, 463.774 259.417, 463.884 257.750 C 463.957 256.644, 464.827 255.992, 466.250 255.978 C 467.936 255.962, 467.466 255.486, 464.373 254.082 C 462.104 253.052, 459.940 251.711, 459.564 251.104 C 459.189 250.497, 458.046 250, 457.024 250 C 456.003 250, 455.017 249.636, 454.833 249.190 C 454.410 248.163, 444.020 243, 442.375 243 C 441.697 243, 440.548 242.426, 439.821 241.724 C 439.095 241.022, 436.700 239.701, 434.500 238.788 C 432.300 237.875, 425.633 235.121, 419.684 232.666 L 408.868 228.204 415.184 224.746 C 429.814 216.737, 433 214.802, 433 213.925 C 433 213.416, 433.914 213, 435.031 213 C 436.149 213, 437.321 212.328, 437.636 211.506 C 437.952 210.684, 438.582 210.242, 439.038 210.523 C 439.821 211.008, 448.412 206.757, 450.450 204.876 C 450.973 204.394, 452.210 204, 453.200 204 C 454.190 204, 455 203.550, 455 203 C 455 202.450, 455.337 202.080, 455.750 202.177 C 456.163 202.275, 461.450 200, 467.500 197.121 C 477.423 192.400, 493.133 186.193, 497 185.465 C 500.369 184.831, 502.953 183.733, 502.562 183.101 C 502.334 182.731, 502.901 182.362, 503.823 182.281 C 506.105 182.081, 520.089 178.373, 527.788 175.927 C 531.247 174.828, 534.579 174.240, 535.193 174.619 C 535.871 175.038, 536.029 174.856, 535.595 174.155 C 535.203 173.520, 535.310 173, 535.834 173 C 536.358 173, 537.083 173.775, 537.447 174.722 C 537.824 175.704, 538.407 176.026, 538.804 175.472 C 539.478 174.531, 540.872 174.012, 544 173.537 C 548.009 172.928, 552.097 171.651, 552.590 170.855 C 552.891 170.367, 553.535 170.212, 554.019 170.512 C 554.504 170.811, 557.577 169.969, 560.848 168.640 C 564.118 167.311, 569.991 165.903, 573.897 165.510 C 577.804 165.118, 581 164.457, 581 164.042 C 581 163.627, 582.688 163.385, 584.750 163.504 C 586.813 163.623, 589.989 163.783, 591.809 163.860 C 593.632 163.937, 594.852 164.430, 594.526 164.957 C 593.884 165.996, 598.976 169, 601.379 169 C 602.192 169, 603.452 169.585, 604.179 170.300 C 604.905 171.015, 610.450 174.015, 616.500 176.967 C 629.820 183.464, 648.714 194.040, 672 208.031 C 676.701 210.856, 696.766 223.290, 698.202 224.269 C 699.984 225.484, 701.605 224.788, 700.639 223.225 C 699.604 221.551, 653.626 191.322, 643 185.330 C 633.382 179.907, 614.310 170.342, 604.500 166.023 C 596.318 162.420, 584.875 159.875, 580.653 160.719 C 578.676 161.115, 577.909 160.956, 578.351 160.242 C 578.715 159.653, 578.447 158.943, 577.756 158.664 C 577.065 158.386, 578.975 158.091, 582 158.009 C 586.044 157.899, 586.970 157.632, 585.500 157 C 584.400 156.527, 581.925 156.056, 580 155.952 L 576.500 155.763 579.500 155 L 582.500 154.237 579.750 153.993 C 575.503 153.618, 575.218 153.551, 574.417 152.750 C 573.476 151.810, 573.350 151.828, 568.500 153.613 M 609.324 162.859 C 610.327 163.255, 611.227 164.011, 611.324 164.539 C 611.421 165.068, 612.031 165.506, 612.679 165.513 C 613.328 165.520, 614.191 165.857, 614.596 166.263 C 615.002 166.668, 616.271 166.980, 617.417 166.955 C 618.899 166.923, 618.202 166.215, 615 164.500 C 612.525 163.175, 609.825 162.102, 609 162.115 C 607.950 162.133, 608.047 162.356, 609.324 162.859 M 529.821 172.828 C 522.762 175.350, 522.785 176.279, 529.847 173.894 C 533.231 172.751, 536 171.633, 536 171.408 C 536 170.767, 534.842 171.033, 529.821 172.828 M 322.438 193.581 C 324.043 195.186, 323.634 197.510, 321.931 196.457 C 321.419 196.141, 321 196.359, 321 196.941 C 321 198.241, 321.222 198.246, 324.435 197.025 C 325.846 196.488, 326.993 195.476, 326.985 194.775 C 326.974 193.892, 326.671 193.961, 326 195 C 325.159 196.302, 325.029 196.283, 325.015 194.857 C 325.007 193.953, 324.288 192.941, 323.418 192.607 C 320.948 191.659, 320.732 191.874, 322.438 193.581 M 304.500 196.415 C 300.100 197.477, 296.222 198.760, 295.883 199.267 C 295.134 200.385, 281.927 203.260, 281.143 202.477 C 280.837 202.171, 281.580 201.661, 282.794 201.344 C 284.007 201.026, 285 200.411, 285 199.977 C 285 199.543, 283.425 199.671, 281.500 200.261 C 279.575 200.852, 278 201.635, 278 202.001 C 278 202.367, 277.438 202.708, 276.750 202.759 C 276.063 202.810, 274.332 203.106, 272.905 203.417 C 271.478 203.728, 269.003 204.153, 267.405 204.360 C 265.807 204.567, 263.825 204.987, 263 205.293 C 258.897 206.812, 253.424 208.390, 252.818 208.228 C 252.443 208.127, 250.545 208.710, 248.600 209.523 C 244.165 211.376, 243 211.381, 243 209.547 C 243 208.731, 246.182 206.557, 250.250 204.593 C 257.651 201.019, 259.045 199.830, 252.749 202.460 C 250.827 203.264, 248.972 203.639, 248.627 203.294 C 248.282 202.949, 248 203.244, 248 203.950 C 248 204.727, 247.236 205.033, 246.065 204.727 C 244.982 204.444, 243.907 204.799, 243.626 205.533 C 243.331 206.301, 242.268 206.621, 241.061 206.306 C 239.915 206.006, 239 206.248, 239 206.852 C 239 207.453, 239.742 207.653, 240.664 207.299 C 241.833 206.850, 242.098 207.033, 241.555 207.911 C 241.130 208.599, 239.818 208.928, 238.641 208.642 C 237.463 208.355, 235.375 208.800, 234 209.630 C 231.709 211.012, 232.741 210.914, 236.500 209.393 C 237.325 209.059, 238 209.294, 238 209.914 C 238 210.535, 236.762 211.531, 235.250 212.127 C 233.738 212.723, 231.058 213.822, 229.296 214.567 C 226.525 215.741, 226.167 215.727, 226.651 214.468 C 226.958 213.667, 227.612 213.260, 228.105 213.565 C 228.597 213.869, 229 213.641, 229 213.059 C 229 212.477, 228.761 212, 228.469 212 C 227.591 212, 201.921 221.865, 196 224.477 C 192.975 225.811, 184.650 229.429, 177.500 232.516 C 151.455 243.760, 120.472 259.032, 104.500 268.499 C 87.907 278.334, 61.707 292.809, 53.731 296.548 C 47.223 299.599, 45.802 300.995, 49.191 301.011 C 51.183 301.021, 50.744 301.711, 46 306.034 C 39.754 311.726, 39.607 311.747, 55.662 304.622 C 64.805 300.565, 65.138 300.477, 64.438 302.302 C 64.163 303.018, 61.365 304.930, 58.219 306.552 C 55.074 308.173, 52.350 309.837, 52.167 310.250 C 51.983 310.662, 51.196 311, 50.417 311 C 49.637 311, 49 311.439, 49 311.975 C 49 313.114, 50.100 312.728, 62.500 307.233 C 74.756 301.801, 135.483 272.941, 146 267.550 C 168.412 256.062, 212.985 238.466, 251.500 225.904 C 263.600 221.958, 273.903 218.364, 274.396 217.918 C 274.889 217.473, 273.298 217.708, 270.860 218.442 C 267.120 219.567, 265.966 219.557, 263.464 218.373 C 261.834 217.601, 261.258 217.176, 262.185 217.429 C 263.112 217.681, 264.016 217.453, 264.193 216.922 C 264.370 216.390, 265.812 215.720, 267.397 215.433 C 268.982 215.145, 271.791 214.278, 273.639 213.506 C 275.488 212.734, 277 212.280, 277 212.497 C 277 212.714, 279.137 212.273, 281.750 211.516 C 284.363 210.758, 288.240 209.877, 290.367 209.556 C 292.493 209.236, 294.546 208.781, 294.928 208.545 C 295.310 208.309, 300.770 207.221, 307.061 206.127 C 313.352 205.033, 320.300 203.464, 322.500 202.639 L 326.500 201.141 322.250 201.070 C 317.943 200.999, 316.790 199.610, 319.113 197.287 C 320.893 195.507, 319.121 193.925, 315.675 194.216 C 313.929 194.363, 308.900 195.353, 304.500 196.415 M 265.689 197.114 C 264.693 197.693, 263.306 197.948, 262.606 197.679 C 261.906 197.410, 261.333 197.823, 261.333 198.595 C 261.333 199.368, 261.506 200, 261.716 200 C 262.521 200, 268 196.926, 268 196.474 C 268 195.834, 267.789 195.892, 265.689 197.114 M 677 203.193 C 678.486 204.713, 700.995 218.822, 700.971 218.217 C 700.937 217.404, 680.893 204.256, 678.232 203.303 C 677.280 202.961, 676.725 202.911, 677 203.193 M 703 219.756 C 703 220.797, 733.060 241, 734.608 241 C 735.093 241, 729.013 236.613, 721.098 231.250 C 713.182 225.887, 705.872 220.883, 704.853 220.128 C 703.834 219.373, 703 219.206, 703 219.756 M 261 247.204 C 259.625 247.791, 257.150 248.851, 255.500 249.560 C 253.850 250.268, 246.617 252.860, 239.426 255.321 C 219.014 262.306, 206.181 269.589, 224.408 263.844 C 232.266 261.368, 232.772 262.246, 225.099 265.044 C 217.858 267.684, 214.684 270.400, 220.707 268.803 C 222.793 268.249, 225.510 267.794, 226.743 267.792 C 227.977 267.790, 228.738 267.385, 228.434 266.894 C 228.131 266.402, 228.471 265.985, 229.191 265.967 C 230.926 265.924, 251.862 256.026, 250.250 256.011 C 249.563 256.005, 249 255.273, 249 254.383 C 249 253.192, 249.667 252.894, 251.536 253.252 C 253.347 253.598, 254.495 253.132, 255.555 251.618 C 256.371 250.453, 257.247 249.594, 257.501 249.709 C 257.755 249.824, 259.884 249.047, 262.232 247.981 C 266.614 245.992, 265.493 245.284, 261 247.204 M 238.500 249.519 C 235.200 250.827, 233.230 251.920, 234.122 251.948 C 235.014 251.977, 238.164 250.901, 241.122 249.558 C 247.991 246.438, 246.335 246.414, 238.500 249.519 M 752.500 254.987 C 754.700 257.296, 760.550 262.534, 765.500 266.627 C 775.628 275, 774.546 274.147, 782.216 279.800 C 789.907 285.468, 802.097 298.502, 796.880 295.479 C 796.121 295.039, 795.851 295.065, 796.279 295.535 C 797.981 297.406, 800 296.799, 800 294.417 C 800 292.909, 798.321 290.309, 795.500 287.447 C 793.025 284.936, 791 282.507, 791 282.048 C 791 281.589, 790.416 280.990, 789.702 280.716 C 788.056 280.084, 774.715 269.956, 773.862 268.690 C 773.511 268.170, 772.611 268.099, 771.862 268.532 C 771.113 268.966, 770.813 268.973, 771.195 268.549 C 772.061 267.586, 768.959 264.977, 757.500 257.030 C 748.795 250.992, 748.631 250.925, 752.500 254.987 M 244.500 256.147 C 242.050 257.652, 241.867 257.988, 243.500 257.979 C 246.033 257.967, 248.357 256.525, 247.872 255.268 C 247.667 254.738, 246.150 255.133, 244.500 256.147 M 230.667 270.076 C 229.230 271.755, 228.608 271.919, 227.422 270.935 C 226.216 269.934, 226.067 270.012, 226.588 271.370 C 227.060 272.598, 226.808 272.864, 225.611 272.404 C 224.725 272.064, 224 271.384, 224 270.893 C 224 270.402, 223.495 270, 222.878 270 C 222.071 270, 222.084 270.397, 222.926 271.411 C 223.727 272.376, 223.765 273.027, 223.049 273.470 C 222.472 273.826, 222 273.855, 222 273.533 C 222 272.730, 216.269 275.755, 215.532 276.948 C 214.769 278.182, 223.782 275.514, 230.680 272.463 C 236.151 270.043, 237.655 268.755, 233.844 269.751 C 232.366 270.138, 231.912 269.951, 232.403 269.158 C 233.540 267.318, 232.605 267.812, 230.667 270.076 M 250.524 271.652 C 248.337 272.422, 246.087 273.545, 245.524 274.148 C 244.961 274.751, 245.625 274.664, 247 273.953 C 248.375 273.243, 249.613 272.738, 249.750 272.831 C 249.887 272.924, 250.113 272.966, 250.250 272.923 C 250.387 272.881, 251.329 272.690, 252.342 272.499 C 254.343 272.120, 255.579 271.221, 254.917 270.626 C 254.688 270.420, 252.711 270.881, 250.524 271.652 M 255.777 274.556 C 255.471 274.863, 254.158 275.253, 252.860 275.424 C 251.562 275.595, 249.825 276.005, 249 276.333 C 248.175 276.662, 244.912 277.879, 241.750 279.037 C 238.588 280.196, 236 281.577, 236 282.107 C 236 282.676, 236.855 282.613, 238.088 281.953 C 239.236 281.339, 241.148 280.637, 242.338 280.395 C 247.742 279.293, 261.285 274.121, 258.917 274.063 C 257.496 274.028, 256.083 274.250, 255.777 274.556 M 259.500 278.311 C 256.200 279.423, 254.078 280.526, 254.784 280.761 C 255.491 280.997, 257.883 280.464, 260.100 279.577 C 262.318 278.689, 264.445 278.157, 264.828 278.394 C 265.212 278.631, 266.607 278.245, 267.930 277.537 L 270.336 276.250 267.918 276.270 C 266.588 276.281, 262.800 277.199, 259.500 278.311 M 760.322 278.676 C 761.325 279.854, 763.462 281.363, 765.072 282.030 C 766.683 282.697, 768 283.638, 768 284.121 C 768 284.605, 768.450 285, 769 285 C 769.550 285, 770 284.250, 770 283.333 C 770 282.417, 769.703 281.964, 769.340 282.327 C 768.977 282.690, 768.064 282.109, 767.312 281.036 C 766.546 279.941, 765.298 279.332, 764.473 279.649 C 763.651 279.964, 763 279.651, 763 278.940 C 763 278.240, 762.704 277.963, 762.342 278.325 C 761.980 278.687, 760.968 278.432, 760.092 277.759 C 759.003 276.921, 759.076 277.211, 760.322 278.676 M 248 282.177 C 246.625 282.755, 245.987 283.414, 246.583 283.642 C 247.178 283.869, 248.978 283.370, 250.583 282.534 C 253.856 280.826, 251.867 280.552, 248 282.177 M 227.500 284.019 C 226.400 284.506, 223.250 285.574, 220.500 286.393 C 216.889 287.469, 216.472 287.744, 219 287.383 C 220.925 287.109, 223.227 286.780, 224.116 286.653 C 225.005 286.526, 226.805 285.676, 228.116 284.764 C 230.753 282.929, 230.542 282.675, 227.500 284.019 M 770.667 284.667 C 769.484 285.849, 769.953 286.850, 771.992 287.497 C 773.087 287.845, 777.100 290.990, 780.910 294.486 C 787.819 300.826, 792.006 303.773, 791.993 302.285 C 791.989 301.853, 790.404 300.422, 788.469 299.105 C 786.535 297.787, 783.655 295.232, 782.070 293.427 C 780.485 291.622, 778.903 290.430, 778.555 290.779 C 778.206 291.127, 777.669 290.451, 777.362 289.276 C 777.017 287.956, 776.263 287.346, 775.390 287.681 C 774.377 288.069, 774.149 287.697, 774.583 286.361 C 775.084 284.821, 775.002 284.759, 774.110 286 C 773.140 287.347, 772.564 286.761, 772.882 284.750 C 773.028 283.820, 771.568 283.766, 770.667 284.667 M 781.196 289.363 C 781.872 290.938, 782.606 291.681, 782.828 291.015 C 783.052 290.345, 785.980 292.685, 789.366 296.237 C 792.740 299.776, 796.513 303.212, 797.750 303.871 C 799.787 304.957, 800 304.847, 800 302.703 C 800 301.165, 798.684 299.284, 796.250 297.340 C 791.456 293.512, 783 288.570, 783 289.596 C 783 290.028, 782.318 289.509, 781.484 288.441 C 780.087 286.653, 780.064 286.726, 781.196 289.363 M 637.531 408.949 C 636.830 410.084, 643.340 411.467, 645.492 410.641 C 646.322 410.323, 647 410.407, 647 410.827 C 647 411.247, 648.575 411.697, 650.500 411.827 C 652.425 411.957, 654 411.599, 654 411.031 C 654 410.464, 654.477 410, 655.059 410 C 655.641 410, 655.840 410.450, 655.500 411 C 655.160 411.550, 655.332 412, 655.882 412 C 656.432 412, 657.148 411.570, 657.473 411.044 C 657.798 410.518, 658.804 410.371, 659.709 410.719 C 661.155 411.273, 661.121 411.434, 659.427 412.047 C 658.220 412.484, 660.364 413.020, 665.168 413.482 C 669.385 413.888, 673.435 413.833, 674.168 413.360 C 674.901 412.887, 676.850 412.430, 678.500 412.344 C 686.632 411.922, 684.902 411.625, 664.500 409.944 C 637.913 407.754, 638.262 407.767, 637.531 408.949 M 637.500 420.913 L 634.500 421.589 638.500 422.300 C 651.118 424.545, 671.898 427.067, 676.343 426.893 C 679.179 426.782, 682.424 426.988, 683.552 427.350 C 684.715 427.724, 686.407 427.423, 687.455 426.657 C 689.595 425.092, 690.021 425.185, 666.115 421.948 C 651.603 419.983, 643.007 419.672, 637.500 420.913 M 643.550 427.028 C 646.962 428.289, 660.601 429.302, 659.500 428.213 C 658.950 427.669, 654.697 427.018, 650.050 426.766 C 645.402 426.514, 642.477 426.632, 643.550 427.028 M 661.500 429 C 661.840 429.550, 662.991 430, 664.059 430 C 665.127 430, 666 429.550, 666 429 C 666 428.450, 664.848 428, 663.441 428 C 661.990 428, 661.149 428.433, 661.500 429"
        stroke="none" fill="#110f0c" fill-rule="evenodd" />
</svg>