<svg id="svg" version="1.1" xmlns="http://www.w3.org/2000/svg" xmlns:xlink="http://www.w3.org/1999/xlink" width="400"
    height="245.49999999999997" viewBox="0, 0, 400,245.49999999999997">
    <g id="svgg">
        <path id="path0"
            d="M285.942 75.875 C 285.859 76.010,285.548 76.124,285.253 76.128 C 284.957 76.132,284.500 76.298,284.238 76.496 C 283.976 76.695,283.528 76.857,283.243 76.857 C 282.959 76.857,282.600 76.982,282.447 77.136 C 282.239 77.343,281.913 77.312,281.165 77.013 C 279.688 76.422,279.141 76.508,278.200 77.478 C 277.522 78.178,277.234 78.317,276.702 78.200 C 276.339 78.121,275.971 78.174,275.881 78.320 C 275.412 79.079,272.856 79.619,272.222 79.092 C 271.907 78.831,271.748 78.824,271.463 79.060 C 271.265 79.224,270.961 79.306,270.788 79.242 C 270.382 79.092,271.661 78.576,272.439 78.576 C 273.486 78.576,273.318 78.144,272.206 77.977 C 270.787 77.764,269.122 78.636,269.122 79.591 C 269.122 79.882,268.885 80.090,268.447 80.184 C 268.076 80.263,267.274 80.527,266.667 80.771 C 265.463 81.255,263.906 81.768,263.641 81.768 C 263.127 81.768,263.610 81.276,264.457 80.937 C 265.403 80.558,265.668 80.220,265.230 79.949 C 264.972 79.790,262.491 80.680,259.522 81.998 C 258.285 82.547,257.149 82.996,256.997 82.996 C 256.478 82.996,247.909 86.926,246.273 87.915 C 245.173 88.579,244.129 88.989,243.070 89.171 C 242.205 89.320,241.387 89.525,241.252 89.626 C 241.117 89.728,240.178 90.247,239.165 90.781 C 238.152 91.315,237.103 91.868,236.832 92.011 C 236.562 92.154,235.734 92.528,234.991 92.842 C 233.419 93.507,231.553 94.701,231.553 95.041 C 231.553 95.171,230.627 95.730,229.496 96.283 C 227.857 97.084,227.340 97.471,226.954 98.184 C 226.688 98.676,226.332 99.048,226.162 99.009 C 225.992 98.971,225.714 99.055,225.542 99.198 C 225.371 99.340,225.051 99.387,224.832 99.303 C 224.612 99.218,224.432 99.268,224.432 99.413 C 224.432 99.709,223.663 100.171,222.938 100.311 C 222.674 100.362,222.156 100.612,221.787 100.867 C 221.023 101.396,219.192 102.149,218.669 102.149 C 218.477 102.149,218.021 102.425,217.656 102.762 C 217.292 103.100,216.803 103.376,216.569 103.376 C 216.335 103.376,216.006 103.542,215.838 103.745 C 215.670 103.947,215.425 104.113,215.294 104.113 C 215.163 104.113,214.775 104.334,214.432 104.604 C 214.088 104.874,213.623 105.095,213.397 105.095 C 213.172 105.095,212.613 105.482,212.155 105.955 C 211.697 106.427,211.081 106.814,210.786 106.814 C 210.491 106.814,210.123 106.968,209.967 107.156 C 209.593 107.606,208.854 107.787,208.439 107.531 C 208.181 107.371,208.173 107.260,208.402 107.031 C 208.631 106.802,208.780 106.806,209.072 107.048 C 209.476 107.384,209.581 107.251,209.749 106.200 C 209.794 105.916,210.051 105.677,210.359 105.633 C 210.917 105.553,211.583 104.933,211.356 104.705 C 210.985 104.334,203.106 108.632,200.443 110.658 C 198.896 111.835,198.611 111.967,198.152 111.722 C 197.864 111.568,197.079 111.278,196.407 111.079 C 195.735 110.879,194.942 110.432,194.646 110.085 C 194.094 109.439,191.743 108.222,190.424 107.901 C 190.018 107.802,189.302 107.517,188.831 107.267 C 188.360 107.018,187.681 106.814,187.321 106.814 C 186.962 106.814,186.021 106.474,185.232 106.059 C 184.207 105.520,183.596 105.343,183.099 105.443 C 182.716 105.519,182.163 105.447,181.871 105.281 C 181.578 105.116,180.454 104.905,179.374 104.813 C 177.236 104.631,175.336 104.302,174.915 104.042 C 173.567 103.209,164.345 103.005,162.660 103.771 C 161.556 104.273,158.794 104.400,154.082 104.165 L 151.136 104.019 152.732 103.701 C 153.610 103.526,155.174 103.227,156.209 103.035 C 157.244 102.844,158.736 102.468,159.524 102.200 C 160.313 101.932,161.483 101.576,162.124 101.408 C 164.143 100.879,163.404 100.076,160.940 100.121 C 160.255 100.134,159.538 100.047,159.346 99.929 C 158.693 99.526,159.511 99.140,161.085 99.109 C 162.995 99.071,164.682 97.551,163.352 97.065 C 163.115 96.979,162.610 96.651,162.228 96.336 C 161.377 95.635,161.240 95.631,160.362 96.281 C 159.789 96.704,159.271 96.805,157.487 96.840 C 155.742 96.874,155.097 96.995,154.235 97.449 C 153.537 97.817,152.634 98.042,151.657 98.091 C 150.830 98.133,149.988 98.222,149.785 98.288 C 148.597 98.678,147.303 98.956,146.673 98.956 C 146.275 98.956,145.738 99.112,145.479 99.301 C 145.153 99.539,144.617 99.606,143.746 99.516 C 142.575 99.395,139.665 100.085,138.858 100.675 C 138.367 101.033,134.311 101.947,133.162 101.958 C 132.513 101.964,131.855 102.069,131.698 102.193 C 131.323 102.489,127.939 103.558,126.767 103.751 C 126.259 103.834,125.623 103.997,125.353 104.112 C 122.715 105.233,121.429 105.272,122.306 104.204 C 122.733 103.684,129.094 100.675,129.766 100.675 C 129.956 100.675,130.180 100.565,130.264 100.430 C 130.347 100.295,130.605 100.184,130.836 100.184 C 131.550 100.184,133.942 98.818,134.031 98.359 C 134.122 97.890,132.818 97.999,132.177 98.515 C 132.014 98.647,131.553 98.682,131.153 98.594 C 130.522 98.456,130.414 98.511,130.344 99.002 C 130.284 99.430,130.129 99.552,129.720 99.495 C 129.421 99.454,128.849 99.662,128.449 99.958 C 127.998 100.291,127.523 100.444,127.202 100.360 C 126.853 100.269,126.586 100.379,126.388 100.695 C 126.175 101.037,125.814 101.166,125.075 101.166 C 124.359 101.166,124.009 101.286,123.902 101.566 C 123.784 101.872,123.544 101.933,122.880 101.825 C 122.287 101.729,121.974 101.785,121.890 102.004 C 121.822 102.180,121.303 102.470,120.736 102.648 C 120.169 102.827,119.540 103.093,119.337 103.241 C 119.134 103.388,118.306 103.838,117.495 104.241 C 116.685 104.643,115.985 105.055,115.940 105.157 C 115.895 105.258,115.595 105.341,115.272 105.341 C 114.950 105.341,114.324 105.539,113.881 105.782 C 113.438 106.024,112.578 106.368,111.971 106.546 C 110.670 106.927,110.456 107.006,108.042 107.990 C 104.320 109.508,101.582 110.524,100.831 110.668 C 100.408 110.749,99.067 111.312,97.851 111.918 C 96.636 112.524,94.979 113.272,94.168 113.579 C 92.776 114.107,90.125 115.227,87.661 116.327 C 84.917 117.552,83.451 118.093,83.532 117.851 C 83.580 117.707,84.608 117.142,85.817 116.596 C 88.485 115.391,91.118 113.627,90.770 113.279 C 90.676 113.185,90.469 113.239,90.309 113.399 C 90.149 113.559,89.818 113.689,89.573 113.689 C 89.328 113.689,88.936 113.798,88.701 113.932 C 88.467 114.065,86.894 114.715,85.206 115.375 C 82.014 116.624,73.234 120.467,72.805 120.803 C 72.670 120.909,72.284 121.077,71.946 121.176 C 71.608 121.275,71.001 121.498,70.595 121.672 C 70.190 121.846,68.864 122.396,67.649 122.895 C 66.433 123.395,62.455 125.276,58.809 127.076 C 55.163 128.876,49.693 131.568,46.654 133.058 C 35.413 138.570,22.523 145.651,18.171 148.703 C 15.110 150.850,14.072 151.955,14.733 152.363 C 15.198 152.651,14.976 152.855,14.132 152.915 C 13.667 152.948,13.219 152.865,13.136 152.731 C 12.907 152.359,12.523 152.439,12.523 152.858 C 12.523 153.062,12.389 153.444,12.225 153.706 C 11.750 154.468,12.164 154.554,13.558 153.984 C 15.319 153.263,16.328 152.500,15.531 152.492 C 14.083 152.477,15.145 151.566,16.636 151.543 C 16.940 151.538,17.188 151.638,17.188 151.765 C 17.188 151.891,17.023 151.995,16.820 151.995 C 16.618 151.995,16.452 152.100,16.452 152.229 C 16.452 152.360,16.964 152.307,17.618 152.109 C 19.683 151.482,19.709 151.881,17.724 153.774 C 16.939 154.523,16.092 155.452,15.843 155.837 C 15.593 156.222,14.744 157.321,13.956 158.278 C 13.168 159.235,12.523 160.131,12.523 160.269 C 12.523 161.445,1.678 170.902,0.330 170.902 C 0.057 170.902,0.000 173.757,0.000 187.477 L 0.000 204.052 0.675 204.071 L 1.351 204.090 0.675 204.337 C -0.218 204.663,-0.185 205.034,0.737 205.034 C 1.142 205.034,1.473 205.154,1.473 205.301 C 1.473 205.447,1.142 205.693,0.737 205.846 C -0.778 206.417,0.283 207.190,2.225 206.929 C 3.371 206.775,3.483 207.132,2.694 208.426 L 2.198 209.240 3.370 209.056 C 4.015 208.955,4.764 208.885,5.034 208.899 C 5.304 208.913,5.939 208.806,6.445 208.659 C 7.129 208.462,7.717 208.472,8.728 208.698 C 9.844 208.948,10.163 208.944,10.488 208.676 C 10.799 208.419,10.906 208.414,10.987 208.656 C 11.134 209.092,11.632 209.038,12.882 208.450 C 14.543 207.669,15.036 208.559,14.007 210.480 L 13.526 211.377 14.682 211.288 C 15.318 211.239,16.201 211.314,16.645 211.454 C 17.286 211.655,17.576 211.627,18.049 211.317 C 19.559 210.328,19.743 210.869,18.416 212.400 C 16.844 214.215,17.038 214.229,20.067 212.523 C 21.386 211.780,22.544 211.172,22.642 211.172 C 22.740 211.172,23.484 210.743,24.296 210.218 C 25.894 209.186,30.166 207.371,30.414 207.619 C 30.498 207.703,30.351 207.892,30.088 208.040 C 29.362 208.446,28.194 209.807,28.487 209.905 C 28.629 209.952,28.908 209.857,29.106 209.692 C 29.403 209.446,29.466 209.484,29.466 209.906 C 29.466 210.188,29.245 210.537,28.976 210.681 C 28.706 210.825,28.259 211.387,27.982 211.929 C 27.706 212.472,27.327 212.974,27.141 213.045 C 26.910 213.134,26.843 213.426,26.930 213.965 C 27.019 214.512,26.937 214.856,26.666 215.081 C 26.450 215.260,26.274 215.601,26.274 215.838 C 26.274 216.075,26.108 216.406,25.905 216.575 C 24.910 217.401,25.680 217.829,26.745 217.041 C 27.321 216.615,27.535 216.575,27.972 216.809 C 28.264 216.965,28.705 217.028,28.954 216.950 C 29.271 216.849,29.444 216.954,29.536 217.305 C 29.619 217.623,29.799 217.753,30.032 217.664 C 30.234 217.587,30.471 217.641,30.561 217.786 C 30.650 217.930,30.937 218.048,31.199 218.048 C 31.696 218.048,31.857 218.644,31.430 218.907 C 31.295 218.991,31.185 219.152,31.185 219.265 C 31.185 219.553,33.660 219.354,33.973 219.041 C 34.395 218.619,34.658 218.749,34.577 219.337 C 34.516 219.776,34.626 219.897,35.114 219.927 C 35.451 219.947,35.870 219.975,36.044 219.988 C 36.238 220.003,36.333 220.272,36.289 220.688 C 36.231 221.246,36.325 221.377,36.832 221.445 C 37.762 221.569,37.911 221.856,37.487 222.706 L 37.102 223.476 38.257 223.281 C 40.813 222.848,42.103 223.004,42.189 223.757 C 42.232 224.128,42.317 224.432,42.378 224.432 C 42.859 224.432,46.665 223.262,48.475 222.558 C 49.702 222.081,51.700 221.326,52.916 220.881 C 54.131 220.435,57.714 218.995,60.877 217.680 C 67.712 214.839,74.189 212.401,75.384 212.219 C 75.856 212.147,76.464 211.831,76.734 211.517 C 77.072 211.124,78.142 210.669,80.172 210.055 C 85.696 208.384,87.368 207.757,89.992 206.373 C 91.890 205.371,93.972 204.631,95.764 204.319 C 96.330 204.221,96.707 203.982,96.866 203.620 C 97.143 202.990,97.373 202.920,97.561 203.408 C 97.743 203.882,101.412 203.034,101.412 202.518 C 101.412 202.240,99.746 202.295,99.570 202.578 C 99.386 202.876,98.711 202.907,98.711 202.617 C 98.711 202.272,100.661 201.802,101.492 201.946 C 101.921 202.021,102.133 202.018,101.964 201.941 C 101.507 201.732,101.593 201.425,102.148 201.279 C 102.745 201.123,103.028 201.496,102.655 201.946 C 102.487 202.148,103.163 202.013,104.414 201.594 C 105.532 201.220,107.495 200.670,108.778 200.371 C 111.165 199.815,115.194 198.793,116.513 198.410 C 117.937 197.996,113.868 198.453,110.988 199.030 C 108.063 199.617,107.363 199.536,108.121 198.697 C 108.706 198.051,108.633 197.879,107.858 198.069 C 107.073 198.262,104.421 199.574,103.835 200.060 C 103.430 200.395,102.149 200.258,102.149 199.880 C 102.149 199.624,103.765 198.404,104.104 198.404 C 104.253 198.404,104.441 198.229,104.523 198.016 C 104.618 197.769,104.853 197.675,105.169 197.758 C 105.442 197.829,105.896 197.758,106.178 197.601 C 107.559 196.828,108.397 196.621,113.321 195.835 C 116.524 195.324,117.649 194.907,115.285 195.108 C 111.046 195.468,111.216 195.439,106.881 196.575 C 103.802 197.382,102.633 197.181,105.218 196.288 C 108.401 195.190,109.294 194.939,111.242 194.596 C 112.309 194.409,113.381 194.149,113.623 194.020 C 113.865 193.890,114.361 193.841,114.726 193.911 C 115.091 193.981,115.918 193.920,116.565 193.776 C 118.381 193.372,124.049 192.577,127.317 192.267 C 128.938 192.113,130.651 191.891,131.123 191.773 C 131.596 191.655,133.143 191.432,134.561 191.278 C 135.979 191.124,137.637 190.899,138.244 190.777 C 139.712 190.483,144.543 190.068,148.193 189.923 C 150.898 189.815,153.830 189.511,155.081 189.209 C 155.360 189.142,155.839 189.262,156.146 189.477 C 156.744 189.896,159.829 190.013,160.407 189.639 C 160.875 189.336,166.026 189.311,166.792 189.608 C 167.317 189.812,168.160 189.744,170.555 189.305 C 173.601 188.746,173.660 188.745,174.965 189.189 C 176.108 189.577,176.733 189.615,179.550 189.466 C 181.490 189.364,182.712 189.384,182.566 189.515 C 182.431 189.637,180.276 189.871,177.778 190.035 C 175.279 190.199,172.351 190.450,171.271 190.594 C 170.190 190.737,167.815 190.886,165.991 190.924 C 164.168 190.962,162.290 191.115,161.817 191.263 C 161.344 191.412,159.687 191.644,158.134 191.780 C 154.736 192.076,147.849 193.448,145.365 194.324 C 144.758 194.538,143.432 194.941,142.419 195.220 C 141.406 195.499,140.246 195.844,139.840 195.986 C 139.435 196.128,138.828 196.295,138.490 196.357 C 136.981 196.634,136.759 196.713,136.893 196.930 C 136.972 197.056,137.335 197.113,137.701 197.056 C 139.161 196.828,142.437 196.446,144.997 196.205 C 150.779 195.660,155.191 195.156,158.134 194.705 C 159.822 194.446,162.640 194.186,164.395 194.127 C 171.497 193.888,178.528 193.815,180.847 193.957 L 183.303 194.107 180.256 194.291 C 178.581 194.392,176.432 194.475,175.483 194.475 C 174.533 194.475,173.141 194.583,172.390 194.714 C 171.640 194.846,169.539 195.067,167.722 195.206 C 164.521 195.451,163.272 195.797,164.466 196.109 C 164.878 196.217,164.954 196.333,164.763 196.564 C 164.314 197.104,165.081 197.176,171.305 197.176 C 175.250 197.176,177.263 197.261,177.164 197.422 C 177.080 197.557,176.660 197.669,176.229 197.670 C 175.798 197.672,174.837 197.839,174.095 198.043 C 173.352 198.246,170.870 198.581,168.580 198.787 C 164.175 199.183,164.008 199.220,164.486 199.697 C 164.825 200.035,173.619 200.076,176.059 199.751 C 176.949 199.632,177.326 199.653,177.164 199.813 C 177.029 199.947,175.592 200.251,173.972 200.490 C 167.632 201.424,166.953 201.715,169.184 202.539 C 172.039 203.593,172.783 204.242,171.762 204.788 C 170.569 205.427,171.632 206.507,173.454 206.507 C 175.933 206.507,174.074 206.957,170.958 207.112 C 168.969 207.210,167.232 207.359,167.098 207.442 C 166.963 207.525,166.439 207.603,165.932 207.616 C 165.340 207.630,164.892 207.801,164.680 208.091 C 164.441 208.418,164.175 208.500,163.722 208.387 C 163.285 208.277,163.054 208.340,162.955 208.596 C 162.878 208.798,162.653 208.963,162.455 208.963 C 160.205 208.963,161.003 209.563,163.643 209.857 C 166.674 210.194,167.605 210.527,166.334 210.816 C 165.943 210.905,165.292 211.062,164.886 211.164 L 164.150 211.350 165.052 211.531 C 166.716 211.864,176.773 211.514,178.269 211.071 C 179.178 210.802,181.344 210.596,184.899 210.441 C 187.802 210.314,191.725 210.102,193.616 209.969 C 203.073 209.304,206.049 209.386,205.297 210.291 C 204.855 210.825,205.322 210.973,207.148 210.879 C 208.782 210.794,208.953 210.461,207.565 210.063 C 206.473 209.750,206.945 209.287,208.384 209.258 C 208.809 209.249,209.748 209.067,210.472 208.852 C 212.330 208.300,225.664 207.787,226.607 208.231 C 226.964 208.400,227.496 208.647,227.788 208.781 C 228.081 208.915,228.910 208.955,229.630 208.871 C 231.709 208.629,236.855 208.625,237.229 208.866 C 237.756 209.206,245.576 208.979,246.163 208.607 C 246.955 208.106,249.703 207.926,255.861 207.971 C 259.036 207.995,261.799 207.992,262.001 207.965 C 262.204 207.938,264.027 207.884,266.053 207.845 C 268.079 207.805,272.775 207.635,276.489 207.465 C 287.003 206.986,290.381 207.012,290.285 207.572 C 290.230 207.894,290.335 207.998,290.654 207.937 C 290.898 207.889,291.099 207.725,291.099 207.571 C 291.099 207.417,291.403 207.009,291.774 206.665 C 293.063 205.471,292.638 205.193,289.570 205.224 C 286.894 205.252,286.632 204.910,288.896 204.347 C 290.095 204.048,290.824 204.032,293.057 204.253 C 297.154 204.659,303.180 205.122,304.972 205.169 C 307.103 205.224,309.361 205.506,310.191 205.820 C 310.681 206.006,310.962 205.996,311.217 205.784 C 311.769 205.326,317.614 205.359,321.915 205.844 C 324.009 206.080,327.545 206.492,329.773 206.759 C 334.347 207.309,339.061 207.745,340.309 207.736 C 340.769 207.732,341.350 207.914,341.600 208.140 C 341.965 208.470,342.165 208.497,342.605 208.278 C 343.606 207.779,344.966 207.532,345.970 207.667 C 346.777 207.775,346.961 207.725,346.961 207.399 C 346.961 207.080,346.671 206.988,345.549 206.949 C 344.213 206.902,343.713 206.883,341.483 206.791 C 340.160 206.737,340.593 206.262,341.965 206.262 C 342.881 206.262,343.102 206.172,343.210 205.758 C 343.343 205.252,344.444 205.257,345.120 205.767 C 346.074 206.487,347.842 206.167,347.198 205.391 C 346.945 205.086,347.086 205.034,348.161 205.034 C 349.350 205.034,349.404 205.007,349.121 204.554 C 348.644 203.790,349.826 203.350,352.414 203.326 L 353.570 203.315 353.480 202.517 C 353.431 202.078,353.313 201.475,353.219 201.177 C 353.080 200.736,353.163 200.607,353.668 200.481 C 354.009 200.395,354.646 199.932,355.083 199.451 L 355.879 198.577 355.122 197.938 C 354.498 197.411,354.365 197.116,354.362 196.257 C 354.360 195.684,354.294 195.111,354.216 194.983 C 354.085 194.772,355.853 194.372,356.419 194.485 C 357.162 194.633,357.347 194.471,356.944 194.026 C 356.721 193.779,356.538 193.503,356.538 193.412 C 356.538 193.152,357.474 193.220,357.643 193.493 C 357.726 193.628,358.125 193.738,358.528 193.738 C 359.322 193.738,363.143 194.887,363.524 195.241 C 363.652 195.360,363.935 195.457,364.153 195.457 C 364.371 195.457,365.006 195.678,365.565 195.948 C 366.124 196.219,366.713 196.440,366.874 196.440 C 368.080 196.440,374.175 199.786,374.781 200.781 C 375.054 201.229,377.272 202.684,380.636 204.622 C 383.972 206.544,384.356 206.889,383.513 207.211 C 382.466 207.612,381.931 208.393,382.565 208.594 C 383.066 208.753,383.070 208.776,382.645 209.087 C 382.231 209.389,382.253 209.425,382.935 209.573 C 383.340 209.660,383.966 209.891,384.326 210.086 C 384.686 210.280,385.489 210.509,386.110 210.594 C 387.028 210.720,387.266 210.858,387.385 211.329 C 387.465 211.648,387.671 211.909,387.843 211.909 C 388.015 211.909,388.448 212.292,388.805 212.761 C 390.001 214.329,391.876 214.401,393.024 212.921 C 393.215 212.675,393.548 212.625,394.190 212.745 L 395.089 212.914 395.089 212.032 C 395.089 211.118,395.953 209.945,396.625 209.945 C 397.157 209.945,397.545 210.482,397.545 211.222 C 397.545 211.790,397.650 211.909,398.155 211.909 C 398.840 211.909,399.509 210.688,399.509 209.438 C 399.509 209.057,399.619 208.678,399.754 208.594 C 400.103 208.379,400.059 206.910,399.694 206.545 C 399.472 206.323,399.410 205.392,399.470 203.191 L 399.552 200.143 398.910 199.982 C 397.485 199.624,397.597 198.649,399.062 198.649 L 400.007 198.649 399.996 175.617 L 399.986 152.584 399.274 152.163 C 397.359 151.032,392.388 146.109,392.388 145.343 C 392.388 144.783,396.449 147.218,398.462 148.986 L 400.000 150.336 400.000 149.433 C 400.000 148.644,399.770 148.290,398.187 146.640 C 397.190 145.601,395.905 144.199,395.331 143.524 C 394.758 142.848,393.179 141.498,391.822 140.522 C 390.466 139.547,389.011 138.414,388.589 138.005 C 388.167 137.597,387.738 137.262,387.635 137.262 C 386.782 137.262,375.906 127.634,376.307 127.233 C 376.622 126.918,382.360 130.888,385.472 133.575 C 385.787 133.847,386.124 134.070,386.220 134.070 C 386.316 134.070,386.649 134.263,386.959 134.500 C 387.720 135.078,389.716 136.676,390.202 137.094 C 391.068 137.841,394.691 140.505,395.002 140.625 C 395.185 140.695,395.335 140.894,395.335 141.068 C 395.335 141.350,399.622 145.856,399.891 145.856 C 399.951 145.856,400.000 145.138,400.000 144.260 C 400.000 142.313,399.426 141.705,394.230 138.148 C 393.554 137.686,392.717 136.993,392.368 136.609 C 390.647 134.713,382.760 128.852,378.637 126.404 C 376.814 125.322,372.615 122.642,369.306 120.449 C 365.998 118.256,362.848 116.173,362.308 115.821 C 361.768 115.468,360.884 114.848,360.344 114.443 C 359.804 114.037,358.699 113.358,357.888 112.934 C 357.078 112.509,355.531 111.583,354.451 110.876 C 352.215 109.413,344.516 104.433,342.652 103.245 C 341.969 102.810,340.975 102.216,340.442 101.926 C 339.908 101.636,339.141 101.188,338.735 100.932 C 338.330 100.675,337.805 100.458,337.569 100.448 C 337.333 100.438,337.139 100.261,337.139 100.055 C 337.139 99.849,336.863 99.576,336.525 99.448 C 336.188 99.319,335.912 99.101,335.912 98.962 C 335.912 98.824,335.716 98.711,335.478 98.711 C 335.239 98.711,334.659 98.453,334.188 98.137 C 333.381 97.595,331.302 96.412,327.214 94.168 C 326.230 93.628,324.991 92.897,324.462 92.544 C 323.933 92.191,323.061 91.662,322.524 91.367 C 321.986 91.073,320.829 90.397,319.951 89.865 C 319.073 89.332,317.256 88.339,315.914 87.656 C 314.571 86.974,313.356 86.324,313.213 86.213 C 313.070 86.101,312.290 85.819,311.479 85.585 C 308.733 84.795,308.408 84.535,309.392 83.921 C 309.662 83.752,309.883 83.468,309.883 83.288 C 309.883 82.673,303.582 80.049,302.104 80.049 C 301.934 80.049,301.211 79.787,300.498 79.466 C 299.785 79.146,298.649 78.715,297.974 78.509 C 295.396 77.724,290.698 76.745,288.321 76.499 C 287.874 76.453,287.313 76.238,287.074 76.022 C 286.578 75.573,286.162 75.519,285.942 75.875 M287.196 76.588 C 287.533 76.853,288.001 77.000,288.278 76.927 C 288.652 76.830,288.766 76.922,288.766 77.319 C 288.766 77.786,288.905 77.839,290.129 77.839 C 291.433 77.839,292.940 78.354,292.940 78.799 C 292.940 79.153,291.767 79.259,290.777 78.995 C 289.247 78.586,288.392 78.915,288.944 79.700 C 289.347 80.274,289.495 80.313,290.895 80.215 C 291.729 80.157,292.502 80.195,292.614 80.299 C 292.814 80.486,293.825 80.666,296.248 80.945 C 296.920 81.023,297.583 81.239,297.722 81.425 C 297.861 81.612,298.527 81.835,299.202 81.921 C 299.877 82.007,300.789 82.293,301.228 82.556 C 301.667 82.820,302.026 82.975,302.026 82.900 C 302.026 82.825,303.055 83.310,304.312 83.978 C 309.136 86.540,312.565 87.869,312.253 87.055 C 312.089 86.626,312.480 86.311,312.711 86.686 C 312.800 86.829,312.747 87.097,312.594 87.281 C 312.281 87.659,313.099 88.398,313.829 88.398 C 314.048 88.398,314.427 88.619,314.672 88.889 C 314.916 89.159,315.340 89.380,315.615 89.380 C 315.889 89.380,316.341 89.587,316.620 89.839 C 317.303 90.458,324.857 94.782,325.254 94.782 C 325.428 94.782,325.639 94.894,325.723 95.031 C 325.808 95.168,326.340 95.514,326.904 95.801 C 327.960 96.336,342.393 105.910,344.680 107.592 C 345.383 108.110,346.021 108.533,346.098 108.533 C 346.332 108.533,350.263 111.273,350.457 111.570 C 351.219 112.743,349.941 112.726,348.148 111.540 C 347.383 111.034,346.191 110.289,345.499 109.883 C 344.808 109.478,343.666 108.774,342.962 108.318 C 342.258 107.862,340.998 107.125,340.162 106.679 C 339.326 106.234,338.000 105.392,337.215 104.809 C 336.431 104.226,335.015 103.355,334.070 102.874 C 333.125 102.393,330.337 100.790,327.875 99.312 C 323.154 96.477,320.231 94.781,317.381 93.224 C 316.431 92.705,315.237 91.998,314.728 91.653 C 314.218 91.307,312.923 90.665,311.848 90.225 C 310.774 89.786,308.533 88.715,306.867 87.845 C 305.202 86.976,303.542 86.190,303.178 86.099 C 302.758 85.993,302.517 85.767,302.517 85.478 C 302.517 85.142,302.213 84.945,301.351 84.721 C 299.149 84.149,298.618 83.949,297.990 83.455 C 297.643 83.183,297.360 82.762,297.360 82.519 C 297.360 82.059,296.369 81.776,294.735 81.771 C 294.304 81.769,293.883 81.657,293.800 81.522 C 293.571 81.151,292.911 81.228,292.407 81.683 C 291.989 82.062,291.926 82.060,291.483 81.659 C 291.198 81.402,290.880 81.307,290.692 81.424 C 290.518 81.531,290.056 81.594,289.665 81.564 C 289.088 81.520,288.984 81.588,289.114 81.926 C 289.315 82.451,288.871 82.742,287.860 82.746 C 287.429 82.748,286.999 82.875,286.904 83.028 C 286.788 83.216,286.174 83.260,285.021 83.163 C 283.739 83.056,283.172 83.110,282.761 83.379 C 281.960 83.904,278.279 85.210,277.513 85.240 C 277.152 85.255,276.525 85.405,276.120 85.574 C 275.420 85.866,272.650 86.720,271.332 87.050 C 270.994 87.134,270.331 87.303,269.859 87.425 C 268.847 87.685,268.140 87.523,268.140 87.031 C 268.140 86.545,267.940 86.578,266.017 87.386 C 265.091 87.774,263.781 88.215,263.106 88.366 C 262.431 88.516,260.873 88.860,259.643 89.131 C 257.412 89.622,253.223 90.917,252.345 91.387 C 252.025 91.558,251.798 91.552,251.613 91.367 C 251.227 90.982,250.943 91.037,251.107 91.465 C 251.193 91.689,251.071 91.887,250.793 91.974 C 250.542 92.053,250.146 92.219,249.911 92.345 C 249.677 92.470,249.216 92.572,248.888 92.572 C 248.559 92.572,247.977 92.735,247.595 92.934 C 246.652 93.425,245.425 93.908,243.953 94.368 C 243.278 94.579,242.118 94.988,241.375 95.276 C 240.632 95.565,239.726 95.894,239.360 96.008 C 238.995 96.122,238.387 96.382,238.009 96.586 C 237.632 96.791,236.053 97.529,234.500 98.227 C 229.957 100.270,228.018 101.171,227.624 101.424 C 227.422 101.554,226.980 101.783,226.642 101.931 C 226.304 102.080,225.862 102.298,225.660 102.417 C 225.457 102.535,224.939 102.791,224.508 102.986 C 224.076 103.180,223.305 103.624,222.793 103.972 C 222.281 104.320,221.681 104.604,221.459 104.604 C 221.236 104.604,220.917 104.770,220.749 104.972 C 220.581 105.175,220.224 105.341,219.956 105.341 C 219.688 105.341,219.141 105.617,218.740 105.955 C 218.338 106.292,217.815 106.568,217.576 106.568 C 217.337 106.568,216.931 106.802,216.674 107.087 C 216.417 107.372,215.433 107.991,214.487 108.464 C 213.542 108.936,212.548 109.520,212.277 109.761 C 212.007 110.002,210.207 111.054,208.277 112.099 C 204.414 114.191,204.334 114.301,206.272 114.906 C 207.009 115.136,207.944 115.497,208.349 115.709 C 208.754 115.921,209.914 116.366,210.927 116.698 C 211.940 117.030,213.694 117.815,214.824 118.442 C 215.955 119.069,217.093 119.583,217.353 119.583 C 217.941 119.583,219.083 120.159,219.507 120.671 C 219.682 120.882,220.360 121.213,221.012 121.407 C 222.806 121.940,225.825 123.438,225.994 123.880 C 226.077 124.095,226.292 124.238,226.472 124.198 C 226.652 124.158,227.178 124.306,227.641 124.528 C 229.701 125.512,230.290 125.679,231.244 125.551 C 231.839 125.472,232.293 125.527,232.395 125.693 C 232.505 125.870,232.314 125.967,231.854 125.967 C 230.476 125.967,230.911 126.700,232.719 127.425 C 234.032 127.952,233.321 128.429,231.553 128.208 C 228.737 127.856,227.465 127.602,227.042 127.306 C 226.762 127.110,226.163 126.949,225.712 126.949 C 225.260 126.949,224.685 126.839,224.433 126.704 C 224.096 126.524,223.876 126.558,223.600 126.834 C 223.154 127.280,222.575 127.173,220.135 126.191 C 219.190 125.810,217.201 125.035,215.715 124.468 C 214.230 123.901,212.321 123.123,211.473 122.738 C 210.626 122.353,209.830 122.038,209.705 122.038 C 209.581 122.038,208.086 121.375,206.384 120.565 C 204.683 119.754,203.128 119.091,202.929 119.091 C 202.730 119.091,201.836 118.760,200.943 118.355 C 200.049 117.950,199.157 117.618,198.960 117.618 C 198.764 117.618,198.297 117.400,197.923 117.134 C 197.077 116.532,193.772 114.994,192.838 114.769 C 192.455 114.676,191.399 114.230,190.491 113.777 C 189.583 113.323,188.622 112.953,188.356 112.953 C 188.091 112.953,187.727 112.745,187.549 112.490 C 187.204 111.998,182.881 109.761,182.275 109.761 C 182.076 109.761,180.237 109.212,178.188 108.541 C 174.490 107.330,167.073 105.187,164.557 104.603 C 163.399 104.334,163.288 104.256,163.608 103.935 C 164.350 103.194,170.932 103.557,175.691 104.602 C 176.366 104.750,177.802 104.956,178.883 105.058 C 179.963 105.161,181.277 105.433,181.802 105.663 C 182.531 105.982,182.837 106.014,183.097 105.799 C 183.361 105.580,183.765 105.689,184.908 106.288 C 185.717 106.712,186.630 107.060,186.938 107.060 C 187.245 107.060,187.929 107.281,188.459 107.551 C 188.989 107.821,189.519 108.042,189.637 108.042 C 190.366 108.042,193.707 109.660,194.355 110.327 C 194.894 110.883,195.681 111.288,197.015 111.697 L 198.908 112.278 200.314 111.193 C 202.406 109.578,205.701 107.645,205.945 107.889 C 206.010 107.954,205.607 108.240,205.049 108.525 C 204.000 109.060,203.896 109.625,204.893 109.375 C 205.318 109.268,205.489 109.353,205.584 109.714 C 205.744 110.326,206.894 110.169,207.260 109.485 C 207.395 109.231,207.727 109.024,207.997 109.024 C 208.266 109.024,208.550 108.858,208.628 108.656 C 208.706 108.453,208.984 108.287,209.246 108.287 C 209.508 108.287,209.979 108.011,210.292 107.673 C 210.604 107.336,211.070 107.060,211.326 107.060 C 211.582 107.060,211.929 106.839,212.097 106.569 C 212.266 106.299,213.232 105.680,214.244 105.193 C 215.256 104.707,216.083 104.209,216.083 104.088 C 216.083 103.967,216.255 103.867,216.465 103.867 C 216.675 103.867,217.253 103.591,217.750 103.254 C 218.246 102.916,218.793 102.640,218.964 102.640 C 219.134 102.640,220.104 102.198,221.117 101.657 C 222.131 101.117,223.081 100.675,223.229 100.675 C 223.377 100.675,223.847 100.523,224.272 100.337 C 224.698 100.151,225.564 99.813,226.198 99.586 C 227.138 99.248,227.363 99.052,227.425 98.512 C 227.489 97.960,227.804 97.702,229.343 96.944 C 230.356 96.444,231.682 95.554,232.289 94.965 C 232.978 94.298,234.044 93.627,235.114 93.187 C 236.059 92.799,236.947 92.397,237.088 92.294 C 238.259 91.435,242.210 89.626,242.913 89.626 C 243.813 89.626,244.762 89.236,246.532 88.140 C 247.139 87.764,249.184 86.780,251.074 85.954 C 252.965 85.128,254.954 84.239,255.494 83.979 C 256.034 83.720,256.808 83.429,257.213 83.332 C 257.618 83.236,258.757 82.789,259.743 82.340 C 260.730 81.890,261.655 81.522,261.799 81.522 C 262.263 81.522,261.510 82.224,260.959 82.306 C 260.279 82.406,260.090 82.996,260.739 82.996 C 261.012 82.996,261.304 82.885,261.387 82.750 C 261.471 82.615,261.858 82.505,262.247 82.505 C 262.636 82.505,263.023 82.394,263.106 82.259 C 263.190 82.124,263.492 82.014,263.779 82.014 C 264.289 82.014,265.452 81.694,266.667 81.220 C 267.932 80.726,270.750 80.060,271.598 80.055 C 272.524 80.049,275.464 79.184,275.862 78.800 C 275.991 78.677,276.509 78.576,277.014 78.576 C 277.520 78.576,278.003 78.462,278.089 78.323 C 278.180 78.176,278.599 78.136,279.087 78.227 C 279.668 78.336,280.116 78.263,280.533 77.989 C 280.865 77.772,281.418 77.594,281.763 77.594 C 282.107 77.594,282.580 77.495,282.815 77.375 C 283.258 77.147,286.033 76.196,286.395 76.148 C 286.508 76.133,286.869 76.331,287.196 76.588 M280.417 77.322 C 280.417 77.442,280.243 77.608,280.029 77.690 C 279.480 77.901,279.435 77.884,279.435 77.471 C 279.435 77.266,279.654 77.103,279.926 77.103 C 280.196 77.103,280.417 77.201,280.417 77.322 M308.114 82.685 C 309.121 83.277,309.197 83.374,308.703 83.444 C 308.391 83.489,307.857 83.342,307.517 83.119 C 307.176 82.896,306.724 82.779,306.513 82.860 C 306.068 83.031,305.159 82.308,305.376 81.956 C 305.597 81.598,306.818 81.923,308.114 82.685 M253.039 86.188 C 252.609 86.663,252.610 86.679,253.074 86.679 C 253.562 86.679,254.144 86.251,254.144 85.893 C 254.144 85.521,253.482 85.698,253.039 86.188 M316.372 88.526 C 316.930 88.948,316.675 89.357,316.086 88.985 C 315.639 88.703,315.375 88.148,315.695 88.160 C 315.807 88.164,316.112 88.329,316.372 88.526 M241.866 90.362 C 241.866 90.497,242.032 90.608,242.234 90.608 C 242.437 90.608,242.603 90.497,242.603 90.362 C 242.603 90.227,242.437 90.117,242.234 90.117 C 242.032 90.117,241.866 90.227,241.866 90.362 M147.024 94.740 C 145.436 95.299,145.557 95.620,147.289 95.439 C 149.011 95.259,149.591 95.060,149.470 94.690 C 149.330 94.266,148.312 94.286,147.024 94.740 M134.868 94.790 C 134.207 95.056,134.137 95.519,134.758 95.519 C 135.213 95.519,135.789 95.080,135.789 94.733 C 135.789 94.491,135.580 94.504,134.868 94.790 M137.017 94.782 C 137.017 94.917,137.182 95.028,137.385 95.028 C 137.587 95.028,137.753 94.917,137.753 94.782 C 137.753 94.647,137.587 94.537,137.385 94.537 C 137.182 94.537,137.017 94.647,137.017 94.782 M138.858 96.255 C 138.775 96.390,138.393 96.501,138.011 96.501 C 137.605 96.501,137.253 96.662,137.167 96.886 C 137.074 97.128,136.851 97.218,136.568 97.128 C 136.292 97.041,135.951 97.168,135.689 97.457 C 135.190 98.009,136.067 98.531,136.599 97.999 C 136.748 97.850,137.172 97.729,137.542 97.729 C 137.912 97.729,138.270 97.640,138.337 97.532 C 138.404 97.423,139.018 97.182,139.702 96.996 C 140.918 96.665,141.528 96.056,140.347 96.352 C 140.017 96.435,139.679 96.392,139.595 96.256 C 139.400 95.941,139.053 95.940,138.858 96.255 M161.186 96.964 C 161.260 97.084,161.156 97.318,160.955 97.485 C 160.651 97.738,160.589 97.701,160.589 97.268 C 160.589 96.741,160.938 96.563,161.186 96.964 M159.300 97.715 C 159.984 98.285,159.992 98.506,159.346 98.909 C 158.237 99.602,158.822 100.292,160.650 100.449 C 162.696 100.625,162.911 100.802,161.534 101.178 C 160.947 101.338,160.033 101.629,159.502 101.824 C 158.972 102.019,156.636 102.504,154.310 102.902 C 151.984 103.299,149.214 103.855,148.153 104.137 C 147.092 104.419,145.506 104.757,144.629 104.888 C 143.751 105.020,142.812 105.222,142.541 105.338 C 142.271 105.453,141.719 105.631,141.314 105.731 C 140.909 105.832,140.522 105.929,140.454 105.947 C 140.387 105.964,139.779 106.065,139.104 106.170 C 138.428 106.275,137.631 106.518,137.332 106.710 C 137.033 106.902,136.515 107.060,136.180 107.060 C 135.846 107.060,135.510 107.160,135.435 107.282 C 135.359 107.404,134.753 107.579,134.089 107.671 C 132.463 107.894,131.951 108.276,132.329 108.982 C 132.638 109.559,132.724 109.584,134.193 109.519 C 135.384 109.467,135.141 109.784,133.579 110.320 C 132.971 110.529,131.700 110.975,130.755 111.312 C 129.810 111.649,126.550 112.720,123.511 113.693 C 115.909 116.125,112.666 117.274,105.709 119.999 C 104.494 120.475,102.891 121.061,102.149 121.301 C 101.406 121.541,100.411 121.912,99.939 122.126 C 99.466 122.340,96.924 123.354,94.291 124.379 C 91.657 125.404,88.216 126.843,86.643 127.578 C 85.069 128.312,83.669 128.913,83.530 128.913 C 83.155 128.913,75.759 132.380,71.823 134.400 C 69.932 135.371,67.888 136.376,67.281 136.633 C 65.615 137.339,62.775 138.669,54.266 142.726 C 50.012 144.755,45.482 146.910,44.199 147.515 C 42.916 148.120,39.435 149.801,36.464 151.251 C 33.493 152.701,30.399 154.137,29.589 154.443 C 28.778 154.748,27.767 155.151,27.342 155.338 C 26.296 155.798,26.028 155.767,26.028 155.187 C 26.028 154.831,26.192 154.696,26.623 154.696 C 26.951 154.696,27.531 154.440,27.912 154.127 C 28.294 153.813,29.340 153.152,30.236 152.657 C 31.736 151.828,32.390 151.154,32.038 150.802 C 31.817 150.581,29.623 151.431,26.274 153.034 C 23.641 154.295,21.541 155.187,21.209 155.187 C 20.471 155.187,21.829 153.703,24.125 152.001 C 25.717 150.820,25.856 150.522,24.815 150.522 C 22.848 150.522,23.691 149.840,28.852 147.258 C 31.148 146.109,34.905 144.120,37.201 142.837 C 39.497 141.554,42.922 139.647,44.813 138.599 C 46.703 137.551,49.079 136.199,50.092 135.594 C 51.105 134.990,52.873 133.943,54.021 133.267 C 58.083 130.875,82.779 118.600,83.531 118.600 C 83.657 118.600,85.329 117.894,87.246 117.031 C 89.162 116.168,91.559 115.107,92.572 114.674 C 93.585 114.241,95.862 113.235,97.633 112.438 C 99.404 111.640,100.984 110.988,101.146 110.988 C 101.307 110.988,103.450 110.204,105.907 109.246 C 113.481 106.293,114.410 105.996,114.593 106.472 C 114.903 107.279,118.423 106.244,118.895 105.208 C 119.058 104.850,119.480 104.517,119.914 104.405 C 120.705 104.200,121.110 103.622,120.462 103.622 C 120.249 103.622,120.074 103.511,120.074 103.376 C 120.074 103.241,120.397 103.131,120.793 103.131 C 121.188 103.131,121.678 102.965,121.880 102.762 C 122.083 102.560,122.534 102.394,122.883 102.394 C 123.232 102.394,123.738 102.284,124.006 102.149 C 124.274 102.014,124.697 101.803,124.945 101.680 C 125.194 101.557,125.531 101.540,125.694 101.641 C 125.881 101.756,125.438 102.073,124.511 102.489 C 120.734 104.184,120.419 106.330,124.153 104.936 C 125.083 104.588,126.120 104.275,126.458 104.240 C 127.191 104.163,130.161 103.240,131.369 102.714 C 131.842 102.508,132.936 102.291,133.801 102.232 C 134.666 102.174,135.580 102.015,135.832 101.880 C 136.084 101.745,136.393 101.699,136.520 101.777 C 136.646 101.855,137.141 101.755,137.620 101.555 C 138.098 101.355,138.490 101.258,138.490 101.340 C 138.490 101.421,138.683 101.324,138.920 101.124 C 139.156 100.924,139.847 100.623,140.454 100.456 C 141.062 100.289,141.766 100.093,142.020 100.019 C 142.318 99.933,142.421 99.982,142.312 100.158 C 142.220 100.307,141.943 100.430,141.698 100.430 C 141.228 100.430,140.535 101.083,140.763 101.311 C 140.917 101.466,143.559 101.093,145.835 100.595 C 147.021 100.336,147.526 100.091,147.881 99.604 C 148.224 99.134,148.572 98.956,149.151 98.956 C 149.590 98.956,150.021 98.885,150.108 98.797 C 150.196 98.709,150.629 98.610,151.070 98.577 C 152.301 98.484,154.002 98.053,154.819 97.626 C 155.895 97.063,158.583 97.117,159.300 97.715 M162.554 98.234 C 162.554 98.361,162.388 98.465,162.185 98.465 C 161.806 98.465,161.698 98.176,161.974 97.899 C 162.170 97.703,162.554 97.925,162.554 98.234 M342.172 103.620 C 342.467 104.098,341.825 103.861,341.143 103.240 L 340.454 102.614 341.237 102.993 C 341.667 103.202,342.088 103.484,342.172 103.620 M343.946 104.629 C 344.456 104.912,345.427 105.558,346.102 106.064 C 346.777 106.570,347.603 107.167,347.937 107.390 C 348.853 108.003,348.254 107.877,347.239 107.244 C 345.850 106.376,345.606 106.230,344.722 105.736 C 343.910 105.282,342.575 104.113,342.869 104.113 C 342.951 104.113,343.435 104.345,343.946 104.629 M108.572 105.350 C 107.795 105.769,107.778 105.805,108.251 106.058 C 108.602 106.246,108.796 106.247,108.910 106.063 C 108.999 105.919,109.344 105.698,109.676 105.572 C 110.009 105.445,110.213 105.231,110.129 105.096 C 109.924 104.764,109.548 104.826,108.572 105.350 M118.355 105.326 C 118.355 105.668,117.903 105.885,117.592 105.693 C 117.403 105.576,117.421 105.461,117.653 105.314 C 118.092 105.036,118.355 105.041,118.355 105.326 M105.967 106.746 C 105.572 107.141,105.415 107.453,105.583 107.509 C 105.882 107.608,107.060 106.628,107.060 106.280 C 107.060 105.897,106.635 106.078,105.967 106.746 M113.347 107.202 C 113.120 107.795,113.159 107.835,113.689 107.551 C 113.959 107.406,114.180 107.181,114.180 107.051 C 114.180 106.661,113.508 106.783,113.347 107.202 M350.399 109.063 C 350.399 109.425,349.999 109.286,349.521 108.758 C 349.059 108.247,349.060 108.247,349.728 108.552 C 350.097 108.720,350.399 108.950,350.399 109.063 M354.202 111.393 C 354.744 111.846,356.413 113.018,357.912 113.997 C 362.705 117.128,363.526 117.735,363.083 117.821 C 362.856 117.865,362.258 117.577,361.753 117.181 C 361.248 116.785,360.559 116.317,360.221 116.141 C 359.883 115.964,359.032 115.396,358.328 114.877 C 357.625 114.359,356.937 113.935,356.799 113.935 C 356.661 113.935,355.965 113.493,355.254 112.954 C 354.542 112.414,353.870 111.972,353.761 111.972 C 353.383 111.970,351.627 110.414,351.627 110.082 C 351.627 109.639,352.844 110.259,354.202 111.393 M203.622 111.255 C 202.952 111.508,202.893 111.971,203.530 111.971 C 204.036 111.971,204.684 111.347,204.370 111.162 C 204.263 111.098,203.926 111.140,203.622 111.255 M103.315 112.502 C 101.789 113.329,102.016 113.701,103.584 112.943 C 104.317 112.589,104.920 111.763,104.283 111.987 C 104.257 111.996,103.821 112.228,103.315 112.502 M351.627 112.844 C 351.627 113.039,351.461 113.198,351.258 113.198 C 350.889 113.198,350.754 112.680,351.047 112.386 C 351.276 112.157,351.627 112.434,351.627 112.844 M354.711 114.599 C 354.963 114.851,355.025 115.053,354.865 115.106 C 354.518 115.222,353.591 114.721,353.591 114.417 C 353.591 114.036,354.257 114.145,354.711 114.599 M357.459 117.025 C 357.225 117.259,356.755 116.880,356.930 116.598 C 357.033 116.430,357.171 116.434,357.347 116.610 C 357.492 116.755,357.542 116.941,357.459 117.025 M364.500 118.483 C 364.760 118.680,364.925 118.890,364.865 118.949 C 364.805 119.009,364.482 118.847,364.146 118.589 C 363.811 118.331,363.646 118.121,363.781 118.123 C 363.917 118.124,364.240 118.286,364.500 118.483 M127.931 122.284 C 127.931 122.419,127.655 122.529,127.317 122.529 C 126.980 122.529,126.703 122.419,126.703 122.284 C 126.703 122.149,126.980 122.038,127.317 122.038 C 127.655 122.038,127.931 122.149,127.931 122.284 M126.212 122.721 C 126.212 122.826,125.881 123.038,125.476 123.191 C 124.683 123.490,124.462 123.206,125.169 122.794 C 125.685 122.493,126.212 122.456,126.212 122.721 M129.773 124.609 C 129.368 124.941,128.870 125.218,128.668 125.226 C 128.465 125.233,128.049 125.503,127.743 125.826 C 127.368 126.221,126.781 126.469,125.945 126.584 C 125.241 126.681,124.647 126.903,124.573 127.097 C 124.500 127.286,124.214 127.440,123.936 127.440 C 123.659 127.440,122.925 127.744,122.305 128.115 L 121.179 128.791 121.978 128.868 C 122.493 128.917,123.032 128.764,123.492 128.436 C 123.884 128.157,124.433 127.963,124.712 128.005 C 125.269 128.090,125.722 128.422,125.281 128.422 C 125.128 128.422,123.393 129.196,121.424 130.141 C 119.455 131.087,117.786 131.860,117.716 131.860 C 117.645 131.860,116.983 132.136,116.245 132.474 C 115.507 132.812,114.737 133.088,114.534 133.088 C 114.331 133.088,114.099 133.260,114.018 133.470 C 113.938 133.681,113.716 133.793,113.525 133.720 C 113.335 133.647,112.990 133.682,112.759 133.798 C 111.003 134.682,108.603 134.857,109.024 134.070 C 109.168 133.800,109.437 133.579,109.620 133.579 C 109.803 133.579,110.434 133.360,111.023 133.093 C 111.612 132.826,112.352 132.605,112.668 132.602 C 112.985 132.599,113.525 132.376,113.868 132.106 C 114.695 131.455,114.267 131.483,111.600 132.250 C 110.386 132.600,108.950 132.971,108.410 133.076 C 107.870 133.181,107.234 133.349,106.998 133.449 C 105.688 134.004,106.860 133.067,108.472 132.271 C 109.518 131.754,110.651 131.174,110.988 130.981 C 111.816 130.509,114.345 129.404,114.594 129.406 C 114.704 129.407,115.623 129.088,116.636 128.698 C 117.649 128.308,118.975 127.853,119.583 127.687 C 120.190 127.520,120.909 127.294,121.179 127.184 C 121.449 127.074,122.443 126.710,123.389 126.376 C 126.511 125.271,128.318 124.577,128.803 124.295 C 129.066 124.142,129.558 124.015,129.896 124.011 L 130.510 124.005 129.773 124.609 M120.966 124.618 C 120.188 125.024,119.339 125.122,119.718 124.763 C 119.956 124.536,120.642 124.326,121.301 124.278 C 121.504 124.263,121.353 124.416,120.966 124.618 M118.983 125.361 C 118.721 125.559,118.279 125.717,118.001 125.713 C 117.539 125.705,117.548 125.674,118.109 125.353 C 118.956 124.869,119.626 124.875,118.983 125.361 M68.229 129.396 C 67.826 129.732,67.761 129.879,68.017 129.880 C 68.411 129.880,69.245 129.331,69.245 129.071 C 69.245 128.774,68.808 128.914,68.229 129.396 M116.258 130.894 C 115.970 131.360,116.390 131.475,116.817 131.047 C 117.200 130.665,117.201 130.632,116.826 130.632 C 116.602 130.632,116.347 130.750,116.258 130.894 M63.352 133.333 C 63.352 133.468,63.511 133.579,63.706 133.579 C 63.900 133.579,64.128 133.468,64.211 133.333 C 64.295 133.198,64.135 133.088,63.857 133.088 C 63.579 133.088,63.352 133.198,63.352 133.333 M117.373 135.183 C 117.373 135.534,110.836 138.107,108.717 138.591 C 107.037 138.974,108.837 137.363,110.866 136.669 C 111.541 136.438,112.741 136.101,113.533 135.920 C 114.325 135.740,115.128 135.438,115.316 135.249 C 115.604 134.961,117.373 134.905,117.373 135.183 M125.069 136.659 C 124.909 137.078,124.456 137.026,124.304 136.572 C 124.250 136.410,124.431 136.280,124.711 136.280 C 125.064 136.280,125.171 136.393,125.069 136.659 M129.896 137.252 C 129.896 137.382,129.426 137.612,128.852 137.764 C 128.278 137.915,127.256 138.243,126.581 138.492 C 125.905 138.741,124.966 139.023,124.494 139.118 C 124.021 139.214,123.249 139.498,122.778 139.750 C 122.308 140.002,121.700 140.209,121.428 140.209 C 121.156 140.209,120.352 140.430,119.641 140.700 C 118.224 141.239,117.864 141.296,117.864 140.984 C 117.864 140.675,121.775 138.992,122.901 138.816 C 123.439 138.732,124.173 138.459,124.531 138.208 C 124.890 137.958,125.553 137.745,126.005 137.735 C 126.457 137.724,127.213 137.567,127.686 137.385 C 128.706 136.992,129.896 136.921,129.896 137.252 M133.908 138.761 C 133.526 139.012,132.881 139.206,132.475 139.193 C 132.069 139.179,131.489 139.250,131.185 139.349 C 130.830 139.465,130.632 139.429,130.632 139.250 C 130.632 138.774,132.878 138.058,133.906 138.206 L 134.602 138.306 133.908 138.761 M381.584 139.732 C 381.584 140.284,381.271 140.351,380.883 139.884 C 380.687 139.647,380.689 139.483,380.892 139.280 C 381.256 138.916,381.584 139.131,381.584 139.732 M130.141 139.458 C 130.141 139.885,129.058 140.454,128.245 140.454 C 126.936 140.454,127.373 139.615,128.791 139.408 C 130.078 139.220,130.141 139.222,130.141 139.458 M383.533 140.553 C 383.915 141.170,384.176 141.355,384.535 141.261 C 384.904 141.164,385.021 141.256,385.021 141.639 C 385.021 142.380,384.522 142.564,384.067 141.989 C 383.849 141.714,383.423 141.415,383.120 141.324 C 382.238 141.060,381.758 140.467,382.096 140.060 C 382.552 139.511,382.980 139.658,383.533 140.553 M126.212 140.708 C 126.212 141.001,125.520 141.317,125.318 141.115 C 125.103 140.900,125.467 140.454,125.859 140.454 C 126.053 140.454,126.212 140.568,126.212 140.708 M124.599 141.163 C 124.767 141.435,124.277 141.853,123.660 141.966 C 122.980 142.089,122.912 141.563,123.566 141.248 C 124.274 140.907,124.433 140.894,124.599 141.163 M114.318 142.304 C 114.056 142.502,113.736 142.664,113.608 142.664 C 113.480 142.664,113.248 142.838,113.093 143.050 C 112.892 143.325,112.615 143.387,112.134 143.266 C 111.229 143.039,111.435 142.561,112.481 142.463 C 112.943 142.419,113.426 142.281,113.554 142.156 C 113.683 142.030,114.014 141.931,114.291 141.935 C 114.786 141.943,114.787 141.949,114.318 142.304 M386.316 142.752 C 386.169 143.522,386.672 143.822,387.138 143.241 C 387.480 142.815,387.492 142.825,387.336 143.401 C 387.111 144.235,387.136 144.227,386.211 143.753 C 385.087 143.177,384.939 142.859,385.574 142.376 C 386.240 141.869,386.463 141.983,386.316 142.752 M388.459 144.260 C 388.459 144.621,388.318 144.874,388.117 144.874 C 387.657 144.874,387.448 144.264,387.791 143.922 C 388.230 143.483,388.459 143.599,388.459 144.260 M391.102 146.795 C 391.786 147.581,393.129 148.755,394.086 149.403 C 395.677 150.480,396.485 151.558,395.396 151.150 C 392.849 150.196,387.948 145.365,389.527 145.365 C 389.710 145.365,390.418 146.009,391.102 146.795 M10.374 153.997 C 10.153 154.218,10.208 154.392,10.611 154.742 C 11.246 155.292,11.821 154.949,11.395 154.274 C 11.054 153.733,10.726 153.644,10.374 153.997 M9.572 155.316 C 9.401 155.522,9.321 155.750,9.395 155.824 C 9.558 155.987,10.559 155.389,10.559 155.128 C 10.559 154.801,9.894 154.928,9.572 155.316 M25.509 155.656 C 25.779 155.827,25.737 155.931,25.304 156.163 C 24.681 156.496,24.428 156.363,24.640 155.812 C 24.804 155.383,25.018 155.345,25.509 155.656 M7.060 157.092 C 6.688 157.323,6.384 157.596,6.384 157.700 C 6.384 158.061,6.794 157.884,7.366 157.274 C 8.041 156.556,7.981 156.521,7.060 157.092 M4.844 158.856 C 4.736 159.269,4.780 159.294,5.183 159.042 C 5.729 158.702,5.789 158.379,5.308 158.379 C 5.121 158.379,4.912 158.594,4.844 158.856 M2.736 159.580 C 2.504 159.727,2.485 159.842,2.675 159.959 C 2.986 160.152,3.438 159.935,3.438 159.593 C 3.438 159.307,3.175 159.302,2.736 159.580 M2.072 165.279 L 1.351 166.040 2.193 165.574 C 2.657 165.318,3.081 164.975,3.135 164.813 C 3.312 164.282,2.807 164.503,2.072 165.279 M163.290 192.020 C 162.798 192.338,161.252 192.338,161.449 192.020 C 161.532 191.885,162.064 191.776,162.630 191.778 C 163.384 191.781,163.561 191.845,163.290 192.020 M136.280 192.756 C 136.280 192.891,136.501 193.002,136.771 193.002 C 137.041 193.002,137.262 192.891,137.262 192.756 C 137.262 192.621,137.041 192.511,136.771 192.511 C 136.501 192.511,136.280 192.621,136.280 192.756 M112.216 196.858 C 110.812 197.012,108.922 197.698,109.285 197.922 C 109.462 198.032,109.994 197.963,110.484 197.767 C 110.968 197.573,112.081 197.259,112.957 197.069 C 114.460 196.743,114.126 196.648,112.216 196.858 M155.620 196.859 C 155.925 196.917,156.367 196.915,156.602 196.854 C 156.837 196.792,156.587 196.744,156.047 196.747 C 155.506 196.750,155.314 196.800,155.620 196.859 M134.929 197.176 C 134.515 197.354,134.561 197.390,135.222 197.404 C 135.653 197.414,136.074 197.311,136.157 197.176 C 136.339 196.882,135.615 196.882,134.929 197.176 M151.013 197.422 C 151.013 197.557,151.393 197.667,151.858 197.667 C 152.323 197.667,152.771 197.557,152.855 197.422 C 152.946 197.273,152.612 197.176,152.010 197.176 C 151.461 197.176,151.013 197.287,151.013 197.422 M147.330 197.913 C 147.812 198.225,148.557 198.225,148.557 197.913 C 148.557 197.778,148.198 197.669,147.759 197.671 C 147.154 197.674,147.050 197.732,147.330 197.913 M133.824 199.877 C 133.824 200.185,134.085 200.185,134.561 199.877 C 134.859 199.685,134.824 199.638,134.377 199.635 C 134.073 199.633,133.824 199.742,133.824 199.877 M156.722 200.285 C 156.067 200.550,156.467 200.749,157.581 200.714 C 159.081 200.668,159.116 200.660,159.116 200.368 C 159.116 200.120,157.288 200.057,156.722 200.285 M127.195 200.859 C 127.195 201.171,127.940 201.171,128.422 200.859 C 128.702 200.679,128.598 200.620,127.993 200.618 C 127.554 200.616,127.195 200.724,127.195 200.859 M152.609 201.013 L 151.872 201.373 152.855 201.242 C 153.395 201.169,154.030 201.109,154.266 201.108 C 154.503 201.106,154.696 200.994,154.696 200.859 C 154.696 200.504,153.467 200.594,152.609 201.013 M124.277 201.082 C 124.010 201.251,124.049 201.332,124.459 201.462 C 125.047 201.649,125.556 201.434,125.342 201.088 C 125.166 200.803,124.721 200.800,124.277 201.082 M380.000 201.821 C 380.682 202.212,381.400 202.726,381.596 202.963 C 381.947 203.387,380.192 202.478,378.864 201.548 C 377.894 200.868,378.660 201.052,380.000 201.821 M88.019 201.579 C 88.178 201.836,87.232 202.578,86.747 202.578 C 86.218 202.578,86.399 201.840,86.986 201.604 C 87.715 201.311,87.851 201.307,88.019 201.579 M127.587 201.531 C 127.234 201.884,127.503 202.087,128.320 202.087 C 128.909 202.087,129.167 201.987,129.099 201.784 C 128.993 201.468,127.843 201.275,127.587 201.531 M144.907 201.728 C 144.453 201.926,143.652 202.087,143.127 202.087 C 142.581 202.087,142.173 202.206,142.173 202.365 C 142.173 202.550,142.480 202.591,143.094 202.487 C 143.600 202.401,144.401 202.270,144.874 202.196 C 146.522 201.937,146.858 201.826,146.711 201.589 C 146.507 201.258,145.880 201.306,144.907 201.728 M94.782 203.300 C 94.782 203.632,94.334 203.862,94.041 203.681 C 93.904 203.596,93.855 203.424,93.933 203.298 C 94.117 203.000,94.782 203.002,94.782 203.300 M93.309 203.764 C 93.309 204.066,91.123 204.982,89.994 205.153 C 89.035 205.298,89.049 205.282,90.608 204.441 C 92.128 203.620,93.309 203.324,93.309 203.764 M322.905 204.427 C 323.201 204.694,323.489 204.742,323.907 204.592 C 324.229 204.476,325.433 204.468,326.581 204.574 C 327.729 204.679,329.828 204.834,331.246 204.916 C 334.470 205.104,334.632 205.150,334.107 205.730 C 333.790 206.080,333.770 206.234,334.012 206.484 C 334.258 206.738,333.850 206.764,331.860 206.623 C 329.103 206.427,328.891 206.364,329.305 205.865 C 329.738 205.343,329.357 205.135,328.834 205.608 C 328.228 206.157,327.808 206.122,327.808 205.525 C 327.808 204.893,327.410 204.893,327.071 205.526 C 326.767 206.094,324.308 205.996,323.662 205.391 C 323.405 205.151,323.213 205.139,322.884 205.344 C 322.562 205.546,322.013 205.537,320.783 205.311 C 318.798 204.945,318.612 204.850,318.987 204.398 C 319.398 203.903,322.350 203.925,322.905 204.427 M285.326 204.536 C 286.052 204.995,285.187 205.184,282.812 205.085 C 280.603 204.994,279.799 204.740,280.847 204.466 C 281.661 204.254,284.961 204.305,285.326 204.536 M331.516 205.619 C 331.183 206.019,331.737 206.341,332.351 206.105 C 332.830 205.921,332.821 205.616,332.331 205.428 C 331.820 205.232,331.840 205.228,331.516 205.619 M339.518 205.567 C 340.340 205.531,341.394 205.966,340.653 206.034 C 340.544 206.045,339.847 206.081,339.104 206.115 C 338.361 206.149,337.387 206.368,336.939 206.602 C 335.475 207.367,334.899 206.970,335.150 205.368 C 335.164 205.282,335.921 205.302,336.832 205.412 C 337.744 205.522,338.953 205.592,339.518 205.567 M88.275 205.770 C 88.192 205.905,87.958 206.016,87.755 206.016 C 87.552 206.016,87.455 205.905,87.538 205.770 C 87.622 205.635,87.856 205.525,88.058 205.525 C 88.261 205.525,88.358 205.635,88.275 205.770 M294.475 205.687 C 293.864 205.934,294.154 206.507,294.890 206.507 C 295.785 206.507,296.062 206.127,295.419 205.783 C 295.154 205.641,294.902 205.534,294.860 205.544 C 294.817 205.555,294.644 205.619,294.475 205.687 M339.424 206.630 C 339.450 206.765,339.147 206.912,338.749 206.958 C 338.106 207.031,338.063 206.996,338.359 206.640 C 338.708 206.219,339.341 206.213,339.424 206.630 M238.428 206.735 C 238.428 206.860,237.517 207.018,236.403 207.085 C 235.289 207.153,233.907 207.284,233.333 207.375 C 232.658 207.482,232.290 207.449,232.290 207.281 C 232.290 207.044,232.587 206.962,234.500 206.668 C 235.780 206.472,238.428 206.517,238.428 206.735 M302.640 206.773 C 302.234 206.895,301.768 206.946,301.604 206.885 C 301.439 206.824,301.248 206.866,301.178 206.979 C 300.938 207.368,303.507 207.659,304.345 207.338 C 305.522 206.886,303.966 206.371,302.640 206.773 M309.924 206.826 C 309.476 207.367,310.047 207.493,312.789 207.462 L 315.163 207.435 313.812 207.065 C 311.718 206.492,310.275 206.404,309.924 206.826 M319.828 207.489 C 319.509 208.006,320.046 208.248,321.407 208.199 C 322.183 208.171,322.968 208.241,323.151 208.353 C 323.457 208.543,324.339 208.656,329.535 209.174 C 330.552 209.275,331.492 209.424,331.622 209.505 C 332.210 209.867,335.789 209.820,335.789 209.450 C 335.789 209.172,335.324 209.046,333.824 208.919 C 332.744 208.828,330.921 208.627,329.773 208.473 C 328.625 208.318,326.636 208.142,325.353 208.080 C 324.070 208.018,322.799 207.868,322.529 207.747 C 321.725 207.387,319.994 207.221,319.828 207.489 M347.944 207.735 C 347.944 207.870,348.275 207.980,348.680 207.980 C 349.085 207.980,349.417 207.870,349.417 207.735 C 349.417 207.600,349.085 207.489,348.680 207.489 C 348.275 207.489,347.944 207.600,347.944 207.735 M287.173 208.575 C 286.271 208.788,286.066 208.910,286.395 209.037 C 287.483 209.454,290.033 209.106,289.827 208.567 C 289.674 208.168,288.878 208.170,287.173 208.575 M87.483 208.762 C 84.879 209.405,82.750 210.263,82.750 210.668 C 82.750 210.822,83.165 210.861,83.828 210.770 C 84.631 210.660,85.100 210.736,85.662 211.068 C 86.674 211.666,91.467 210.129,91.467 209.206 C 91.467 208.785,88.659 208.472,87.483 208.762 M341.238 208.894 C 340.114 209.063,340.631 209.570,342.008 209.651 C 343.286 209.725,343.841 209.231,342.890 208.866 C 342.493 208.714,342.432 208.715,341.238 208.894 M302.762 209.226 C 302.425 209.324,303.806 209.407,305.832 209.410 C 307.858 209.413,309.405 209.377,309.269 209.331 C 308.729 209.146,303.336 209.059,302.762 209.226 M310.313 209.381 C 310.617 209.440,311.114 209.440,311.418 209.381 C 311.722 209.323,311.473 209.275,310.866 209.275 C 310.258 209.275,310.009 209.323,310.313 209.381 M337.139 209.562 C 337.139 210.076,337.565 210.260,338.319 210.071 C 338.956 209.911,338.963 209.892,338.504 209.556 C 337.888 209.106,337.139 209.109,337.139 209.562 M320.196 209.845 C 319.589 210.031,318.864 210.185,318.586 210.187 C 318.308 210.189,317.866 210.348,317.604 210.540 C 316.992 210.989,317.600 211.257,320.107 211.646 C 321.034 211.790,322.400 212.019,323.143 212.156 C 323.886 212.293,325.378 212.508,326.458 212.634 C 327.538 212.760,329.487 213.034,330.788 213.242 C 332.089 213.450,335.005 213.670,337.267 213.731 C 339.692 213.797,341.488 213.950,341.642 214.104 C 342.061 214.523,342.726 214.409,343.790 213.738 C 345.585 212.604,344.634 212.207,338.244 211.424 C 337.299 211.308,335.641 211.090,334.561 210.939 C 333.481 210.788,331.823 210.558,330.878 210.427 C 329.932 210.297,327.888 210.082,326.335 209.950 C 324.782 209.818,323.014 209.665,322.406 209.608 C 321.799 209.552,320.804 209.658,320.196 209.845 M209.699 210.190 C 209.699 210.325,210.300 210.436,211.035 210.436 C 211.770 210.436,212.440 210.325,212.523 210.190 C 212.618 210.037,212.116 209.945,211.187 209.945 C 210.359 209.945,209.699 210.054,209.699 210.190 M328.422 210.455 C 329.503 210.593,331.105 210.804,331.983 210.925 C 332.861 211.046,334.518 211.268,335.666 211.419 C 342.427 212.307,345.035 212.905,343.831 213.290 C 343.594 213.365,343.166 213.539,342.879 213.675 C 342.519 213.846,342.200 213.840,341.852 213.653 C 341.553 213.493,339.950 213.382,337.935 213.382 C 336.059 213.382,333.317 213.213,331.841 213.005 C 330.366 212.797,327.612 212.414,325.721 212.154 C 320.352 211.416,316.869 210.691,318.621 210.678 C 318.880 210.676,319.533 210.507,320.074 210.304 C 321.138 209.903,324.580 209.965,328.422 210.455 M245.795 210.454 C 243.026 210.548,239.159 210.748,237.201 210.899 C 230.714 211.399,223.381 211.647,221.632 211.425 C 219.933 211.210,215.857 211.426,213.014 211.883 C 211.028 212.201,201.610 212.546,188.476 212.782 C 184.298 212.856,180.816 212.958,180.737 213.006 C 180.658 213.055,178.854 213.156,176.727 213.232 C 170.380 213.456,169.925 214.511,176.070 214.757 C 178.022 214.835,180.227 215.066,180.970 215.271 C 181.974 215.547,182.951 215.603,184.776 215.491 C 186.126 215.408,188.377 215.283,189.778 215.213 C 191.179 215.144,192.505 214.991,192.725 214.875 C 192.945 214.758,195.998 214.651,199.509 214.636 C 206.876 214.605,216.660 214.179,228.361 213.379 C 231.247 213.182,238.963 213.025,241.682 213.109 C 243.903 213.177,242.432 214.336,239.804 214.590 C 238.845 214.682,244.745 214.817,252.916 214.889 C 261.087 214.962,267.818 214.984,267.874 214.938 C 268.461 214.464,263.974 214.135,255.657 214.044 C 247.432 213.953,246.693 213.853,247.593 212.952 C 248.153 212.392,277.018 212.061,296.624 212.389 C 304.528 212.522,311.121 212.533,311.602 212.415 L 312.462 212.205 311.602 212.176 C 311.130 212.160,309.472 212.035,307.919 211.899 C 306.366 211.763,303.824 211.602,302.271 211.543 C 300.718 211.483,297.127 211.321,294.291 211.182 C 277.120 210.340,257.712 210.049,245.795 210.454 M84.101 211.172 C 84.017 211.308,84.170 211.418,84.440 211.418 C 84.710 211.418,84.999 211.308,85.083 211.172 C 85.166 211.037,85.014 210.927,84.744 210.927 C 84.473 210.927,84.184 211.037,84.101 211.172 M321.052 213.144 C 320.734 213.658,321.659 214.119,323.007 214.119 C 323.692 214.119,324.637 214.235,325.109 214.378 C 325.581 214.520,326.961 214.674,328.177 214.720 C 329.392 214.767,330.552 214.868,330.755 214.946 C 330.958 215.023,332.339 215.137,333.824 215.199 C 335.310 215.261,337.050 215.390,337.692 215.484 C 338.645 215.625,338.858 215.588,338.858 215.285 C 338.858 215.010,338.392 214.847,337.078 214.661 C 336.099 214.522,334.823 214.287,334.243 214.138 C 333.664 213.988,332.503 213.851,331.665 213.833 C 330.827 213.815,330.031 213.722,329.896 213.625 C 329.761 213.528,328.324 213.381,326.703 213.298 C 325.083 213.216,323.192 213.077,322.501 212.989 C 321.604 212.876,321.190 212.920,321.052 213.144 M346.138 213.484 C 345.916 213.824,345.734 214.271,345.734 214.479 C 345.734 215.088,346.462 214.910,346.717 214.238 C 346.930 213.677,347.048 213.633,348.000 213.758 L 349.048 213.895 348.189 213.549 C 347.716 213.359,347.153 213.127,346.936 213.035 C 346.670 212.921,346.412 213.066,346.138 213.484 M245.058 213.874 C 245.058 214.009,244.837 214.119,244.567 214.119 C 244.297 214.119,244.076 214.009,244.076 213.874 C 244.076 213.738,244.297 213.628,244.567 213.628 C 244.837 213.628,245.058 213.738,245.058 213.874 M329.419 214.012 C 329.858 214.365,329.731 214.386,327.808 214.281 C 324.654 214.107,323.894 213.663,326.718 213.644 C 328.386 213.632,329.062 213.724,329.419 214.012 M332.575 214.268 C 333.113 214.474,332.812 214.856,332.111 214.856 C 331.320 214.856,330.729 214.605,330.894 214.339 C 331.049 214.088,332.001 214.047,332.575 214.268 M269.061 214.893 C 269.459 215.290,272.358 215.311,272.494 214.917 C 272.574 214.689,272.112 214.610,270.690 214.610 C 269.249 214.610,268.848 214.680,269.061 214.893 M278.028 214.844 C 276.294 215.122,276.543 215.347,278.584 215.347 C 279.720 215.347,280.420 215.257,280.282 215.129 C 279.894 214.766,279.122 214.669,278.028 214.844 M222.755 215.355 C 223.012 215.505,223.790 215.514,224.842 215.379 L 226.519 215.163 224.432 215.140 C 222.971 215.123,222.468 215.188,222.755 215.355 M207.980 215.506 C 207.643 215.556,206.759 215.703,206.016 215.832 C 205.273 215.962,204.030 216.134,203.254 216.216 C 202.477 216.298,201.842 216.471,201.842 216.601 C 201.842 216.890,213.172 216.698,214.222 216.391 L 214.938 216.182 213.845 215.764 C 212.818 215.372,209.770 215.238,207.980 215.506 M24.616 218.846 C 24.673 219.015,24.866 219.153,25.046 219.153 C 25.226 219.153,25.419 219.015,25.476 218.846 C 25.537 218.663,25.363 218.539,25.046 218.539 C 24.730 218.539,24.555 218.663,24.616 218.846 M21.526 219.439 C 21.244 219.722,21.348 220.012,21.731 220.012 C 21.934 220.012,22.099 219.847,22.099 219.644 C 22.099 219.261,21.809 219.157,21.526 219.439 M18.638 222.864 C 18.353 223.208,18.371 223.249,18.772 223.171 C 19.027 223.122,19.281 222.944,19.337 222.775 C 19.483 222.337,19.028 222.395,18.638 222.864 "
            stroke="none" fill="#d6b365" fill-rule="evenodd"></path>
        <path id="path1"
            d="M284.715 76.666 C 283.904 76.935,283.049 77.254,282.815 77.375 C 282.580 77.495,282.107 77.594,281.763 77.594 C 281.418 77.594,280.865 77.772,280.533 77.989 C 280.116 78.263,279.668 78.336,279.087 78.227 C 278.599 78.136,278.180 78.176,278.089 78.323 C 278.003 78.462,277.520 78.576,277.014 78.576 C 276.509 78.576,275.991 78.677,275.862 78.800 C 275.464 79.184,272.524 80.049,271.598 80.055 C 270.750 80.060,267.932 80.726,266.667 81.220 C 265.452 81.694,264.289 82.014,263.779 82.014 C 263.492 82.014,263.190 82.124,263.106 82.259 C 263.023 82.394,262.636 82.505,262.247 82.505 C 261.858 82.505,261.471 82.615,261.387 82.750 C 261.304 82.885,261.012 82.996,260.739 82.996 C 260.090 82.996,260.279 82.406,260.959 82.306 C 261.510 82.224,262.263 81.522,261.799 81.522 C 261.655 81.522,260.730 81.890,259.743 82.340 C 258.757 82.789,257.618 83.236,257.213 83.332 C 256.808 83.429,256.034 83.720,255.494 83.979 C 254.954 84.239,252.965 85.128,251.074 85.954 C 249.184 86.780,247.139 87.764,246.532 88.140 C 244.762 89.236,243.813 89.626,242.913 89.626 C 242.210 89.626,238.259 91.435,237.088 92.294 C 236.947 92.397,236.059 92.799,235.114 93.187 C 234.044 93.627,232.978 94.298,232.289 94.965 C 231.682 95.554,230.356 96.444,229.343 96.944 C 227.804 97.702,227.489 97.960,227.425 98.512 C 227.363 99.052,227.138 99.248,226.198 99.586 C 225.564 99.813,224.698 100.151,224.272 100.337 C 223.847 100.523,223.377 100.675,223.229 100.675 C 223.081 100.675,222.131 101.117,221.117 101.657 C 220.104 102.198,219.134 102.640,218.964 102.640 C 218.793 102.640,218.246 102.916,217.750 103.254 C 217.253 103.591,216.675 103.867,216.465 103.867 C 216.255 103.867,216.083 103.967,216.083 104.088 C 216.083 104.209,215.256 104.707,214.244 105.193 C 213.232 105.680,212.266 106.299,212.097 106.569 C 211.929 106.839,211.582 107.060,211.326 107.060 C 211.070 107.060,210.604 107.336,210.292 107.673 C 209.979 108.011,209.508 108.287,209.246 108.287 C 208.984 108.287,208.706 108.453,208.628 108.656 C 208.550 108.858,208.266 109.024,207.997 109.024 C 207.727 109.024,207.395 109.231,207.260 109.485 C 206.894 110.169,205.744 110.326,205.584 109.714 C 205.489 109.353,205.318 109.268,204.893 109.375 C 203.896 109.625,204.000 109.060,205.049 108.525 C 205.607 108.240,206.010 107.954,205.945 107.889 C 205.701 107.645,202.406 109.578,200.314 111.193 L 198.908 112.278 197.015 111.697 C 195.681 111.288,194.894 110.883,194.355 110.327 C 193.707 109.660,190.366 108.042,189.637 108.042 C 189.519 108.042,188.989 107.821,188.459 107.551 C 187.929 107.281,187.245 107.060,186.938 107.060 C 186.630 107.060,185.717 106.712,184.908 106.288 C 183.765 105.689,183.361 105.580,183.097 105.799 C 182.837 106.014,182.531 105.982,181.802 105.663 C 181.277 105.433,179.963 105.161,178.883 105.058 C 177.802 104.956,176.366 104.750,175.691 104.602 C 170.932 103.557,164.350 103.194,163.608 103.935 C 163.288 104.256,163.399 104.334,164.557 104.603 C 167.073 105.187,174.490 107.330,178.188 108.541 C 180.237 109.212,182.076 109.761,182.275 109.761 C 182.881 109.761,187.204 111.998,187.549 112.490 C 187.727 112.745,188.091 112.953,188.356 112.953 C 188.622 112.953,189.583 113.323,190.491 113.777 C 191.399 114.230,192.455 114.676,192.838 114.769 C 193.772 114.994,197.077 116.532,197.923 117.134 C 198.297 117.400,198.764 117.618,198.960 117.618 C 199.157 117.618,200.049 117.950,200.943 118.355 C 201.836 118.760,202.730 119.091,202.929 119.091 C 203.128 119.091,204.683 119.754,206.384 120.565 C 208.086 121.375,209.581 122.038,209.705 122.038 C 209.830 122.038,210.626 122.353,211.473 122.738 C 212.321 123.123,214.230 123.901,215.715 124.468 C 217.201 125.035,219.190 125.810,220.135 126.191 C 222.575 127.173,223.154 127.280,223.600 126.834 C 223.876 126.558,224.096 126.524,224.433 126.704 C 224.685 126.839,225.260 126.949,225.712 126.949 C 226.163 126.949,226.762 127.110,227.042 127.306 C 227.465 127.602,228.737 127.856,231.553 128.208 C 232.364 128.309,233.517 128.164,233.517 127.961 C 233.517 127.842,233.158 127.601,232.719 127.425 C 230.911 126.700,230.476 125.967,231.854 125.967 C 232.314 125.967,232.505 125.870,232.395 125.693 C 232.293 125.527,231.839 125.472,231.244 125.551 C 230.290 125.679,229.701 125.512,227.641 124.528 C 227.178 124.306,226.652 124.158,226.472 124.198 C 226.292 124.238,226.077 124.095,225.994 123.880 C 225.825 123.438,222.806 121.940,221.012 121.407 C 220.360 121.213,219.682 120.882,219.507 120.671 C 219.083 120.159,217.941 119.583,217.353 119.583 C 217.093 119.583,215.955 119.069,214.824 118.442 C 213.694 117.815,211.940 117.030,210.927 116.698 C 209.914 116.366,208.754 115.921,208.349 115.709 C 207.944 115.497,207.009 115.136,206.272 114.906 C 204.334 114.301,204.414 114.191,208.277 112.099 C 210.207 111.054,212.007 110.002,212.277 109.761 C 212.548 109.520,213.542 108.936,214.487 108.464 C 215.433 107.991,216.417 107.372,216.674 107.087 C 216.931 106.802,217.337 106.568,217.576 106.568 C 217.815 106.568,218.338 106.292,218.740 105.955 C 219.141 105.617,219.688 105.341,219.956 105.341 C 220.224 105.341,220.581 105.175,220.749 104.972 C 220.917 104.770,221.236 104.604,221.459 104.604 C 221.681 104.604,222.281 104.320,222.793 103.972 C 223.305 103.624,224.076 103.180,224.508 102.986 C 224.939 102.791,225.457 102.535,225.660 102.417 C 225.862 102.298,226.304 102.080,226.642 101.931 C 226.980 101.783,227.422 101.554,227.624 101.424 C 228.018 101.171,229.957 100.270,234.500 98.227 C 236.053 97.529,237.632 96.791,238.009 96.586 C 238.387 96.382,238.995 96.122,239.360 96.008 C 239.726 95.894,240.632 95.565,241.375 95.276 C 242.118 94.988,243.278 94.579,243.953 94.368 C 245.425 93.908,246.652 93.425,247.595 92.934 C 247.977 92.735,248.559 92.572,248.888 92.572 C 249.216 92.572,249.677 92.470,249.911 92.345 C 250.146 92.219,250.542 92.053,250.793 91.974 C 251.071 91.887,251.193 91.689,251.107 91.465 C 250.943 91.037,251.227 90.982,251.613 91.367 C 251.798 91.552,252.025 91.558,252.345 91.387 C 253.223 90.917,257.412 89.622,259.643 89.131 C 260.873 88.860,262.431 88.516,263.106 88.366 C 263.781 88.215,265.091 87.774,266.017 87.386 C 267.940 86.578,268.140 86.545,268.140 87.031 C 268.140 87.523,268.847 87.685,269.859 87.425 C 270.331 87.303,270.994 87.134,271.332 87.050 C 272.650 86.720,275.420 85.866,276.120 85.574 C 276.525 85.405,277.152 85.255,277.513 85.240 C 278.279 85.210,281.960 83.904,282.761 83.379 C 283.172 83.110,283.739 83.056,285.021 83.163 C 286.174 83.260,286.788 83.216,286.904 83.028 C 286.999 82.875,287.429 82.748,287.860 82.746 C 288.871 82.742,289.315 82.451,289.114 81.926 C 288.984 81.588,289.088 81.520,289.665 81.564 C 290.056 81.594,290.518 81.531,290.692 81.424 C 290.880 81.307,291.198 81.402,291.483 81.659 C 291.926 82.060,291.989 82.062,292.407 81.683 C 292.911 81.228,293.571 81.151,293.800 81.522 C 293.883 81.657,294.304 81.769,294.735 81.771 C 296.369 81.776,297.360 82.059,297.360 82.519 C 297.360 82.762,297.643 83.183,297.990 83.455 C 298.618 83.949,299.149 84.149,301.351 84.721 C 302.213 84.945,302.517 85.142,302.517 85.478 C 302.517 85.767,302.758 85.993,303.178 86.099 C 303.542 86.190,305.202 86.976,306.867 87.845 C 308.533 88.715,310.774 89.786,311.848 90.225 C 312.923 90.665,314.218 91.307,314.728 91.653 C 315.237 91.998,316.431 92.705,317.381 93.224 C 320.231 94.781,323.154 96.477,327.875 99.312 C 330.337 100.790,333.125 102.393,334.070 102.874 C 335.015 103.355,336.431 104.226,337.215 104.809 C 338.000 105.392,339.326 106.234,340.162 106.679 C 340.998 107.125,342.258 107.862,342.962 108.318 C 343.666 108.774,344.808 109.478,345.499 109.883 C 346.191 110.289,347.383 111.034,348.148 111.540 C 349.941 112.726,351.219 112.743,350.457 111.570 C 350.263 111.273,346.332 108.533,346.098 108.533 C 346.021 108.533,345.383 108.110,344.680 107.592 C 342.393 105.910,327.960 96.336,326.904 95.801 C 326.340 95.514,325.808 95.168,325.723 95.031 C 325.639 94.894,325.428 94.782,325.254 94.782 C 324.857 94.782,317.303 90.458,316.620 89.839 C 316.341 89.587,315.889 89.380,315.615 89.380 C 315.340 89.380,314.916 89.159,314.672 88.889 C 314.427 88.619,314.048 88.398,313.829 88.398 C 313.099 88.398,312.281 87.659,312.594 87.281 C 312.747 87.097,312.800 86.829,312.711 86.686 C 312.480 86.311,312.089 86.626,312.253 87.055 C 312.565 87.869,309.136 86.540,304.312 83.978 C 303.055 83.310,302.026 82.825,302.026 82.900 C 302.026 82.975,301.667 82.820,301.228 82.556 C 300.789 82.293,299.877 82.007,299.202 81.921 C 298.527 81.835,297.861 81.612,297.722 81.425 C 297.583 81.239,296.920 81.023,296.248 80.945 C 293.825 80.666,292.814 80.486,292.614 80.299 C 292.502 80.195,291.729 80.157,290.895 80.215 C 289.495 80.313,289.347 80.274,288.944 79.700 C 288.392 78.915,289.247 78.586,290.777 78.995 C 291.767 79.259,292.940 79.153,292.940 78.799 C 292.940 78.354,291.433 77.839,290.129 77.839 C 288.905 77.839,288.766 77.786,288.766 77.319 C 288.766 76.922,288.652 76.830,288.278 76.927 C 288.001 77.000,287.533 76.853,287.196 76.588 C 286.501 76.041,286.602 76.038,284.715 76.666 M305.376 81.956 C 305.159 82.308,306.068 83.031,306.513 82.860 C 306.724 82.779,307.176 82.896,307.517 83.119 C 307.857 83.342,308.391 83.489,308.703 83.444 C 309.197 83.374,309.121 83.277,308.114 82.685 C 306.818 81.923,305.597 81.598,305.376 81.956 M254.144 85.893 C 254.144 86.251,253.562 86.679,253.074 86.679 C 252.610 86.679,252.609 86.663,253.039 86.188 C 253.482 85.698,254.144 85.521,254.144 85.893 M315.587 88.442 C 315.724 88.853,316.456 89.273,316.668 89.062 C 316.766 88.964,316.633 88.723,316.372 88.526 C 315.795 88.089,315.457 88.053,315.587 88.442 M242.603 90.362 C 242.603 90.497,242.437 90.608,242.234 90.608 C 242.032 90.608,241.866 90.497,241.866 90.362 C 241.866 90.227,242.032 90.117,242.234 90.117 C 242.437 90.117,242.603 90.227,242.603 90.362 M154.819 97.626 C 154.002 98.053,152.301 98.484,151.070 98.577 C 150.629 98.610,150.196 98.709,150.108 98.797 C 150.021 98.885,149.590 98.956,149.151 98.956 C 148.572 98.956,148.224 99.134,147.881 99.604 C 147.526 100.091,147.021 100.336,145.835 100.595 C 143.559 101.093,140.917 101.466,140.763 101.311 C 140.535 101.083,141.228 100.430,141.698 100.430 C 141.943 100.430,142.220 100.307,142.312 100.158 C 142.421 99.982,142.318 99.933,142.020 100.019 C 141.766 100.093,141.062 100.289,140.454 100.456 C 139.847 100.623,139.156 100.924,138.920 101.124 C 138.683 101.324,138.490 101.421,138.490 101.340 C 138.490 101.258,138.098 101.355,137.620 101.555 C 137.141 101.755,136.646 101.855,136.520 101.777 C 136.393 101.699,136.084 101.745,135.832 101.880 C 135.580 102.015,134.666 102.174,133.801 102.232 C 132.936 102.291,131.842 102.508,131.369 102.714 C 130.161 103.240,127.191 104.163,126.458 104.240 C 126.120 104.275,125.083 104.588,124.153 104.936 C 120.419 106.330,120.734 104.184,124.511 102.489 C 125.438 102.073,125.881 101.756,125.694 101.641 C 125.531 101.540,125.194 101.557,124.945 101.680 C 124.697 101.803,124.274 102.014,124.006 102.149 C 123.738 102.284,123.232 102.394,122.883 102.394 C 122.534 102.394,122.083 102.560,121.880 102.762 C 121.678 102.965,121.188 103.131,120.793 103.131 C 120.397 103.131,120.074 103.241,120.074 103.376 C 120.074 103.511,120.249 103.622,120.462 103.622 C 121.110 103.622,120.705 104.200,119.914 104.405 C 119.480 104.517,119.058 104.850,118.895 105.208 C 118.423 106.244,114.903 107.279,114.593 106.472 C 114.410 105.996,113.481 106.293,105.907 109.246 C 103.450 110.204,101.307 110.988,101.146 110.988 C 100.984 110.988,99.404 111.640,97.633 112.438 C 95.862 113.235,93.585 114.241,92.572 114.674 C 91.559 115.107,89.162 116.168,87.246 117.031 C 85.329 117.894,83.657 118.600,83.531 118.600 C 82.779 118.600,58.083 130.875,54.021 133.267 C 52.873 133.943,51.105 134.990,50.092 135.594 C 49.079 136.199,46.703 137.551,44.813 138.599 C 42.922 139.647,39.497 141.554,37.201 142.837 C 34.905 144.120,31.148 146.109,28.852 147.258 C 23.691 149.840,22.848 150.522,24.815 150.522 C 25.856 150.522,25.717 150.820,24.125 152.001 C 21.829 153.703,20.471 155.187,21.209 155.187 C 21.541 155.187,23.641 154.295,26.274 153.034 C 29.623 151.431,31.817 150.581,32.038 150.802 C 32.390 151.154,31.736 151.828,30.236 152.657 C 29.340 153.152,28.294 153.813,27.912 154.127 C 27.531 154.440,26.951 154.696,26.623 154.696 C 26.192 154.696,26.028 154.831,26.028 155.187 C 26.028 155.767,26.296 155.798,27.342 155.338 C 27.767 155.151,28.778 154.748,29.589 154.443 C 30.399 154.137,33.493 152.701,36.464 151.251 C 39.435 149.801,42.916 148.120,44.199 147.515 C 45.482 146.910,50.012 144.755,54.266 142.726 C 62.775 138.669,65.615 137.339,67.281 136.633 C 67.888 136.376,69.932 135.371,71.823 134.400 C 75.759 132.380,83.155 128.913,83.530 128.913 C 83.669 128.913,85.069 128.312,86.643 127.578 C 88.216 126.843,91.657 125.404,94.291 124.379 C 96.924 123.354,99.466 122.340,99.939 122.126 C 100.411 121.912,101.406 121.541,102.149 121.301 C 102.891 121.061,104.494 120.475,105.709 119.999 C 112.666 117.274,115.909 116.125,123.511 113.693 C 126.550 112.720,129.810 111.649,130.755 111.312 C 131.700 110.975,132.971 110.529,133.579 110.320 C 135.141 109.784,135.384 109.467,134.193 109.519 C 132.724 109.584,132.638 109.559,132.329 108.982 C 131.951 108.276,132.463 107.894,134.089 107.671 C 134.753 107.579,135.359 107.404,135.435 107.282 C 135.510 107.160,135.846 107.060,136.180 107.060 C 136.515 107.060,137.033 106.902,137.332 106.710 C 137.631 106.518,138.428 106.275,139.104 106.170 C 139.779 106.065,140.387 105.964,140.454 105.947 C 140.522 105.929,140.909 105.832,141.314 105.731 C 141.719 105.631,142.271 105.453,142.541 105.338 C 142.812 105.222,143.751 105.020,144.629 104.888 C 145.506 104.757,147.092 104.419,148.153 104.137 C 149.214 103.855,151.984 103.299,154.310 102.902 C 156.636 102.504,158.972 102.019,159.502 101.824 C 160.033 101.629,160.947 101.338,161.534 101.178 C 162.911 100.802,162.696 100.625,160.650 100.449 C 158.822 100.292,158.237 99.602,159.346 98.909 C 161.179 97.764,156.884 96.546,154.819 97.626 M161.974 97.899 C 161.698 98.176,161.806 98.465,162.185 98.465 C 162.388 98.465,162.554 98.361,162.554 98.234 C 162.554 97.925,162.170 97.703,161.974 97.899 M341.143 103.240 C 341.522 103.585,341.943 103.867,342.079 103.867 C 342.510 103.867,342.046 103.386,341.237 102.993 L 340.454 102.614 341.143 103.240 M343.306 104.693 C 343.628 105.012,344.266 105.481,344.722 105.736 C 345.606 106.230,345.850 106.376,347.239 107.244 C 348.254 107.877,348.853 108.003,347.937 107.390 C 347.603 107.167,346.777 106.570,346.102 106.064 C 344.894 105.159,343.161 104.113,342.869 104.113 C 342.787 104.113,342.984 104.374,343.306 104.693 M114.180 107.051 C 114.180 107.181,113.959 107.406,113.689 107.551 C 113.159 107.835,113.120 107.795,113.347 107.202 C 113.508 106.783,114.180 106.661,114.180 107.051 M349.521 108.758 C 349.999 109.286,350.399 109.425,350.399 109.063 C 350.399 108.950,350.097 108.720,349.728 108.552 C 349.060 108.247,349.059 108.247,349.521 108.758 M351.627 110.082 C 351.627 110.414,353.383 111.970,353.761 111.972 C 353.870 111.972,354.542 112.414,355.254 112.954 C 355.965 113.493,356.661 113.935,356.799 113.935 C 356.937 113.935,357.625 114.359,358.328 114.877 C 359.032 115.396,359.883 115.964,360.221 116.141 C 360.559 116.317,361.248 116.785,361.753 117.181 C 362.258 117.577,362.856 117.865,363.083 117.821 C 363.526 117.735,362.705 117.128,357.912 113.997 C 356.413 113.018,354.744 111.846,354.202 111.393 C 352.844 110.259,351.627 109.639,351.627 110.082 M204.279 111.624 C 203.947 112.025,203.069 112.092,203.069 111.717 C 203.069 111.423,204.081 110.991,204.370 111.162 C 204.478 111.225,204.437 111.434,204.279 111.624 M104.475 112.206 C 104.586 112.386,102.874 113.444,102.471 113.444 C 101.946 113.444,103.352 112.313,104.283 111.987 C 104.308 111.978,104.395 112.077,104.475 112.206 M351.047 112.386 C 350.754 112.680,350.889 113.198,351.258 113.198 C 351.461 113.198,351.627 113.039,351.627 112.844 C 351.627 112.434,351.276 112.157,351.047 112.386 M353.591 114.417 C 353.591 114.721,354.518 115.222,354.865 115.106 C 355.214 114.990,354.407 114.180,353.942 114.180 C 353.749 114.180,353.591 114.287,353.591 114.417 M356.930 116.598 C 356.845 116.735,356.895 116.922,357.041 117.012 C 357.419 117.245,357.662 116.926,357.347 116.610 C 357.171 116.434,357.033 116.430,356.930 116.598 M364.146 118.589 C 364.482 118.847,364.805 119.009,364.865 118.949 C 365.004 118.811,364.106 118.126,363.781 118.123 C 363.646 118.121,363.811 118.331,364.146 118.589 M126.703 122.284 C 126.703 122.419,126.980 122.529,127.317 122.529 C 127.655 122.529,127.931 122.419,127.931 122.284 C 127.931 122.149,127.655 122.038,127.317 122.038 C 126.980 122.038,126.703 122.149,126.703 122.284 M125.169 122.794 C 124.462 123.206,124.683 123.490,125.476 123.191 C 126.219 122.910,126.473 122.523,125.905 122.537 C 125.737 122.541,125.405 122.657,125.169 122.794 M128.803 124.295 C 128.318 124.577,126.511 125.271,123.389 126.376 C 122.443 126.710,121.449 127.074,121.179 127.184 C 120.909 127.294,120.190 127.520,119.583 127.687 C 118.975 127.853,117.649 128.308,116.636 128.698 C 115.623 129.088,114.704 129.407,114.594 129.406 C 114.345 129.404,111.816 130.509,110.988 130.981 C 110.651 131.174,109.518 131.754,108.472 132.271 C 106.860 133.067,105.688 134.004,106.998 133.449 C 107.234 133.349,107.870 133.181,108.410 133.076 C 108.950 132.971,110.386 132.600,111.600 132.250 C 114.267 131.483,114.695 131.455,113.868 132.106 C 113.525 132.376,112.985 132.599,112.668 132.602 C 112.352 132.605,111.612 132.826,111.023 133.093 C 110.434 133.360,109.803 133.579,109.620 133.579 C 109.437 133.579,109.168 133.800,109.024 134.070 C 108.603 134.857,111.003 134.682,112.759 133.798 C 112.990 133.682,113.335 133.647,113.525 133.720 C 113.716 133.793,113.938 133.681,114.018 133.470 C 114.099 133.260,114.331 133.088,114.534 133.088 C 114.737 133.088,115.507 132.812,116.245 132.474 C 116.983 132.136,117.645 131.860,117.716 131.860 C 117.786 131.860,119.455 131.087,121.424 130.141 C 123.393 129.196,125.128 128.422,125.281 128.422 C 125.722 128.422,125.269 128.090,124.712 128.005 C 124.433 127.963,123.884 128.157,123.492 128.436 C 123.032 128.764,122.493 128.917,121.978 128.868 L 121.179 128.791 122.305 128.115 C 122.925 127.744,123.659 127.440,123.936 127.440 C 124.214 127.440,124.500 127.286,124.573 127.097 C 124.647 126.903,125.241 126.681,125.945 126.584 C 126.781 126.469,127.368 126.221,127.743 125.826 C 128.049 125.503,128.465 125.233,128.668 125.226 C 128.870 125.218,129.368 124.941,129.773 124.609 L 130.510 124.005 129.896 124.011 C 129.558 124.015,129.066 124.142,128.803 124.295 M120.442 124.423 C 120.172 124.488,119.846 124.641,119.718 124.763 C 119.339 125.122,120.188 125.024,120.966 124.618 C 121.650 124.261,121.440 124.183,120.442 124.423 M118.109 125.353 C 117.548 125.674,117.539 125.705,118.001 125.713 C 118.279 125.717,118.721 125.559,118.983 125.361 C 119.626 124.875,118.956 124.869,118.109 125.353 M376.722 127.993 C 377.699 129.285,387.106 137.262,387.652 137.262 C 387.746 137.262,388.167 137.597,388.589 138.005 C 389.011 138.414,390.466 139.547,391.822 140.522 C 393.179 141.498,394.759 142.848,395.334 143.524 C 395.909 144.199,397.166 145.580,398.128 146.592 L 399.877 148.433 399.952 147.259 L 400.028 146.085 397.681 143.739 C 396.390 142.448,395.335 141.248,395.335 141.072 C 395.335 140.896,395.185 140.695,395.002 140.625 C 394.691 140.505,391.068 137.841,390.202 137.094 C 389.716 136.676,387.720 135.078,386.959 134.500 C 386.649 134.263,386.307 134.070,386.199 134.070 C 386.092 134.070,385.798 133.877,385.547 133.640 C 383.536 131.750,377.042 127.195,376.358 127.195 C 376.227 127.195,376.390 127.554,376.722 127.993 M69.245 129.071 C 69.245 129.331,68.411 129.880,68.017 129.880 C 67.761 129.879,67.826 129.732,68.229 129.396 C 68.808 128.914,69.245 128.774,69.245 129.071 M116.817 131.047 C 116.589 131.276,116.333 131.394,116.249 131.309 C 116.007 131.068,116.378 130.632,116.826 130.632 C 117.201 130.632,117.200 130.665,116.817 131.047 M64.211 133.333 C 64.128 133.468,63.900 133.579,63.706 133.579 C 63.511 133.579,63.352 133.468,63.352 133.333 C 63.352 133.198,63.579 133.088,63.857 133.088 C 64.135 133.088,64.295 133.198,64.211 133.333 M115.316 135.249 C 115.128 135.438,114.325 135.740,113.533 135.920 C 112.741 136.101,111.541 136.438,110.866 136.669 C 108.837 137.363,107.037 138.974,108.717 138.591 C 110.836 138.107,117.373 135.534,117.373 135.183 C 117.373 134.905,115.604 134.961,115.316 135.249 M124.304 136.572 C 124.456 137.026,124.909 137.078,125.069 136.659 C 125.171 136.393,125.064 136.280,124.711 136.280 C 124.431 136.280,124.250 136.410,124.304 136.572 M127.686 137.385 C 127.213 137.567,126.457 137.724,126.005 137.735 C 125.553 137.745,124.890 137.958,124.531 138.208 C 124.173 138.459,123.439 138.732,122.901 138.816 C 121.775 138.992,117.864 140.675,117.864 140.984 C 117.864 141.296,118.224 141.239,119.641 140.700 C 120.352 140.430,121.156 140.209,121.428 140.209 C 121.700 140.209,122.308 140.002,122.778 139.750 C 123.249 139.498,124.021 139.214,124.494 139.118 C 124.966 139.023,125.905 138.741,126.581 138.492 C 127.256 138.243,128.278 137.915,128.852 137.764 C 129.426 137.612,129.896 137.382,129.896 137.252 C 129.896 136.921,128.706 136.992,127.686 137.385 M132.474 138.328 C 131.074 138.751,130.632 138.972,130.632 139.250 C 130.632 139.429,130.830 139.465,131.185 139.349 C 131.489 139.250,132.069 139.179,132.475 139.193 C 132.881 139.206,133.526 139.012,133.908 138.761 L 134.602 138.306 133.906 138.206 C 133.524 138.151,132.879 138.206,132.474 138.328 M380.892 139.280 C 380.689 139.483,380.687 139.647,380.883 139.884 C 381.271 140.351,381.584 140.284,381.584 139.732 C 381.584 139.131,381.256 138.916,380.892 139.280 M128.791 139.408 C 127.373 139.615,126.936 140.454,128.245 140.454 C 129.058 140.454,130.141 139.885,130.141 139.458 C 130.141 139.222,130.078 139.220,128.791 139.408 M382.096 140.060 C 381.758 140.467,382.238 141.060,383.120 141.324 C 383.423 141.415,383.849 141.714,384.067 141.989 C 384.522 142.564,385.021 142.380,385.021 141.639 C 385.021 141.256,384.904 141.164,384.535 141.261 C 384.176 141.355,383.915 141.170,383.533 140.553 C 382.980 139.658,382.552 139.511,382.096 140.060 M125.343 140.716 C 125.254 140.860,125.243 141.040,125.318 141.115 C 125.520 141.317,126.212 141.001,126.212 140.708 C 126.212 140.374,125.550 140.381,125.343 140.716 M123.566 141.248 C 122.912 141.563,122.980 142.089,123.660 141.966 C 124.277 141.853,124.767 141.435,124.599 141.163 C 124.433 140.894,124.274 140.907,123.566 141.248 M113.554 142.156 C 113.426 142.281,112.943 142.419,112.481 142.463 C 111.435 142.561,111.229 143.039,112.134 143.266 C 112.615 143.387,112.892 143.325,113.093 143.050 C 113.248 142.838,113.480 142.664,113.608 142.664 C 113.736 142.664,114.056 142.502,114.318 142.304 C 114.787 141.949,114.786 141.943,114.291 141.935 C 114.014 141.931,113.683 142.030,113.554 142.156 M385.574 142.376 C 384.939 142.859,385.087 143.177,386.211 143.753 C 387.136 144.227,387.111 144.235,387.336 143.401 C 387.492 142.825,387.480 142.815,387.138 143.241 C 386.672 143.822,386.169 143.522,386.316 142.752 C 386.463 141.983,386.240 141.869,385.574 142.376 M387.791 143.922 C 387.448 144.264,387.657 144.874,388.117 144.874 C 388.318 144.874,388.459 144.621,388.459 144.260 C 388.459 143.599,388.230 143.483,387.791 143.922 M392.388 145.350 C 392.388 146.164,398.969 152.486,399.816 152.486 C 400.769 152.486,399.905 150.253,398.462 148.986 C 396.433 147.205,392.388 144.784,392.388 145.350 M389.196 145.704 C 389.196 146.656,393.506 150.442,395.396 151.150 C 396.485 151.558,395.677 150.480,394.086 149.403 C 393.129 148.755,391.786 147.581,391.102 146.795 C 389.897 145.409,389.196 145.008,389.196 145.704 M24.640 155.812 C 24.428 156.363,24.681 156.496,25.304 156.163 C 25.737 155.931,25.779 155.827,25.509 155.656 C 25.018 155.345,24.804 155.383,24.640 155.812 M318.987 204.398 C 318.612 204.850,318.798 204.945,320.783 205.311 C 322.013 205.537,322.562 205.546,322.884 205.344 C 323.213 205.139,323.405 205.151,323.662 205.391 C 324.308 205.996,326.767 206.094,327.071 205.526 C 327.410 204.893,327.808 204.893,327.808 205.525 C 327.808 206.122,328.228 206.157,328.834 205.608 C 329.357 205.135,329.738 205.343,329.305 205.865 C 328.891 206.364,329.103 206.427,331.860 206.623 C 333.850 206.764,334.258 206.738,334.012 206.484 C 333.770 206.234,333.790 206.080,334.107 205.730 C 334.632 205.150,334.470 205.104,331.246 204.916 C 329.828 204.834,327.729 204.679,326.581 204.574 C 325.433 204.468,324.229 204.476,323.907 204.592 C 323.489 204.742,323.201 204.694,322.905 204.427 C 322.350 203.925,319.398 203.903,318.987 204.398 M332.331 205.428 C 332.821 205.616,332.830 205.921,332.351 206.105 C 331.737 206.341,331.183 206.019,331.516 205.619 C 331.840 205.228,331.820 205.232,332.331 205.428 M335.150 205.368 C 334.899 206.970,335.475 207.367,336.939 206.602 C 337.387 206.368,338.361 206.149,339.104 206.115 C 339.847 206.081,340.544 206.045,340.653 206.034 C 341.394 205.966,340.340 205.531,339.518 205.567 C 338.953 205.592,337.744 205.522,336.832 205.412 C 335.921 205.302,335.164 205.282,335.150 205.368 M320.074 210.304 C 319.533 210.507,318.880 210.676,318.621 210.678 C 316.869 210.691,320.352 211.416,325.721 212.154 C 327.612 212.414,330.366 212.797,331.841 213.005 C 333.317 213.213,336.059 213.382,337.935 213.382 C 339.950 213.382,341.553 213.493,341.852 213.653 C 342.200 213.840,342.519 213.846,342.879 213.675 C 343.166 213.539,343.594 213.365,343.831 213.290 C 345.035 212.905,342.427 212.307,335.666 211.419 C 334.518 211.268,332.861 211.046,331.983 210.925 C 325.037 209.969,321.457 209.782,320.074 210.304 M325.107 213.913 C 326.243 214.381,329.985 214.468,329.419 214.012 C 329.062 213.724,328.386 213.632,326.718 213.644 C 324.946 213.656,324.618 213.711,325.107 213.913 M330.894 214.339 C 330.729 214.605,331.320 214.856,332.111 214.856 C 332.812 214.856,333.113 214.474,332.575 214.268 C 332.001 214.047,331.049 214.088,330.894 214.339 "
            stroke="none" fill="#110f0c" fill-rule="evenodd"></path>
    </g>
</svg>