<?xml version="1.0" standalone="no"?>
<!DOCTYPE svg PUBLIC "-//W3C//DTD SVG 20010904//EN"
 "http://www.w3.org/TR/2001/REC-SVG-20010904/DTD/svg10.dtd">
<svg version="1.0" xmlns="http://www.w3.org/2000/svg"
 width="768.000000pt" height="472.000000pt" viewBox="0 0 768.000000 472.000000"
 preserveAspectRatio="xMidYMid meet">
<metadata>
Created by potrace 1.16, written by Peter Selinger 2001-2019
</metadata>
<g transform="translate(0.000000,472.000000) scale(0.100000,-0.100000)"
fill="#000000" stroke="none">
<path d="M4937 4190 c-30 -84 -18 -294 16 -273 6 4 8 0 4 -10 -3 -10 -2 -17 3
-17 5 0 7 -9 5 -20 -4 -21 77 -151 116 -186 79 -70 176 -114 253 -114 l61 0
18 -142 c10 -79 21 -158 24 -176 5 -31 4 -34 -18 -31 -13 2 -30 0 -37 -5 -7
-4 -19 -2 -27 4 -8 7 -15 8 -15 4 0 -10 -101 -41 -163 -50 -21 -3 -53 -12 -71
-19 -35 -15 -86 -26 -86 -20 0 3 12 11 28 20 26 15 26 16 2 9 -14 -4 -43 -14
-65 -24 -22 -10 -65 -28 -95 -40 -30 -12 -90 -40 -133 -61 -43 -22 -85 -39
-93 -39 -19 0 -214 -100 -214 -110 0 -4 -18 -15 -39 -25 -22 -9 -41 -25 -44
-34 -2 -9 -36 -28 -78 -45 -41 -16 -84 -35 -96 -43 -13 -7 -24 -12 -25 -11 -2
2 -17 -7 -35 -20 -17 -12 -34 -22 -37 -22 -3 0 -28 -16 -55 -35 -31 -22 -51
-31 -53 -24 -3 9 -9 9 -24 0 -15 -10 -15 -11 -1 -7 9 3 17 1 17 -4 0 -5 -13
-8 -30 -7 -39 3 -38 10 5 27 19 8 35 17 35 22 0 12 -88 -35 -132 -70 -37 -29
-38 -29 -83 -15 -25 9 -45 19 -45 24 0 10 -50 32 -125 56 -27 9 -55 20 -60 24
-6 4 -20 8 -30 8 -21 0 -93 12 -184 30 -59 12 -184 15 -194 4 -4 -3 62 -26
146 -51 222 -65 228 -67 271 -86 30 -14 36 -20 25 -27 -10 -6 -7 -9 13 -9 33
0 130 -44 120 -55 -4 -5 1 -5 11 -2 9 4 17 2 17 -4 0 -6 6 -9 13 -6 6 2 23 -2
37 -9 26 -15 73 -34 335 -141 115 -47 167 -63 187 -59 31 6 61 -2 53 -14 -3
-5 14 -8 37 -7 30 1 42 -2 40 -10 -1 -7 2 -13 8 -13 5 0 10 4 10 9 0 5 10 12
23 15 21 6 21 7 -8 21 -16 7 -24 14 -17 14 6 1 12 5 12 10 0 5 -22 11 -50 15
-27 4 -52 10 -54 15 -8 12 -113 61 -132 61 -8 0 -13 4 -10 9 3 5 -6 12 -22 15
-15 4 -54 20 -87 36 -33 16 -87 39 -121 52 l-61 22 88 53 c49 29 91 53 95 53
3 0 18 9 33 20 52 36 386 198 486 234 55 21 107 40 115 43 8 4 20 8 25 9 34 7
54 18 48 27 -3 6 -1 7 6 3 6 -4 33 0 60 9 26 8 59 18 72 21 75 18 123 25 135
20 8 -3 11 0 8 9 -6 14 19 15 32 2 12 -12 26 -8 18 5 -4 6 -3 8 3 5 12 -7 188
43 274 78 12 4 22 -4 37 -29 28 -47 58 -48 77 -4 7 18 11 36 9 40 -3 5 2 8 11
8 9 0 13 4 10 10 -4 6 20 7 62 4 37 -3 70 -10 71 -15 6 -14 58 -39 83 -39 15
0 19 -5 15 -15 -3 -9 1 -15 11 -15 18 0 246 -113 332 -164 31 -18 92 -55 136
-81 44 -27 100 -59 124 -72 25 -13 52 -29 60 -37 9 -7 34 -23 56 -35 22 -12
72 -41 110 -66 39 -25 81 -50 94 -55 13 -6 36 -19 51 -30 32 -23 40 -25 40
-10 0 6 -12 15 -26 20 -14 6 -23 14 -20 18 3 5 0 9 -7 9 -7 0 -59 33 -117 74
-58 41 -149 103 -203 138 -83 55 -95 66 -84 80 10 14 10 14 -4 3 -14 -10 -23
-8 -58 15 -22 14 -41 34 -41 42 0 12 -2 13 -8 3 -7 -9 -25 -4 -75 25 -37 20
-67 41 -67 45 0 5 5 6 10 3 6 -3 10 -2 10 2 0 5 -25 21 -56 36 -45 22 -55 25
-50 12 4 -11 2 -15 -6 -12 -7 2 -12 11 -10 21 3 18 -14 22 -20 5 -2 -7 -39 6
-91 32 -55 28 -86 48 -82 56 2 7 0 13 -4 13 -5 0 -11 -6 -14 -12 -3 -10 -7
-10 -17 -1 -7 6 -19 9 -28 6 -11 -5 -13 -3 -7 7 5 9 4 11 -4 6 -6 -4 -18 -3
-25 3 -7 6 -33 12 -57 13 -24 1 -38 3 -31 6 15 5 16 32 1 32 -5 0 -8 4 -4 9 3
6 -15 13 -40 17 -49 7 -60 18 -69 75 -3 20 -8 42 -11 51 -3 8 -9 46 -13 85
l-8 71 36 -5 c19 -2 48 -9 63 -15 18 -7 65 -8 129 -4 118 8 183 31 285 100 62
42 203 174 203 191 0 4 12 21 26 38 37 44 96 174 97 214 1 20 -5 38 -13 43 -8
5 -15 19 -15 32 0 19 -7 24 -45 31 -50 9 -82 7 -225 -16 -55 -9 -122 -18 -150
-22 -154 -18 -257 -79 -339 -201 l-43 -64 -11 63 c-16 83 -63 177 -112 221
-77 69 -190 113 -301 115 -44 1 -58 -2 -63 -15 -6 -15 -9 -15 -29 -1 -22 14
-23 14 -40 -33z m146 -5 c127 -33 241 -115 288 -208 28 -54 45 -141 41 -211
l-4 -57 -36 61 c-45 76 -129 170 -188 210 -48 34 -104 50 -104 30 0 -6 39 -51
88 -98 48 -48 103 -111 122 -140 19 -29 49 -73 67 -97 l32 -44 -32 6 c-128 25
-242 106 -295 210 -35 68 -61 175 -64 266 -3 99 -7 96 85 72z m1134 -141 c-3
-19 -25 -74 -47 -121 -90 -184 -278 -328 -465 -355 -70 -10 -89 -9 -148 7 -37
10 -67 23 -67 30 0 7 39 50 88 97 75 72 99 89 176 121 48 20 93 37 99 37 22 0
127 36 138 47 24 24 -2 35 -65 28 -149 -16 -285 -73 -375 -158 -49 -47 -48
-42 17 58 49 76 126 145 198 176 44 20 76 26 194 35 30 2 87 11 125 18 39 8
85 14 104 15 33 1 34 0 28 -35z m-602 -857 c-8 -4 -29 -3 -47 2 -32 9 -31 9
14 8 31 -1 42 -4 33 -10z m-178 -19 c-3 -8 -6 -5 -6 6 -1 11 2 17 5 13 3 -3 4
-12 1 -19z m-427 -42 c0 -2 -7 -7 -16 -10 -8 -3 -12 -2 -9 4 6 10 25 14 25 6z
m-135 -66 c-3 -5 -11 -10 -16 -10 -6 0 -7 5 -4 10 3 6 11 10 16 10 6 0 7 -4 4
-10z m1190 -50 c3 -5 2 -10 -4 -10 -5 0 -13 5 -16 10 -3 6 -2 10 4 10 5 0 13
-4 16 -10z m35 -20 c0 -5 -2 -10 -4 -10 -3 0 -8 5 -11 10 -3 6 -1 10 4 10 6 0
11 -4 11 -10z m-2183 -416 c-3 -3 -12 -4 -19 -1 -8 3 -5 6 6 6 11 1 17 -2 13
-5z"/>
<path d="M5700 3200 c-13 -8 -12 -10 3 -10 9 0 17 5 17 10 0 12 -1 12 -20 0z"/>
<path d="M5859 3139 c11 -12 24 -18 30 -15 5 4 12 2 16 -4 7 -12 35 -14 35 -2
0 7 -77 42 -93 42 -4 0 1 -9 12 -21z"/>
<path d="M5043 3000 c-13 -5 -23 -12 -23 -15 0 -9 16 -5 36 10 22 16 19 18
-13 5z"/>
<path d="M6146 2973 c5 -5 12 -12 16 -18 4 -6 8 -2 8 8 0 9 -7 17 -17 17 -9 0
-12 -3 -7 -7z"/>
<path d="M6200 2942 c0 -6 9 -12 20 -15 11 -3 20 -3 20 -1 0 2 -9 8 -20 14
-11 6 -20 7 -20 2z"/>
<path d="M2838 2893 c7 -3 16 -2 19 1 4 3 -2 6 -13 5 -11 0 -14 -3 -6 -6z"/>
<path d="M3097 2859 c7 -7 15 -10 18 -7 3 3 -2 9 -12 12 -14 6 -15 5 -6 -5z"/>
<path d="M3005 2852 c-11 -2 -31 -7 -45 -12 -14 -5 -45 -12 -69 -15 -25 -4
-50 -13 -55 -21 -6 -7 -35 -18 -65 -24 -71 -13 -81 -12 -51 5 33 19 13 19 -41
-1 -24 -9 -57 -18 -74 -20 -37 -6 -168 -42 -216 -59 -42 -16 -69 -6 -44 15 9
8 49 29 88 47 40 18 67 33 61 33 -6 0 -36 -11 -65 -24 -30 -13 -62 -22 -71
-20 -10 1 -18 -2 -18 -7 0 -5 -9 -9 -20 -9 -11 0 -23 -7 -26 -15 -4 -8 -10
-12 -15 -9 -11 7 -49 -14 -49 -27 0 -6 7 -3 16 5 18 19 37 21 32 4 -3 -7 -19
-18 -36 -25 -28 -11 -31 -11 -25 4 5 13 3 15 -13 9 -10 -5 -46 -17 -79 -28
-33 -12 -64 -24 -70 -28 -5 -4 -28 -13 -50 -20 -44 -13 -326 -133 -500 -212
-118 -54 -437 -217 -495 -253 -69 -43 -367 -208 -463 -257 -93 -47 -122 -71
-74 -63 20 4 19 2 -8 -21 -41 -36 -65 -55 -99 -82 -16 -12 -24 -22 -19 -22 5
0 13 4 19 9 18 17 235 113 241 107 9 -8 -28 -35 -48 -36 -9 0 -19 -7 -23 -15
-3 -8 -12 -15 -21 -15 -8 0 -15 -5 -15 -11 0 -6 -7 -9 -15 -5 -9 3 -19 -3 -25
-14 -6 -11 -31 -31 -56 -46 -25 -14 -43 -29 -40 -31 2 -3 26 10 52 28 27 18
91 52 144 75 52 23 167 76 255 119 88 42 237 113 330 156 94 44 208 99 255
123 211 110 629 275 1038 411 112 37 202 68 200 70 -2 2 -22 0 -45 -4 -24 -5
-40 -4 -37 0 3 5 0 9 -7 9 -19 0 -1 13 22 17 13 2 18 -1 14 -9 -4 -7 0 -6 7 3
14 17 99 42 273 78 55 11 123 26 150 32 28 6 62 13 78 16 43 8 42 23 -2 23
-42 0 -50 7 -30 27 22 22 -13 43 -56 35z m-685 -126 c0 -3 -4 -8 -10 -11 -5
-3 -10 -1 -10 4 0 6 5 11 10 11 6 0 10 -2 10 -4z"/>
<path d="M3095 2830 c-19 -8 -19 -9 3 -9 12 -1 22 4 22 9 0 6 -1 10 -2 9 -2 0
-12 -4 -23 -9z"/>
<path d="M2540 2821 c-8 -6 -18 -7 -22 -5 -4 3 -8 0 -8 -5 0 -6 3 -11 8 -11
12 1 58 29 47 29 -5 1 -17 -3 -25 -8z"/>
<path d="M6515 2754 c56 -42 215 -142 215 -135 0 12 -211 152 -227 151 -5 -1
1 -8 12 -16z"/>
<path d="M2740 2680 c0 -5 5 -10 11 -10 5 0 7 5 4 10 -3 6 -8 10 -11 10 -2 0
-4 -4 -4 -10z"/>
<path d="M2710 2670 c0 -5 5 -10 11 -10 5 0 7 5 4 10 -3 6 -8 10 -11 10 -2 0
-4 -4 -4 -10z"/>
<path d="M6744 2601 c3 -5 39 -30 80 -57 41 -26 72 -52 69 -57 -3 -6 -1 -7 5
-3 12 7 88 -41 85 -54 -1 -4 5 -7 15 -6 9 0 17 -4 17 -11 0 -6 4 -15 9 -20 6
-5 6 -2 1 6 -6 11 -4 13 8 8 46 -19 50 -18 25 1 -14 12 -30 22 -34 22 -4 0
-30 17 -58 38 -28 20 -71 51 -96 67 -25 16 -58 40 -73 52 -28 22 -64 32 -53
14z"/>
<path d="M6857 2483 c-7 -11 20 -32 123 -100 14 -9 9 -2 -10 15 -19 17 -49 39
-67 48 -18 10 -34 25 -35 34 -3 11 -6 12 -11 3z"/>
<path d="M2480 2388 c-60 -17 -90 -30 -90 -39 0 -4 9 -7 19 -6 11 0 18 4 15 8
-2 4 11 10 29 14 17 4 37 9 44 10 6 2 19 8 30 14 23 13 2 13 -47 -1z"/>
<path d="M7025 2360 c3 -5 8 -10 11 -10 2 0 4 5 4 10 0 6 -5 10 -11 10 -5 0
-7 -4 -4 -10z"/>
<path d="M2515 2349 c-16 -5 -36 -7 -43 -4 -7 3 -10 0 -7 -5 8 -12 -43 -33
-62 -26 -8 3 -12 2 -9 -3 3 -5 -47 -27 -112 -49 -115 -41 -290 -121 -264 -122
7 0 22 5 33 11 11 5 27 9 36 7 15 -3 15 -5 -1 -20 -10 -10 -16 -18 -14 -18 2
0 26 6 53 14 28 7 56 11 63 9 6 -3 12 -1 12 5 0 12 49 34 60 27 5 -3 13 2 18
10 5 9 15 17 23 18 8 2 29 10 48 20 19 9 40 17 48 17 7 0 13 5 13 11 0 6 7 8
16 5 14 -5 15 -4 4 9 -10 12 -10 15 4 15 9 0 16 4 16 9 0 10 70 49 110 61 20
7 21 8 5 8 -11 0 -33 -4 -50 -9z m-105 -73 c0 -3 -4 -8 -10 -11 -5 -3 -10 -1
-10 4 0 6 5 11 10 11 6 0 10 -2 10 -4z m-30 -17 c0 -5 -4 -7 -10 -4 -5 3 -10
2 -10 -3 0 -5 -7 -9 -16 -9 -14 0 -14 2 2 14 22 16 34 17 34 2z m-130 -53 c0
-3 -4 -8 -10 -11 -5 -3 -10 -1 -10 4 0 6 5 11 10 11 6 0 10 -2 10 -4z m-59
-22 c-18 -8 -38 -13 -45 -11 -6 3 5 9 24 15 50 15 60 13 21 -4z"/>
<path d="M2350 2343 c-70 -23 -150 -56 -147 -59 4 -5 139 40 164 55 19 11 9
13 -17 4z"/>
<path d="M7076 2332 c34 -31 102 -82 108 -82 3 0 6 5 6 10 0 6 -5 10 -11 10
-16 0 -39 26 -31 35 4 5 0 6 -10 2 -9 -3 -23 2 -34 14 -9 10 -22 19 -28 19 -6
0 -6 -3 0 -8z"/>
<path d="M7190 2304 c0 -3 16 -21 36 -41 26 -25 33 -38 25 -46 -7 -7 -16 -5
-31 8 -11 10 -20 14 -20 9 0 -5 14 -18 31 -28 18 -11 29 -14 25 -8 -3 6 -2 13
4 17 6 4 38 -18 73 -48 34 -29 100 -82 147 -117 47 -35 111 -91 142 -124 53
-56 57 -59 58 -35 0 15 -10 35 -25 49 -13 12 -22 27 -18 33 3 6 1 7 -5 3 -6
-3 -19 4 -29 17 -10 12 -47 44 -82 71 -36 27 -69 53 -75 57 -13 11 -149 112
-211 156 -25 18 -45 30 -45 27z"/>
<path d="M2135 2260 c-3 -6 1 -7 9 -4 18 7 21 14 7 14 -6 0 -13 -4 -16 -10z"/>
<path d="M4528 2233 c7 -3 16 -2 19 1 4 3 -2 6 -13 5 -11 0 -14 -3 -6 -6z"/>
<path d="M2415 2220 c-3 -5 -2 -10 4 -10 5 0 13 5 16 10 3 6 2 10 -4 10 -5 0
-13 -4 -16 -10z"/>
<path d="M2285 2150 c-4 -6 3 -10 14 -10 25 0 27 6 6 13 -8 4 -17 2 -20 -3z"/>
<path d="M2235 2143 c-11 -3 -24 -12 -28 -20 -8 -12 -11 -12 -24 4 -14 17 -14
17 -10 -3 3 -13 -1 -21 -9 -21 -7 0 -12 5 -11 11 1 6 -7 10 -18 8 -33 -5 -45
-11 -45 -22 0 -7 6 -8 19 0 41 21 34 9 -9 -17 -59 -35 -37 -40 47 -10 99 36
123 49 123 64 0 14 -2 14 -35 6z"/>
<path d="M2429 2115 c-3 -2 -14 -6 -25 -8 -10 -1 -27 -8 -38 -13 -16 -10 -16
-12 -2 -17 9 -4 16 -2 16 3 0 6 3 9 8 9 4 -1 9 0 12 1 17 6 45 8 53 3 14 -8
-16 -23 -34 -17 -9 2 -23 -1 -30 -8 -8 -7 -23 -15 -34 -16 -11 -2 -42 -13 -70
-25 -65 -28 -34 -34 36 -8 36 14 55 17 60 10 4 -7 8 -6 12 3 3 8 34 23 68 33
81 23 91 32 37 31 -29 -1 -42 3 -40 12 2 11 -19 17 -29 7z"/>
<path d="M2610 2079 c-102 -27 -156 -43 -167 -52 -7 -5 -17 -6 -22 -3 -5 4
-12 2 -16 -4 -3 -5 -15 -10 -26 -10 -10 0 -19 -5 -19 -11 0 -5 -4 -7 -10 -4
-5 3 -10 1 -10 -6 0 -6 8 -9 18 -6 31 9 117 40 139 50 12 5 30 10 40 11 33 3
102 26 108 36 3 6 5 10 3 9 -2 0 -19 -5 -38 -10z"/>
<path d="M2320 2070 c-13 -8 -12 -10 3 -10 9 0 17 5 17 10 0 12 -1 12 -20 0z"/>
<path d="M7250 2076 c0 -3 30 -26 68 -53 37 -26 69 -50 72 -53 3 -3 24 -18 47
-33 23 -15 50 -39 60 -53 16 -26 83 -74 102 -74 6 0 8 7 4 15 -3 9 -8 14 -10
11 -9 -9 -133 106 -133 123 0 13 -41 36 -59 32 -8 -1 -10 2 -5 10 5 8 2 11 -8
6 -11 -4 -18 1 -21 15 -4 13 -11 19 -21 15 -8 -3 -17 1 -20 9 -3 9 -10 12 -16
9 -5 -3 -10 2 -11 12 0 10 -3 13 -6 6 -3 -9 -10 -10 -24 -3 -10 6 -19 9 -19 6z"/>
<path d="M2208 2000 c-9 -6 -28 -11 -42 -12 -14 -1 -26 -6 -26 -10 0 -4 -10
-8 -22 -8 -13 0 -30 -5 -38 -10 -29 -19 84 3 117 23 18 10 33 21 33 23 0 6 -3
5 -22 -6z"/>
<path d="M2301 1976 c-10 -12 -8 -13 8 -9 12 3 21 9 21 14 0 14 -16 11 -29 -5z"/>
<path d="M7473 1956 c0 -8 4 -14 8 -13 4 1 15 -7 24 -18 15 -19 16 -19 11 -1
-5 16 -4 17 8 7 8 -7 13 -18 10 -25 -3 -7 4 -21 16 -31 11 -10 20 -15 20 -11
0 4 21 -11 46 -33 26 -23 51 -41 55 -41 19 0 7 41 -18 66 -16 15 -19 21 -8 13
18 -13 19 -13 6 3 -7 10 -17 16 -21 13 -4 -3 -23 5 -41 18 -36 24 -108 67
-113 67 -1 0 -3 -6 -3 -14z m88 -68 c11 -21 11 -22 -4 -9 -10 7 -17 17 -17 22
0 15 9 10 21 -13z"/>
<path d="M2020 1940 c-9 -6 -10 -10 -3 -10 6 0 15 5 18 10 8 12 4 12 -15 0z"/>
<path d="M274 1565 c-10 -8 -14 -14 -9 -14 6 0 19 6 29 14 11 8 15 15 10 15
-6 0 -19 -7 -30 -15z"/>
<path d="M6115 791 c-8 -15 4 -18 85 -26 41 -3 83 -9 93 -11 10 -3 17 0 17 8
0 11 2 10 9 0 13 -21 217 -19 238 2 3 3 -11 6 -33 7 -21 0 -61 2 -89 5 -27 2
-102 8 -165 14 -142 12 -147 12 -155 1z m272 -27 c-3 -3 -12 -4 -19 -1 -8 3
-5 6 6 6 11 1 17 -2 13 -5z m50 -10 c-3 -3 -12 -4 -19 -1 -8 3 -5 6 6 6 11 1
17 -2 13 -5z"/>
<path d="M6533 733 c9 -2 25 -2 35 0 9 3 1 5 -18 5 -19 0 -27 -2 -17 -5z"/>
<path d="M6233 713 c9 -2 25 -2 35 0 9 3 1 5 -18 5 -19 0 -27 -2 -17 -5z"/>
<path d="M6323 703 c9 -2 23 -2 30 0 6 3 -1 5 -18 5 -16 0 -22 -2 -12 -5z"/>
<path d="M6388 693 c6 -2 18 -2 25 0 6 3 1 5 -13 5 -14 0 -19 -2 -12 -5z"/>
<path d="M6558 693 c6 -2 18 -2 25 0 6 3 1 5 -13 5 -14 0 -19 -2 -12 -5z"/>
<path d="M6130 675 l-35 -12 45 -6 c25 -3 90 -13 145 -21 55 -8 140 -17 188
-20 49 -2 91 -7 94 -10 3 -3 15 0 26 6 33 17 6 25 -163 47 -220 28 -260 30
-300 16z"/>
<path d="M6245 605 c44 -7 85 -10 90 -6 13 7 -66 20 -125 19 -36 0 -29 -3 35
-13z"/>
<path d="M6354 598 c-3 -4 13 -8 35 -8 23 0 41 2 41 4 0 8 -71 12 -76 4z"/>
</g>
</svg>
